<svg width="520" height="536" viewBox="0 0 520 536" fill="none" xmlns="http://www.w3.org/2000/svg">
<circle cx="277.726" cy="265.346" r="241.844" fill="#EAF6EE"/>
<mask id="mask0_1916_50986" style="mask-type:alpha" maskUnits="userSpaceOnUse" x="35" y="23" width="485" height="485">
<circle cx="277.726" cy="265.346" r="241.844" fill="#FFC947"/>
</mask>
<g mask="url(#mask0_1916_50986)">
<g opacity="0.2">
<circle cx="240.956" cy="258.902" r="286.195" stroke="white" stroke-width="3.03253"/>
<path d="M482.086 258.903C482.086 392.073 374.008 500.031 240.683 500.031C107.358 500.031 -0.720795 392.073 -0.720795 258.903C-0.720795 125.733 107.358 17.774 240.683 17.774C374.008 17.774 482.086 125.733 482.086 258.903Z" stroke="white" stroke-width="3.03253"/>
<path d="M443.063 258.903C443.063 370.829 352.451 461.56 240.681 461.56C128.91 461.56 38.2982 370.829 38.2982 258.903C38.2982 146.976 128.91 56.2454 240.681 56.2454C352.451 56.2454 443.063 146.976 443.063 258.903Z" stroke="white" stroke-width="3.03253"/>
<circle cx="240.957" cy="259.452" r="171.88" stroke="white" stroke-width="3.03253"/>
</g>
</g>
<mask id="mask1_1916_50986" style="mask-type:alpha" maskUnits="userSpaceOnUse" x="0" y="0" width="520" height="536">
<path fill-rule="evenodd" clip-rule="evenodd" d="M162.489 0H0.249023V536H162.489V478.024C196.748 496.625 236.003 507.191 277.726 507.191C411.293 507.191 519.57 398.913 519.57 265.346C519.57 131.78 411.293 23.5021 277.726 23.5021C236.003 23.5021 196.748 34.0676 162.489 52.6692V0Z" fill="#C4C4C4"/>
</mask>
<g mask="url(#mask1_1916_50986)">
<g filter="url(#filter0_d_1916_50986)">
<rect x="0.0478516" y="80.5526" width="443.876" height="406.142" rx="10" transform="rotate(-10 0.0478516 80.5526)" fill="white" shape-rendering="crispEdges"/>
<g filter="url(#filter1_bd_1916_50986)">
<rect x="21.9875" y="95.9149" width="405.998" height="206.632" rx="18.9387" transform="rotate(-10 21.9875 95.9149)" fill="white" shape-rendering="crispEdges"/>
<path d="M171.938 112.947C171.931 114.115 171.524 115.118 170.719 115.955C169.911 116.782 168.854 117.311 167.549 117.541C165.884 117.834 164.455 117.525 163.263 116.614C162.07 115.702 161.323 114.393 161.022 112.684C160.718 110.965 160.975 109.462 161.791 108.174C162.616 106.873 163.845 106.078 165.477 105.791C166.75 105.566 167.886 105.714 168.886 106.233C169.896 106.739 170.603 107.568 171.008 108.719L169.163 109.045C168.849 108.405 168.396 107.935 167.804 107.635C167.211 107.325 166.534 107.237 165.772 107.371C164.652 107.568 163.817 108.148 163.268 109.108C162.718 110.058 162.551 111.147 162.768 112.377C162.986 113.617 163.514 114.573 164.35 115.244C165.198 115.914 166.171 116.152 167.269 115.958C168.064 115.818 168.71 115.508 169.209 115.027C169.705 114.536 170 113.951 170.094 113.272L171.938 112.947ZM176.955 107.132C177.88 106.969 178.671 107.127 179.327 107.606C179.982 108.074 180.4 108.824 180.583 109.858L181.475 114.917L179.81 115.211L178.981 110.511C178.855 109.792 178.586 109.285 178.174 108.987C177.772 108.677 177.293 108.57 176.738 108.668C176.161 108.77 175.712 109.051 175.389 109.512C175.076 109.96 174.986 110.564 175.12 111.326L175.926 115.895L174.261 116.189L172.218 104.602L173.883 104.309L174.66 108.715L174.774 108.695C175.205 107.833 175.933 107.312 176.955 107.132ZM190.175 109.058C190.189 109.135 190.209 109.316 190.237 109.603L184.199 110.667C184.373 111.4 184.713 111.957 185.218 112.339C185.72 112.71 186.326 112.833 187.033 112.709C188.132 112.515 188.738 111.976 188.851 111.092L190.45 110.81C190.42 111.657 190.125 112.371 189.566 112.952C189.005 113.522 188.24 113.892 187.272 114.063C186.086 114.272 185.05 114.062 184.165 113.433C183.28 112.804 182.727 111.864 182.507 110.612C182.277 109.307 182.468 108.196 183.08 107.28C183.702 106.352 184.578 105.788 185.71 105.588C186.776 105.4 187.725 105.598 188.557 106.18C189.4 106.761 189.939 107.72 190.175 109.058ZM185.949 106.943C185.318 107.054 184.831 107.348 184.489 107.823C184.146 108.299 183.986 108.854 184.008 109.489L188.447 108.707C188.325 108.078 188.034 107.602 187.573 107.279C187.11 106.946 186.569 106.834 185.949 106.943ZM196.501 112.436C195.261 112.654 194.191 112.439 193.291 111.79C192.401 111.128 191.848 110.188 191.633 108.97C191.412 107.718 191.617 106.622 192.248 105.681C192.889 104.738 193.803 104.161 194.989 103.952C195.957 103.782 196.842 103.9 197.643 104.309C198.453 104.704 199.007 105.364 199.304 106.288L197.64 106.581C197.463 106.152 197.159 105.825 196.726 105.598C196.293 105.371 195.8 105.307 195.245 105.405C194.527 105.531 193.982 105.908 193.61 106.534C193.247 107.148 193.137 107.863 193.281 108.679C193.421 109.473 193.76 110.092 194.299 110.536C194.846 110.966 195.495 111.116 196.245 110.983C197.333 110.791 197.962 110.187 198.13 109.17L199.795 108.877C199.809 109.783 199.513 110.558 198.909 111.203C198.316 111.847 197.513 112.257 196.501 112.436ZM207.637 101.89L204.87 105.76L209.076 110.05L207.232 110.375L203.94 107.069L203.104 108.243L203.593 111.017L201.928 111.311L199.885 99.7236L201.55 99.4301L202.729 106.121L202.844 106.101L205.63 102.244L207.637 101.89ZM209.555 100.307C209.262 100.359 208.988 100.3 208.734 100.132C208.489 99.951 208.341 99.719 208.291 99.4361C208.239 99.1423 208.3 98.8793 208.472 98.647C208.653 98.402 208.89 98.2535 209.184 98.2017C209.467 98.1518 209.73 98.212 209.973 98.3823C210.214 98.5417 210.361 98.7683 210.413 99.062C210.463 99.3449 210.403 99.6133 210.235 99.8674C210.065 100.111 209.838 100.257 209.555 100.307ZM210.375 109.821L208.936 101.661L210.601 101.368L212.039 109.528L210.375 109.821ZM214.12 109.161L212.681 101.001L214.183 100.736L214.518 101.687L214.633 101.666C215.064 100.805 215.791 100.284 216.814 100.104C217.739 99.9409 218.529 100.099 219.186 100.578C219.841 101.045 220.259 101.796 220.441 102.83L221.333 107.889L219.669 108.182L218.84 103.482C218.713 102.764 218.444 102.256 218.033 101.959C217.63 101.648 217.152 101.542 216.597 101.64C216.02 101.742 215.571 102.023 215.248 102.483C214.934 102.931 214.845 103.536 214.979 104.298L215.785 108.867L214.12 109.161ZM229.197 98.2066C228.965 98.6065 228.57 99.0071 228.012 99.4083C228.439 99.793 228.705 100.285 228.811 100.883C228.96 101.732 228.775 102.46 228.254 103.068C227.733 103.676 227.01 104.061 226.085 104.224C225.541 104.32 225.042 104.324 224.589 104.235C224.303 104.454 224.184 104.705 224.234 104.988C224.316 105.456 224.739 105.623 225.5 105.488L227.116 105.203C228.041 105.04 228.79 105.121 229.363 105.447C229.936 105.772 230.287 106.299 230.416 107.028C230.565 107.876 230.351 108.599 229.771 109.194C229.192 109.79 228.348 110.186 227.238 110.381C226.063 110.589 225.108 110.488 224.374 110.079C223.651 109.668 223.181 109.066 222.963 108.275L224.07 106.918C223.345 106.754 222.92 106.313 222.793 105.595C222.678 104.943 222.94 104.364 223.58 103.858C222.905 103.461 222.494 102.849 222.348 102.022C222.204 101.206 222.375 100.486 222.859 99.8626C223.353 99.2259 224.078 98.8231 225.035 98.6543C225.754 98.5277 226.407 98.5752 226.996 98.7967C227.47 98.4326 227.854 97.9722 228.149 97.4155L229.197 98.2066ZM225.863 102.967C226.353 102.881 226.72 102.671 226.963 102.336C227.207 102.001 227.29 101.611 227.211 101.165C227.129 100.697 226.916 100.348 226.572 100.117C226.227 99.8746 225.809 99.7968 225.319 99.8831C224.819 99.9713 224.442 100.189 224.189 100.537C223.935 100.873 223.849 101.275 223.931 101.743C224.008 102.178 224.224 102.516 224.581 102.756C224.935 102.985 225.363 103.056 225.863 102.967ZM228.831 107.391C228.764 107.011 228.568 106.759 228.243 106.637C227.919 106.514 227.556 106.489 227.153 106.56L225.668 106.822L224.598 108.104C225.022 108.983 225.828 109.318 227.013 109.108C227.601 109.005 228.07 108.804 228.422 108.507C228.773 108.209 228.91 107.837 228.831 107.391ZM244.022 103.888L242.483 101.08L238.044 101.863L237.559 105.028L235.715 105.353L237.732 93.2185L239.837 92.8473L245.866 103.563L244.022 103.888ZM238.262 100.327L241.754 99.7112L239.195 95.0301L239.065 95.0532L238.262 100.327ZM250.943 102.836C249.702 103.055 248.632 102.84 247.733 102.191C246.842 101.529 246.289 100.589 246.074 99.3701C245.854 98.1189 246.059 97.0227 246.689 96.0814C247.33 95.1382 248.244 94.562 249.43 94.3529C250.398 94.1822 251.283 94.301 252.084 94.7094C252.894 95.105 253.448 95.7646 253.746 96.6881L252.081 96.9816C251.904 96.5528 251.6 96.2251 251.167 95.9985C250.735 95.7719 250.241 95.7075 249.686 95.8054C248.968 95.932 248.423 96.3085 248.051 96.935C247.688 97.5487 247.579 98.2635 247.722 99.0795C247.863 99.8737 248.202 100.493 248.74 100.936C249.287 101.367 249.936 101.516 250.687 101.384C251.774 101.192 252.403 100.588 252.571 99.5707L254.236 99.2772C254.25 100.183 253.955 100.959 253.35 101.604C252.757 102.247 251.954 102.658 250.943 102.836ZM260.138 101.215C258.898 101.433 257.828 101.218 256.928 100.569C256.038 99.9074 255.485 98.9672 255.27 97.7487C255.049 96.4975 255.254 95.4013 255.885 94.46C256.526 93.5167 257.44 92.9406 258.626 92.7315C259.594 92.5607 260.479 92.6796 261.28 93.088C262.09 93.4836 262.644 94.1431 262.941 95.0667L261.277 95.3602C261.1 94.9314 260.796 94.6037 260.363 94.3771C259.93 94.1505 259.437 94.0861 258.882 94.1839C258.164 94.3105 257.619 94.6871 257.247 95.3135C256.884 95.9272 256.774 96.642 256.918 97.458C257.058 98.2522 257.397 98.8711 257.935 99.3147C258.483 99.7455 259.132 99.8947 259.882 99.7623C260.97 99.5705 261.598 98.9661 261.767 97.9492L263.431 97.6557C263.445 98.5619 263.15 99.3375 262.546 99.9825C261.953 100.626 261.15 101.036 260.138 101.215ZM269.367 99.5876C268.17 99.7986 267.103 99.5716 266.167 98.9065C265.242 98.2395 264.672 97.2968 264.457 96.0783C264.238 94.838 264.451 93.7516 265.094 92.8193C265.737 91.887 266.663 91.3143 267.87 91.1014C269.078 90.8884 270.15 91.1145 271.086 91.7795C272.02 92.4337 272.596 93.3755 272.813 94.6049C273.029 95.8343 272.812 96.9216 272.159 97.8668C271.505 98.801 270.574 99.3746 269.367 99.5876ZM267.158 97.6549C267.72 98.1055 268.371 98.2656 269.111 98.1351C269.85 98.0047 270.412 97.6252 270.794 96.9969C271.177 96.3685 271.301 95.668 271.164 94.8956C271.026 94.1122 270.671 93.4962 270.098 93.0475C269.534 92.586 268.877 92.4214 268.126 92.5538C267.387 92.6843 266.831 93.0627 266.459 93.6892C266.085 94.3048 265.967 95.0043 266.105 95.7876C266.243 96.571 266.594 97.1934 267.158 97.6549ZM281.029 88.9494L282.468 97.1092L280.967 97.3739L280.631 96.4235L280.517 96.4437C280.085 97.305 279.358 97.8258 278.335 98.0062C277.411 98.1692 276.621 98.0168 275.966 97.5489C275.31 97.0701 274.89 96.3139 274.708 95.2803L273.816 90.2213L275.481 89.9278L276.309 94.6278C276.436 95.3459 276.7 95.8601 277.103 96.1706C277.514 96.4682 277.998 96.5681 278.552 96.4703C279.129 96.3686 279.574 96.0938 279.888 95.6458C280.21 95.1851 280.305 94.574 280.17 93.8124L279.365 89.2429L281.029 88.9494ZM284.594 96.7343L283.155 88.5745L284.657 88.3098L284.992 89.2602L285.107 89.24C285.538 88.3787 286.265 87.8579 287.288 87.6775C288.213 87.5145 289.003 87.6723 289.66 88.1511C290.314 88.619 290.733 89.3698 290.915 90.4034L291.807 95.4624L290.143 95.7559L289.314 91.0559C289.187 90.3378 288.918 89.83 288.507 89.5323C288.104 89.2219 287.626 89.1156 287.071 89.2134C286.494 89.3151 286.044 89.5963 285.722 90.057C285.408 90.505 285.318 91.1097 285.453 91.8713L286.259 96.4408L284.594 96.7343ZM296.938 94.726C295.448 94.9888 294.577 94.4076 294.325 92.9823L293.471 88.1354L291.708 88.4462L291.472 87.108L292.043 87.0073C292.522 86.9229 292.843 86.7709 293.006 86.5514C293.18 86.33 293.228 85.9963 293.15 85.5502L292.974 84.5547L294.492 84.2871L294.883 86.5066L296.956 86.1411L297.192 87.4793L295.119 87.8448L295.933 92.4632C296.054 93.1486 296.468 93.429 297.175 93.3043C297.447 93.2564 297.706 93.1658 297.952 93.0328L298.179 94.322C297.744 94.5223 297.33 94.6569 296.938 94.726Z" fill="#4A5C6B"/>
<path d="M160.03 161.039C160.338 162.788 160.002 164.29 159.021 165.544C158.041 166.799 156.64 167.719 154.82 168.304L155.338 171.242L151.701 171.883L151.19 168.98C149.061 169.043 147.303 168.548 145.916 167.495C144.528 166.441 143.624 164.93 143.205 162.96L147.786 162.153C148.407 164.447 149.942 165.378 152.39 164.947C153.345 164.778 154.103 164.44 154.663 163.933C155.241 163.398 155.461 162.735 155.321 161.942C155.186 161.173 154.779 160.571 154.102 160.138C153.424 159.704 152.429 159.375 151.115 159.15L148.396 158.656C144.747 158.001 142.675 156.275 142.182 153.477C141.882 151.775 142.195 150.278 143.121 148.985C144.046 147.692 145.394 146.745 147.163 146.145L146.645 143.207L150.282 142.566L150.8 145.503C152.695 145.482 154.282 145.959 155.56 146.936C156.834 147.889 157.646 149.224 157.997 150.941L153.696 151.7C153.129 149.852 151.762 149.12 149.594 149.502C148.685 149.662 147.966 150.018 147.438 150.567C146.929 151.09 146.737 151.701 146.86 152.4C146.979 153.076 147.334 153.591 147.925 153.943C148.516 154.296 149.432 154.579 150.671 154.793L153.203 155.248C155.215 155.614 156.782 156.252 157.903 157.16C159.021 158.044 159.73 159.338 160.03 161.039Z" fill="#121926"/>
<path d="M176.2 149.534C178.205 149.181 179.98 149.565 181.524 150.687C183.087 151.782 184.056 153.39 184.43 155.511C184.828 157.773 184.391 159.725 183.118 161.367C181.842 162.987 180.014 164.006 177.636 164.425C175.188 164.857 173.081 164.495 171.315 163.341C169.568 162.158 168.487 160.39 168.072 158.035C167.891 157.009 167.873 155.955 168.019 154.871C168.183 153.76 168.385 152.86 168.624 152.168C168.862 151.477 169.199 150.661 169.634 149.719L173.208 141.769L178.699 140.801L173.983 150.25C174.645 149.917 175.384 149.678 176.2 149.534ZM177.03 160.782C178.149 160.585 178.969 160.056 179.49 159.195C180.035 158.329 180.208 157.337 180.011 156.218C179.814 155.099 179.327 154.247 178.551 153.663C177.771 153.056 176.821 152.85 175.702 153.048C174.583 153.245 173.749 153.765 173.2 154.607C172.671 155.421 172.505 156.388 172.702 157.507C172.899 158.626 173.39 159.501 174.175 160.132C174.982 160.759 175.934 160.976 177.03 160.782ZM191.063 156.397C191.949 156.241 192.697 156.457 193.305 157.047C193.933 157.61 194.342 158.427 194.531 159.499C194.806 161.061 194.625 162.488 193.987 163.778C193.377 165.087 192.562 166.193 191.543 167.094L190.149 165.933C191.461 164.38 192.02 162.983 191.826 161.743C191.232 161.92 190.626 161.823 190.007 161.451C189.408 161.052 189.032 160.421 188.88 159.558C188.736 158.742 188.866 158.046 189.269 157.47C189.696 156.89 190.294 156.532 191.063 156.397ZM200.476 136.6C202.924 136.168 205.02 136.532 206.763 137.691C208.505 138.85 209.586 140.619 210.006 142.997C210.421 145.351 209.912 148.121 208.478 151.307L204.904 159.257L199.379 160.231L204.095 150.782C203.432 151.115 202.705 151.351 201.912 151.491C199.907 151.845 198.123 151.474 196.56 150.38C194.993 149.262 194.022 147.642 193.648 145.52C193.249 143.259 193.688 141.319 194.965 139.699C196.261 138.052 198.098 137.019 200.476 136.6ZM199.568 147.397C200.344 147.982 201.291 148.175 202.411 147.978C203.53 147.78 204.354 147.274 204.883 146.46C205.432 145.618 205.608 144.638 205.41 143.518C205.213 142.399 204.71 141.526 203.903 140.9C203.119 140.269 202.178 140.05 201.083 140.243C199.964 140.44 199.132 140.972 198.587 141.837C198.066 142.698 197.904 143.688 198.101 144.807C198.299 145.926 198.788 146.79 199.568 147.397ZM222.267 141.159C224.412 140.781 226.272 141.174 227.848 142.339C229.419 143.48 230.392 145.111 230.766 147.233C231.173 149.541 230.705 151.522 229.363 153.177C228.02 154.832 226.124 155.876 223.676 156.307C221.345 156.718 219.346 156.422 217.678 155.418C216.011 154.414 214.928 152.838 214.429 150.69L218.87 149.907C219.148 150.94 219.667 151.702 220.427 152.193C221.187 152.684 222.079 152.839 223.105 152.658C224.247 152.457 225.095 151.947 225.648 151.128C226.224 150.305 226.409 149.311 226.204 148.145C225.994 146.956 225.485 146.048 224.678 145.422C223.889 144.767 222.935 144.539 221.816 144.736C220.184 145.024 219.12 145.873 218.624 147.282L214.337 147.101L213.374 134.686L227.047 132.275L227.707 136.017L217.985 137.731L218.334 143.187C219.231 142.139 220.542 141.463 222.267 141.159ZM246.099 139.841C247.218 140.053 248.249 140.58 249.191 141.424C250.129 142.244 250.725 143.377 250.98 144.822C251.321 146.757 250.862 148.449 249.603 149.897C248.344 151.345 246.432 152.295 243.868 152.747C241.303 153.199 239.159 152.964 237.433 152.043C235.732 151.117 234.71 149.686 234.369 147.751C234.114 146.306 234.297 145.024 234.917 143.905C235.537 142.786 236.327 141.949 237.287 141.395L237.25 141.186C235.026 140.568 233.726 139.199 233.352 137.077C233.028 135.235 233.466 133.632 234.667 132.266C235.892 130.896 237.612 130.016 239.827 129.625C242.018 129.239 243.898 129.472 245.467 130.326C247.032 131.155 247.979 132.503 248.307 134.368C248.681 136.49 247.933 138.244 246.062 139.632L246.099 139.841ZM240.359 132.849C239.45 133.009 238.74 133.411 238.228 134.054C237.74 134.693 237.578 135.479 237.742 136.411C237.902 137.32 238.335 138.001 239.04 138.454C239.741 138.883 240.534 139.02 241.42 138.864C242.306 138.708 242.981 138.312 243.446 137.677C243.934 137.038 244.096 136.252 243.932 135.32C243.768 134.387 243.347 133.704 242.669 133.271C242.015 132.833 241.245 132.693 240.359 132.849ZM243.276 149.39C244.302 149.209 245.099 148.756 245.668 148.03C246.233 147.282 246.424 146.383 246.239 145.334C246.049 144.261 245.571 143.456 244.803 142.919C244.035 142.381 243.103 142.209 242.008 142.402C240.889 142.599 240.06 143.082 239.523 143.85C238.985 144.618 238.806 145.514 238.987 146.54C239.176 147.613 239.676 148.402 240.487 148.908C241.297 149.414 242.227 149.575 243.276 149.39Z" fill="#121926"/>
<path d="M262.74 147.051C262.522 147.361 262.219 147.551 261.831 147.619C261.442 147.688 261.085 147.615 260.758 147.4C260.445 147.167 260.255 146.864 260.189 146.491C260.121 146.102 260.195 145.752 260.413 145.442C260.644 145.112 260.953 144.914 261.342 144.845C261.73 144.777 262.081 144.859 262.395 145.092C262.706 145.31 262.895 145.613 262.964 146.001C263.03 146.374 262.955 146.724 262.74 147.051ZM272.495 137.47C273.275 137.621 273.98 137.985 274.611 138.563C275.257 139.138 275.665 139.908 275.835 140.871C276.057 142.13 275.772 143.238 274.979 144.195C274.186 145.152 273.02 145.767 271.482 146.038C269.927 146.312 268.606 146.136 267.518 145.511C266.443 144.867 265.795 143.916 265.573 142.657C265.403 141.693 265.515 140.832 265.911 140.073C266.321 139.312 266.868 138.734 267.552 138.341L267.532 138.225C266.011 137.868 265.116 136.928 264.847 135.405C264.636 134.208 264.903 133.176 265.647 132.307C266.389 131.423 267.428 130.863 268.764 130.628C270.085 130.395 271.236 130.56 272.217 131.125C273.214 131.686 273.817 132.565 274.029 133.762C274.171 134.57 274.088 135.282 273.78 135.897C273.469 136.497 273.034 136.982 272.474 137.353L272.495 137.47ZM269.036 132.166C268.29 132.298 267.715 132.631 267.313 133.167C266.908 133.687 266.773 134.328 266.907 135.09C267.038 135.836 267.391 136.383 267.965 136.73C268.539 137.078 269.184 137.188 269.899 137.062C270.598 136.939 271.151 136.617 271.556 136.097C271.976 135.574 272.121 134.94 271.989 134.194C271.855 133.432 271.509 132.876 270.95 132.526C270.404 132.157 269.766 132.038 269.036 132.166ZM271.198 144.429C272.037 144.281 272.693 143.909 273.165 143.313C273.649 142.699 273.819 141.98 273.674 141.156C273.526 140.317 273.132 139.673 272.492 139.225C271.867 138.774 271.089 138.631 270.156 138.796C269.224 138.96 268.541 139.361 268.109 139.998C267.676 140.635 267.53 141.35 267.67 142.143C267.82 142.998 268.229 143.631 268.894 144.042C269.575 144.451 270.343 144.58 271.198 144.429ZM276.156 129.589L286.111 127.833L286.321 129.022C284.947 131.316 283.985 133.585 283.435 135.829C282.885 138.074 282.774 140.714 283.1 143.749L280.979 144.123C280.663 141.15 280.725 138.591 281.164 136.446C281.618 134.299 282.382 132.225 283.456 130.225L283.44 130.131L276.469 131.36L276.156 129.589Z" fill="#121926"/>
<g clip-path="url(#clip0_1916_50986)">
<path d="M320.888 128.318L321.326 127.92L321.326 127.92L320.888 128.318ZM311.43 124.428C311.12 124.531 310.952 124.866 311.055 125.176C311.159 125.486 311.494 125.654 311.804 125.551L311.43 124.428ZM321.083 129.429L321.63 129.653L321.083 129.429ZM319.766 130.769C319.603 131.053 319.7 131.414 319.984 131.578C320.267 131.741 320.629 131.643 320.792 131.36L319.766 130.769ZM321.143 128.666L320.598 128.896L320.598 128.896L321.143 128.666ZM321.205 129.013L321.796 129.043L321.796 129.043L321.205 129.013ZM306.193 132.052L306.631 131.654L306.193 132.052ZM305.998 130.942L305.451 130.718L305.451 130.718L305.998 130.942ZM309.128 127.226C309.363 126.998 309.369 126.623 309.141 126.389C308.913 126.154 308.539 126.149 308.304 126.376L309.128 127.226ZM318.786 133.985C319.02 133.757 319.025 133.383 318.798 133.148C318.57 132.914 318.195 132.909 317.961 133.137L318.786 133.985ZM305.938 131.705L306.483 131.474L306.483 131.474L305.938 131.705ZM305.877 131.358L305.285 131.327L305.285 131.327L305.877 131.358ZM305.653 123.94C305.385 123.752 305.016 123.817 304.828 124.085C304.641 124.353 304.706 124.722 304.974 124.909L305.653 123.94ZM321.429 136.431C321.696 136.618 322.065 136.553 322.253 136.286C322.44 136.018 322.375 135.649 322.107 135.461L321.429 136.431ZM312.086 129.167C312.274 128.899 312.209 128.53 311.941 128.343C311.673 128.155 311.304 128.22 311.117 128.488L312.086 129.167ZM315.965 131.883C316.152 131.615 316.087 131.246 315.819 131.058C315.552 130.871 315.182 130.936 314.995 131.204L315.965 131.883ZM312.684 125.328C314.488 125.01 316.143 125.538 317.508 126.321C318.876 127.106 319.913 128.126 320.45 128.716L321.326 127.92C320.744 127.28 319.612 126.164 318.097 125.295C316.581 124.425 314.642 123.781 312.479 124.163L312.684 125.328ZM311.804 125.551C312.084 125.458 312.378 125.382 312.684 125.328L312.479 124.163C312.114 124.227 311.764 124.317 311.43 124.428L311.804 125.551ZM320.535 129.204C320.375 129.595 320.122 130.152 319.766 130.769L320.792 131.36C321.179 130.688 321.454 130.082 321.63 129.653L320.535 129.204ZM320.45 128.716C320.523 128.797 320.555 128.833 320.577 128.861C320.591 128.879 320.594 128.886 320.598 128.896L321.689 128.435C321.59 128.203 321.449 128.056 321.326 127.92L320.45 128.716ZM321.63 129.653C321.7 129.483 321.783 129.295 321.796 129.043L320.614 128.983C320.613 128.994 320.612 129.001 320.605 129.023C320.594 129.058 320.577 129.103 320.535 129.204L321.63 129.653ZM320.598 128.896C320.596 128.89 320.597 128.891 320.6 128.902C320.602 128.912 320.605 128.925 320.608 128.939C320.61 128.954 320.612 128.967 320.613 128.977C320.614 128.988 320.613 128.99 320.614 128.983L321.796 129.043C321.805 128.853 321.763 128.611 321.689 128.435L320.598 128.896ZM314.397 135.042C312.594 135.36 310.939 134.833 309.573 134.049C308.206 133.264 307.168 132.245 306.631 131.654L305.755 132.45C306.337 133.09 307.469 134.207 308.984 135.076C310.5 135.946 312.439 136.589 314.603 136.208L314.397 135.042ZM306.546 131.167C306.91 130.279 307.734 128.58 309.128 127.226L308.304 126.376C306.74 127.894 305.841 129.765 305.451 130.718L306.546 131.167ZM317.961 133.137C317.027 134.046 315.852 134.786 314.397 135.042L314.603 136.208C316.347 135.9 317.727 135.016 318.786 133.985L317.961 133.137ZM306.631 131.654C306.558 131.573 306.526 131.538 306.504 131.509C306.49 131.491 306.487 131.485 306.483 131.474L305.393 131.935C305.491 132.168 305.632 132.315 305.755 132.45L306.631 131.654ZM305.451 130.718C305.381 130.888 305.298 131.075 305.285 131.327L306.468 131.388C306.468 131.377 306.469 131.369 306.476 131.347C306.487 131.313 306.505 131.268 306.546 131.167L305.451 130.718ZM306.483 131.474C306.486 131.481 306.484 131.479 306.482 131.468C306.479 131.459 306.476 131.446 306.473 131.431C306.471 131.417 306.469 131.404 306.468 131.394C306.467 131.383 306.468 131.381 306.468 131.388L305.285 131.327C305.276 131.518 305.318 131.76 305.393 131.935L306.483 131.474ZM304.974 124.909L321.429 136.431L322.107 135.461L305.653 123.94L304.974 124.909ZM313.849 131.934C312.883 132.104 311.962 131.459 311.792 130.494L310.626 130.699C310.91 132.309 312.445 133.383 314.054 133.099L313.849 131.934ZM311.792 130.494C311.707 130.011 311.825 129.54 312.086 129.167L311.117 128.488C310.683 129.108 310.485 129.895 310.626 130.699L311.792 130.494ZM314.995 131.204C314.734 131.577 314.332 131.849 313.849 131.934L314.054 133.099C314.859 132.958 315.531 132.502 315.965 131.883L314.995 131.204Z" fill="#4A5C6B"/>
</g>
<g filter="url(#filter2_d_1916_50986)">
<rect x="72.6338" y="219.549" width="165.122" height="47.6734" rx="23.8367" transform="rotate(-10 72.6338 219.549)" fill="#EAF6EE"/>
<path d="M124.488 240.703L122.95 237.895L118.511 238.678L118.026 241.842L116.182 242.168L118.198 230.033L120.304 229.662L126.332 240.378L124.488 240.703ZM118.728 237.142L122.221 236.526L119.662 231.845L119.531 231.868L118.728 237.142ZM131.524 227.515L133.189 227.222L135.232 238.809L133.877 239.047L133.538 237.98L133.423 238C132.951 238.947 132.165 239.518 131.066 239.711C129.957 239.907 128.979 239.675 128.134 239.017C127.289 238.358 126.754 237.392 126.529 236.119C126.303 234.836 126.482 233.75 127.065 232.861C127.647 231.962 128.482 231.417 129.57 231.225C130.669 231.031 131.577 231.253 132.295 231.889L131.524 227.515ZM131.055 238.216C131.751 238.093 132.261 237.739 132.585 237.155C132.908 236.571 132.995 235.854 132.845 235.006C132.699 234.179 132.369 233.547 131.855 233.111C131.351 232.672 130.756 232.514 130.071 232.634C129.364 232.759 128.838 233.115 128.493 233.704C128.148 234.292 128.048 234.999 128.194 235.826C128.342 236.664 128.679 237.305 129.206 237.751C129.732 238.185 130.348 238.34 131.055 238.216ZM141.262 225.798L142.926 225.505L144.969 237.092L143.615 237.33L143.275 236.263L143.161 236.283C142.689 237.23 141.903 237.801 140.804 237.994C139.694 238.19 138.717 237.958 137.871 237.3C137.026 236.641 136.491 235.675 136.267 234.402C136.04 233.119 136.219 232.033 136.803 231.144C137.385 230.245 138.22 229.7 139.308 229.508C140.407 229.314 141.315 229.536 142.033 230.172L141.262 225.798ZM140.793 236.499C141.489 236.376 141.999 236.022 142.322 235.438C142.645 234.854 142.732 234.137 142.583 233.289C142.437 232.462 142.107 231.83 141.592 231.394C141.089 230.955 140.494 230.797 139.809 230.917C139.101 231.042 138.575 231.398 138.23 231.987C137.885 232.575 137.786 233.282 137.931 234.109C138.079 234.947 138.417 235.588 138.944 236.034C139.469 236.468 140.086 236.623 140.793 236.499ZM161.528 222.393L163.542 233.817L161.861 234.113L160.388 225.757L160.274 225.778L158.335 233.389L156.523 233.708L152.081 227.222L151.951 227.245L153.424 235.601L151.743 235.897L149.729 224.473L151.883 224.094L157.052 231.747L157.167 231.727L159.39 222.77L161.528 222.393ZM169.739 232.892C168.542 233.103 167.475 232.876 166.539 232.211C165.614 231.544 165.044 230.602 164.829 229.383C164.61 228.143 164.823 227.056 165.466 226.124C166.109 225.192 167.035 224.619 168.242 224.406C169.45 224.193 170.522 224.419 171.458 225.084C172.392 225.738 172.968 226.68 173.185 227.91C173.401 229.139 173.184 230.226 172.531 231.172C171.877 232.106 170.946 232.679 169.739 232.892ZM167.53 230.96C168.092 231.41 168.743 231.57 169.483 231.44C170.222 231.309 170.784 230.93 171.167 230.302C171.549 229.673 171.673 228.973 171.536 228.2C171.398 227.417 171.043 226.801 170.47 226.352C169.906 225.891 169.249 225.726 168.498 225.859C167.759 225.989 167.203 226.367 166.831 226.994C166.457 227.61 166.339 228.309 166.477 229.092C166.615 229.876 166.966 230.498 167.53 230.96ZM175.675 231.677L174.236 223.518L175.737 223.253L176.073 224.203L176.187 224.183C176.619 223.322 177.346 222.801 178.369 222.621C179.293 222.458 180.084 222.615 180.741 223.094C181.395 223.562 181.814 224.313 181.996 225.346L182.888 230.406L181.223 230.699L180.395 225.999C180.268 225.281 179.999 224.773 179.587 224.475C179.185 224.165 178.706 224.059 178.151 224.157C177.575 224.258 177.125 224.539 176.803 225C176.489 225.448 176.399 226.053 176.533 226.814L177.339 231.384L175.675 231.677ZM191.588 224.547C191.602 224.623 191.623 224.804 191.651 225.091L185.613 226.156C185.786 226.888 186.126 227.445 186.631 227.827C187.134 228.198 187.739 228.322 188.446 228.197C189.545 228.003 190.151 227.465 190.264 226.581L191.864 226.299C191.834 227.145 191.539 227.859 190.979 228.44C190.418 229.01 189.653 229.381 188.685 229.552C187.499 229.761 186.464 229.551 185.579 228.921C184.694 228.292 184.141 227.352 183.92 226.101C183.69 224.795 183.881 223.685 184.494 222.769C185.115 221.84 185.992 221.276 187.123 221.077C188.189 220.889 189.138 221.086 189.97 221.669C190.813 222.249 191.352 223.209 191.588 224.547ZM187.362 222.431C186.731 222.543 186.244 222.836 185.902 223.312C185.559 223.787 185.399 224.342 185.422 224.978L189.861 224.195C189.738 223.566 189.447 223.09 188.986 222.768C188.524 222.434 187.982 222.322 187.362 222.431ZM195.526 231.711C195.189 231.77 194.77 231.782 194.271 231.747L194.049 230.49C194.411 230.505 194.706 230.492 194.934 230.452C195.794 230.301 196.317 229.804 196.506 228.963L196.701 227.97L196.162 228.065L191.574 220.46L193.304 220.155L196.856 226.176L196.986 226.153L198.118 219.307L199.848 219.002L198.099 228.935C197.853 230.526 196.995 231.452 195.526 231.711Z" fill="#1A6533"/>
<rect x="73.213" y="219.955" width="164.122" height="46.6734" rx="23.3367" transform="rotate(-10 73.213 219.955)" stroke="#EAF6EE"/>
</g>
<g filter="url(#filter3_d_1916_50986)">
<g clip-path="url(#clip1_1916_50986)">
<rect x="253.898" y="187.588" width="165.122" height="47.6734" rx="23.8367" transform="rotate(-10 253.898 187.588)" fill="#EAF6EE"/>
<path d="M288.669 199.974L288.943 201.525L285.662 202.103L287.403 211.977L285.674 212.282L283.933 202.408L280.652 202.987L280.379 201.436L288.669 199.974ZM291.106 211.324L289.667 203.164L291.168 202.899L291.533 204.013L291.647 203.993C291.821 203.513 292.062 203.134 292.372 202.855C292.682 202.576 293.152 202.381 293.783 202.27L294.306 202.178L294.599 203.842C294.332 203.856 294.063 203.886 293.791 203.934C293.062 204.063 292.556 204.405 292.272 204.959C291.988 205.514 291.913 206.167 292.045 206.918L292.77 211.03L291.106 211.324ZM303.784 207.792L303.996 207.755L304.218 209.012L303.467 209.144C302.64 209.29 302.07 209.043 301.755 208.403C301.273 209.295 300.45 209.844 299.286 210.05C298.459 210.195 297.755 210.118 297.175 209.816C296.592 209.504 296.233 208.961 296.097 208.189C295.966 207.449 296.114 206.823 296.54 206.31C296.965 205.798 297.585 205.43 298.398 205.208L300.852 204.523L300.78 204.115C300.688 203.593 300.476 203.216 300.143 202.983C299.821 202.748 299.404 202.675 298.893 202.765C297.946 202.932 297.476 203.509 297.482 204.495L295.833 204.786C295.764 203.945 295.978 203.218 296.475 202.603C296.97 201.977 297.697 201.58 298.654 201.411C299.622 201.24 300.452 201.363 301.142 201.78C301.844 202.195 302.282 202.897 302.456 203.887L303.046 207.233C303.125 207.679 303.371 207.865 303.784 207.792ZM301.169 206.319L301.062 205.715L299.155 206.253C298.662 206.385 298.288 206.585 298.032 206.855C297.777 207.124 297.683 207.449 297.75 207.83C297.88 208.57 298.397 208.86 299.3 208.701C299.888 208.597 300.376 208.343 300.764 207.938C301.153 207.533 301.288 206.993 301.169 206.319ZM305.64 208.761L304.202 200.601L305.703 200.336L306.039 201.287L306.153 201.267C306.584 200.405 307.312 199.884 308.334 199.704C309.259 199.541 310.05 199.699 310.706 200.178C311.361 200.646 311.779 201.396 311.962 202.43L312.854 207.489L311.189 207.782L310.36 203.082C310.234 202.364 309.965 201.857 309.553 201.559C309.151 201.248 308.672 201.142 308.117 201.24C307.54 201.342 307.091 201.623 306.768 202.084C306.455 202.532 306.365 203.136 306.499 203.898L307.305 208.467L305.64 208.761ZM317.933 206.762C316.878 206.948 316.025 206.851 315.375 206.472C314.723 206.082 314.302 205.478 314.113 204.659L315.712 204.377C315.966 205.308 316.626 205.68 317.693 205.492C318.106 205.419 318.429 205.278 318.661 205.068C318.902 204.846 318.992 204.561 318.931 204.213C318.866 203.843 318.674 203.585 318.357 203.439C318.051 203.291 317.629 203.192 317.093 203.14L316.428 203.09C316.097 203.058 315.815 203.018 315.582 202.969C315.349 202.921 315.093 202.837 314.814 202.718C314.533 202.588 314.303 202.398 314.125 202.149C313.944 201.89 313.822 201.575 313.756 201.205C313.628 200.476 313.804 199.85 314.284 199.328C314.762 198.795 315.403 198.458 316.208 198.316C317.177 198.145 317.958 198.248 318.552 198.626C319.154 198.991 319.536 199.501 319.697 200.157L318.097 200.439C317.994 200.11 317.795 199.87 317.499 199.72C317.213 199.558 316.863 199.513 316.449 199.586C316.079 199.651 315.786 199.798 315.568 200.027C315.359 200.243 315.284 200.515 315.341 200.841C315.399 201.168 315.561 201.386 315.827 201.496C316.093 201.606 316.489 201.688 317.014 201.741L317.663 201.795C318.438 201.86 319.077 202.05 319.581 202.365C320.083 202.669 320.397 203.175 320.522 203.882C320.658 204.655 320.479 205.292 319.984 205.794C319.487 206.286 318.804 206.608 317.933 206.762ZM323.601 196.103L323.785 197.148L325.76 196.8L325.996 198.138L324.021 198.486L325.224 205.308L323.559 205.601L322.357 198.78L320.659 199.079L320.423 197.741L322.121 197.441L321.914 196.266C321.785 195.537 321.899 194.945 322.256 194.49C322.623 194.021 323.176 193.722 323.915 193.591C324.394 193.507 324.866 193.513 325.332 193.611L325.254 194.886C325.011 194.84 324.742 194.842 324.448 194.894C323.763 195.015 323.48 195.418 323.601 196.103ZM334.957 199.267C334.971 199.343 334.991 199.525 335.02 199.811L328.981 200.876C329.155 201.608 329.495 202.165 330 202.547C330.503 202.919 331.108 203.042 331.815 202.917C332.914 202.723 333.52 202.185 333.633 201.301L335.233 201.019C335.202 201.866 334.908 202.579 334.348 203.16C333.787 203.731 333.022 204.101 332.054 204.272C330.868 204.481 329.832 204.271 328.947 203.642C328.062 203.012 327.51 202.072 327.289 200.821C327.059 199.515 327.25 198.405 327.863 197.489C328.484 196.561 329.361 195.997 330.492 195.797C331.558 195.609 332.507 195.806 333.339 196.389C334.182 196.969 334.721 197.929 334.957 199.267ZM330.731 197.152C330.1 197.263 329.613 197.556 329.271 198.032C328.928 198.507 328.768 199.063 328.79 199.698L333.229 198.915C333.107 198.286 332.816 197.81 332.355 197.488C331.892 197.154 331.351 197.042 330.731 197.152ZM337.515 203.141L336.076 194.981L337.577 194.716L337.942 195.83L338.056 195.809C338.23 195.33 338.471 194.951 338.781 194.672C339.091 194.393 339.561 194.198 340.192 194.087L340.714 193.995L341.008 195.659C340.741 195.673 340.472 195.703 340.2 195.751C339.471 195.88 338.964 196.221 338.681 196.776C338.397 197.331 338.322 197.984 338.454 198.735L339.179 202.847L337.515 203.141ZM357.983 187.752L359.998 199.176L358.317 199.473L356.843 191.117L356.729 191.137L354.79 198.748L352.978 199.068L348.537 192.582L348.406 192.605L349.879 200.96L348.199 201.257L346.184 189.833L348.338 189.453L353.508 197.107L353.622 197.086L355.845 188.129L357.983 187.752ZM366.194 198.252C364.997 198.463 363.931 198.236 362.995 197.571C362.069 196.904 361.499 195.961 361.284 194.743C361.066 193.502 361.278 192.416 361.921 191.484C362.565 190.551 363.49 189.979 364.698 189.766C365.905 189.553 366.977 189.779 367.913 190.444C368.848 191.098 369.423 192.04 369.64 193.269C369.857 194.499 369.639 195.586 368.987 196.531C368.333 197.465 367.402 198.039 366.194 198.252ZM363.985 196.319C364.547 196.77 365.198 196.93 365.938 196.799C366.678 196.669 367.239 196.29 367.622 195.661C368.005 195.033 368.128 194.332 367.992 193.56C367.854 192.777 367.498 192.161 366.925 191.712C366.362 191.25 365.704 191.086 364.954 191.218C364.214 191.349 363.658 191.727 363.286 192.354C362.912 192.969 362.795 193.669 362.933 194.452C363.071 195.235 363.422 195.858 363.985 196.319ZM372.13 197.037L370.691 188.877L372.193 188.612L372.528 189.563L372.643 189.543C373.074 188.681 373.801 188.16 374.824 187.98C375.749 187.817 376.539 187.975 377.196 188.454C377.85 188.922 378.269 189.672 378.451 190.706L379.343 195.765L377.679 196.059L376.85 191.359C376.723 190.64 376.454 190.133 376.043 189.835C375.64 189.525 375.162 189.418 374.607 189.516C374.03 189.618 373.58 189.899 373.258 190.36C372.944 190.808 372.855 191.412 372.989 192.174L373.795 196.743L372.13 197.037ZM388.044 189.906C388.057 189.983 388.078 190.164 388.106 190.451L382.068 191.515C382.242 192.248 382.581 192.805 383.086 193.187C383.589 193.558 384.194 193.681 384.901 193.557C386 193.363 386.606 192.824 386.72 191.94L388.319 191.658C388.289 192.505 387.994 193.219 387.435 193.8C386.873 194.37 386.108 194.74 385.14 194.911C383.954 195.12 382.919 194.91 382.034 194.281C381.149 193.652 380.596 192.712 380.375 191.46C380.145 190.155 380.336 189.044 380.949 188.129C381.571 187.2 382.447 186.636 383.579 186.436C384.645 186.248 385.594 186.446 386.426 187.028C387.268 187.609 387.808 188.568 388.044 189.906ZM383.817 187.791C383.186 187.902 382.7 188.196 382.357 188.671C382.015 189.147 381.855 189.702 381.877 190.337L386.316 189.555C386.194 188.926 385.902 188.45 385.442 188.127C384.979 187.794 384.438 187.682 383.817 187.791ZM391.982 197.07C391.644 197.13 391.226 197.142 390.726 197.107L390.504 195.85C390.866 195.865 391.161 195.852 391.389 195.812C392.249 195.66 392.773 195.164 392.961 194.323L393.156 193.329L392.618 193.424L388.029 185.82L389.759 185.515L393.311 191.535L393.441 191.512L394.573 184.666L396.303 184.361L394.555 194.294C394.308 195.886 393.45 196.811 391.982 197.07Z" fill="#1A6533"/>
</g>
<rect x="254.477" y="187.993" width="164.122" height="46.6734" rx="23.3367" transform="rotate(-10 254.477 187.993)" stroke="#EAF6EE"/>
</g>
</g>
<rect x="63.4874" y="327.864" width="404.815" height="60.6937" rx="8.87751" transform="rotate(-10 63.4874 327.864)" fill="white"/>
<path d="M96.5655 358.939L95.0271 356.131L90.5881 356.914L90.1029 360.079L88.2588 360.404L90.2754 348.27L92.3807 347.898L98.4096 358.614L96.5655 358.939ZM90.8053 355.378L94.2977 354.762L91.7391 350.081L91.6085 350.104L90.8053 355.378ZM103.486 357.887C102.246 358.106 101.176 357.891 100.276 357.242C99.3856 356.58 98.8328 355.64 98.6179 354.421C98.3973 353.17 98.6023 352.074 99.2328 351.132C99.8742 350.189 100.788 349.613 101.974 349.404C102.942 349.233 103.827 349.352 104.628 349.76C105.438 350.156 105.992 350.816 106.289 351.739L104.625 352.033C104.448 351.604 104.144 351.276 103.711 351.05C103.278 350.823 102.785 350.759 102.23 350.856C101.512 350.983 100.967 351.36 100.595 351.986C100.232 352.6 100.122 353.315 100.266 354.131C100.406 354.925 100.745 355.544 101.284 355.987C101.831 356.418 102.48 356.567 103.23 356.435C104.318 356.243 104.946 355.639 105.115 354.622L106.779 354.328C106.793 355.234 106.498 356.01 105.894 356.655C105.301 357.298 104.498 357.709 103.486 357.887ZM112.682 356.266C111.442 356.485 110.372 356.269 109.472 355.62C108.581 354.958 108.029 354.018 107.814 352.8C107.593 351.549 107.798 350.452 108.428 349.511C109.07 348.568 109.983 347.992 111.169 347.783C112.138 347.612 113.022 347.731 113.824 348.139C114.634 348.535 115.188 349.194 115.485 350.118L113.82 350.411C113.644 349.982 113.339 349.655 112.907 349.428C112.474 349.202 111.98 349.137 111.425 349.235C110.707 349.362 110.162 349.738 109.791 350.365C109.428 350.978 109.318 351.693 109.462 352.509C109.602 353.303 109.941 353.922 110.479 354.366C111.026 354.797 111.675 354.946 112.426 354.813C113.514 354.622 114.142 354.017 114.311 353L115.975 352.707C115.989 353.613 115.694 354.389 115.09 355.034C114.496 355.677 113.694 356.087 112.682 356.266ZM121.91 354.639C120.714 354.85 119.647 354.623 118.711 353.958C117.786 353.291 117.216 352.348 117.001 351.129C116.782 349.889 116.994 348.803 117.638 347.87C118.281 346.938 119.206 346.365 120.414 346.152C121.622 345.94 122.694 346.166 123.63 346.831C124.564 347.485 125.14 348.427 125.356 349.656C125.573 350.885 125.355 351.973 124.703 352.918C124.049 353.852 123.118 354.426 121.91 354.639ZM119.702 352.706C120.264 353.157 120.914 353.317 121.654 353.186C122.394 353.056 122.955 352.676 123.338 352.048C123.721 351.42 123.844 350.719 123.708 349.947C123.57 349.163 123.215 348.547 122.642 348.099C122.078 347.637 121.421 347.473 120.67 347.605C119.93 347.735 119.374 348.114 119.003 348.74C118.629 349.356 118.511 350.055 118.649 350.839C118.787 351.622 119.138 352.244 119.702 352.706ZM133.573 344L135.012 352.16L133.51 352.425L133.175 351.475L133.06 351.495C132.629 352.356 131.902 352.877 130.879 353.057C129.954 353.22 129.165 353.068 128.51 352.6C127.853 352.121 127.434 351.365 127.252 350.331L126.36 345.272L128.024 344.979L128.853 349.679C128.98 350.397 129.244 350.911 129.647 351.222C130.058 351.519 130.541 351.619 131.096 351.521C131.673 351.42 132.118 351.145 132.432 350.697C132.754 350.236 132.848 349.625 132.714 348.863L131.908 344.294L133.573 344ZM137.138 351.785L135.699 343.626L137.2 343.361L137.536 344.311L137.65 344.291C138.082 343.43 138.809 342.909 139.832 342.729C140.756 342.566 141.547 342.723 142.204 343.202C142.858 343.67 143.277 344.421 143.459 345.454L144.351 350.514L142.686 350.807L141.858 346.107C141.731 345.389 141.462 344.881 141.05 344.583C140.648 344.273 140.169 344.167 139.614 344.265C139.038 344.366 138.588 344.647 138.266 345.108C137.952 345.556 137.862 346.161 137.997 346.922L138.802 351.492L137.138 351.785ZM149.482 349.777C147.991 350.04 147.12 349.459 146.869 348.033L146.014 343.186L144.252 343.497L144.016 342.159L144.587 342.058C145.066 341.974 145.387 341.822 145.55 341.603C145.724 341.381 145.772 341.047 145.693 340.601L145.518 339.606L147.035 339.338L147.427 341.558L149.499 341.192L149.735 342.53L147.663 342.896L148.477 347.514C148.598 348.2 149.012 348.48 149.719 348.355C149.991 348.307 150.25 348.217 150.496 348.084L150.723 349.373C150.287 349.573 149.874 349.708 149.482 349.777ZM160.72 335.68L162.384 335.387L164.428 346.973L163.073 347.212L162.733 346.145L162.619 346.165C162.147 347.112 161.361 347.682 160.262 347.876C159.152 348.072 158.175 347.84 157.33 347.182C156.484 346.523 155.949 345.557 155.725 344.284C155.499 343.001 155.677 341.915 156.261 341.026C156.843 340.127 157.678 339.582 158.766 339.39C159.865 339.196 160.773 339.417 161.491 340.054L160.72 335.68ZM160.251 346.381C160.947 346.258 161.457 345.904 161.78 345.32C162.104 344.736 162.19 344.019 162.041 343.171C161.895 342.344 161.565 341.712 161.05 341.276C160.547 340.837 159.952 340.678 159.267 340.799C158.56 340.924 158.033 341.28 157.688 341.868C157.343 342.457 157.244 343.164 157.39 343.991C157.537 344.829 157.875 345.47 158.402 345.916C158.927 346.35 159.544 346.505 160.251 346.381ZM173.148 341.111C173.162 341.187 173.182 341.369 173.211 341.656L167.172 342.72C167.346 343.452 167.686 344.01 168.191 344.392C168.693 344.763 169.299 344.886 170.006 344.761C171.105 344.568 171.711 344.029 171.824 343.145L173.423 342.863C173.393 343.71 173.098 344.424 172.539 345.005C171.978 345.575 171.213 345.945 170.245 346.116C169.059 346.325 168.023 346.115 167.138 345.486C166.253 344.857 165.7 343.916 165.48 342.665C165.25 341.36 165.441 340.249 166.053 339.333C166.675 338.405 167.551 337.841 168.683 337.641C169.749 337.453 170.698 337.651 171.53 338.233C172.373 338.814 172.912 339.773 173.148 341.111ZM168.922 338.996C168.291 339.107 167.804 339.4 167.462 339.876C167.119 340.351 166.959 340.907 166.981 341.542L171.42 340.76C171.298 340.131 171.007 339.655 170.546 339.332C170.083 338.999 169.542 338.887 168.922 338.996ZM178.726 344.62C177.236 344.883 176.365 344.302 176.114 342.877L175.259 338.03L173.497 338.341L173.261 337.002L173.832 336.902C174.31 336.817 174.631 336.665 174.795 336.446C174.969 336.224 175.016 335.891 174.938 335.445L174.762 334.449L176.28 334.182L176.671 336.401L178.744 336.036L178.98 337.374L176.907 337.739L177.722 342.358C177.843 343.043 178.257 343.323 178.964 343.199C179.236 343.151 179.495 343.06 179.74 342.927L179.968 344.216C179.532 344.417 179.118 344.551 178.726 344.62ZM188.511 341.431L188.724 341.394L188.945 342.65L188.195 342.783C187.368 342.928 186.797 342.681 186.482 342.041C186 342.934 185.177 343.483 184.013 343.688C183.186 343.834 182.482 343.756 181.902 343.455C181.32 343.142 180.96 342.6 180.824 341.827C180.694 341.088 180.841 340.461 181.267 339.949C181.693 339.436 182.312 339.069 183.126 338.847L185.579 338.162L185.507 337.754C185.415 337.232 185.203 336.854 184.87 336.621C184.548 336.386 184.132 336.314 183.62 336.404C182.674 336.571 182.203 337.148 182.209 338.134L180.561 338.424C180.491 337.584 180.705 336.857 181.202 336.242C181.698 335.616 182.424 335.218 183.381 335.05C184.35 334.879 185.179 335.002 185.87 335.419C186.571 335.833 187.009 336.536 187.183 337.526L187.773 340.871C187.852 341.317 188.098 341.504 188.511 341.431ZM185.896 339.957L185.789 339.353L183.882 339.892C183.389 340.023 183.015 340.224 182.76 340.493C182.504 340.763 182.41 341.088 182.477 341.469C182.608 342.209 183.124 342.499 184.027 342.34C184.615 342.236 185.103 341.982 185.491 341.577C185.88 341.172 186.015 340.632 185.896 339.957ZM189.58 332.88C189.286 332.931 189.012 332.873 188.758 332.705C188.513 332.524 188.366 332.292 188.316 332.009C188.264 331.715 188.324 331.452 188.496 331.22C188.678 330.975 188.915 330.826 189.209 330.774C189.492 330.725 189.755 330.785 189.998 330.955C190.239 331.114 190.386 331.341 190.437 331.635C190.487 331.918 190.428 332.186 190.26 332.44C190.089 332.683 189.863 332.83 189.58 332.88ZM190.399 342.394L188.961 334.234L190.625 333.941L192.064 342.1L190.399 342.394ZM194.145 341.734L192.102 330.147L193.766 329.853L195.809 341.44L194.145 341.734ZM200.923 340.707C199.868 340.893 199.015 340.796 198.365 340.417C197.713 340.027 197.292 339.423 197.103 338.604L198.702 338.322C198.956 339.253 199.616 339.624 200.683 339.436C201.096 339.364 201.419 339.223 201.651 339.013C201.893 338.791 201.983 338.506 201.921 338.158C201.856 337.788 201.665 337.53 201.347 337.384C201.041 337.236 200.619 337.137 200.083 337.085L199.418 337.034C199.087 337.003 198.805 336.963 198.572 336.914C198.339 336.866 198.083 336.782 197.804 336.663C197.523 336.533 197.293 336.343 197.115 336.094C196.935 335.835 196.812 335.52 196.746 335.15C196.618 334.421 196.794 333.795 197.274 333.273C197.752 332.74 198.393 332.403 199.199 332.261C200.167 332.09 200.948 332.193 201.542 332.571C202.145 332.936 202.526 333.446 202.687 334.102L201.087 334.384C200.984 334.055 200.785 333.815 200.49 333.665C200.203 333.503 199.853 333.458 199.439 333.531C199.069 333.596 198.776 333.743 198.558 333.972C198.349 334.188 198.274 334.46 198.331 334.786C198.389 335.113 198.551 335.331 198.817 335.441C199.083 335.551 199.479 335.633 200.004 335.686L200.653 335.74C201.428 335.805 202.067 335.995 202.571 336.31C203.074 336.614 203.387 337.12 203.512 337.827C203.648 338.599 203.469 339.237 202.974 339.739C202.477 340.231 201.794 340.553 200.923 340.707Z" fill="#121926"/>
<g clip-path="url(#clip2_1916_50986)">
<path d="M387.953 295.781L389.797 295.456L387.813 307.584L385.708 307.956L379.696 297.237L381.556 296.909L386.301 305.495L386.431 305.472L387.953 295.781ZM392.413 297.115C392.119 297.167 391.845 297.108 391.591 296.94C391.346 296.759 391.199 296.527 391.149 296.244C391.097 295.95 391.157 295.687 391.329 295.455C391.51 295.21 391.748 295.061 392.042 295.01C392.324 294.96 392.587 295.02 392.831 295.19C393.072 295.349 393.218 295.576 393.27 295.87C393.32 296.153 393.261 296.421 393.093 296.675C392.922 296.918 392.696 297.065 392.413 297.115ZM393.232 306.629L391.793 298.469L393.458 298.176L394.897 306.335L393.232 306.629ZM403.616 300.474C403.629 300.55 403.65 300.731 403.678 301.018L397.64 302.083C397.814 302.815 398.153 303.372 398.658 303.754C399.161 304.125 399.766 304.248 400.473 304.124C401.572 303.93 402.178 303.391 402.292 302.507L403.891 302.225C403.861 303.072 403.566 303.786 403.007 304.367C402.445 304.937 401.681 305.308 400.712 305.478C399.526 305.687 398.491 305.477 397.606 304.848C396.721 304.219 396.168 303.279 395.948 302.028C395.717 300.722 395.909 299.611 396.521 298.696C397.143 297.767 398.019 297.203 399.151 297.004C400.217 296.816 401.166 297.013 401.998 297.595C402.841 298.176 403.38 299.135 403.616 300.474ZM399.39 298.358C398.759 298.469 398.272 298.763 397.929 299.238C397.587 299.714 397.427 300.269 397.449 300.905L401.888 300.122C401.766 299.493 401.474 299.017 401.014 298.694C400.551 298.361 400.01 298.249 399.39 298.358ZM407.369 304.136L403.808 296.351L405.375 296.074L407.962 302.063L408.076 302.043L408.756 296.067L410.551 295.751L413.236 301.15L413.351 301.13L413.731 294.601L415.281 294.328L414.582 302.864L412.705 303.195L410.041 297.725L409.911 297.748L409.245 303.805L407.369 304.136Z" fill="#1A6533"/>
<path d="M436.09 299.647C435.897 299.681 435.7 299.657 435.521 299.578C435.343 299.5 435.191 299.37 435.087 299.205C434.982 299.041 434.928 298.849 434.932 298.654C434.937 298.459 434.999 298.27 435.11 298.11L439.07 292.454L433.415 288.493C433.2 288.343 433.055 288.114 433.009 287.857C432.964 287.599 433.023 287.334 433.173 287.12C433.323 286.906 433.552 286.76 433.809 286.714C434.067 286.669 434.332 286.728 434.546 286.878L441.01 291.404C441.116 291.478 441.206 291.573 441.276 291.682C441.345 291.791 441.393 291.913 441.415 292.04C441.438 292.168 441.435 292.299 441.407 292.425C441.379 292.552 441.326 292.671 441.252 292.777L436.726 299.241C436.652 299.347 436.558 299.438 436.448 299.508C436.339 299.577 436.217 299.625 436.09 299.647V299.647Z" fill="#2CA955"/>
</g>
<rect x="63.4874" y="327.864" width="404.815" height="60.6937" rx="8.87751" transform="rotate(-10 63.4874 327.864)" stroke="#F2F4F7" stroke-width="1.18367"/>
<rect x="75.8765" y="398.127" width="404.815" height="60.6937" rx="8.87751" transform="rotate(-10 75.8765 398.127)" fill="white"/>
<path d="M107.136 417.744L107.41 419.294L104.129 419.873L105.87 429.746L104.14 430.051L102.399 420.178L99.1192 420.756L98.8458 419.206L107.136 417.744ZM109.572 429.093L108.134 420.933L109.635 420.669L110 421.782L110.114 421.762C110.287 421.283 110.529 420.904 110.839 420.625C111.149 420.346 111.619 420.151 112.25 420.039L112.772 419.947L113.066 421.612C112.799 421.625 112.53 421.656 112.258 421.704C111.529 421.832 111.022 422.174 110.739 422.729C110.455 423.284 110.38 423.936 110.512 424.687L111.237 428.8L109.572 429.093ZM122.251 425.562L122.463 425.525L122.685 426.781L121.934 426.914C121.107 427.059 120.536 426.812 120.222 426.172C119.74 427.065 118.917 427.614 117.752 427.819C116.926 427.965 116.222 427.887 115.641 427.586C115.059 427.273 114.7 426.731 114.564 425.958C114.433 425.219 114.581 424.592 115.006 424.08C115.432 423.567 116.052 423.2 116.865 422.978L119.319 422.293L119.247 421.885C119.155 421.363 118.942 420.985 118.61 420.752C118.288 420.517 117.871 420.445 117.36 420.535C116.413 420.702 115.943 421.278 115.948 422.265L114.3 422.555C114.231 421.715 114.444 420.987 114.942 420.372C115.437 419.747 116.164 419.349 117.121 419.18C118.089 419.01 118.919 419.133 119.609 419.549C120.31 419.964 120.748 420.667 120.923 421.657L121.513 425.002C121.592 425.448 121.838 425.635 122.251 425.562ZM119.635 424.088L119.529 423.484L117.621 424.023C117.129 424.154 116.755 424.355 116.499 424.624C116.244 424.894 116.15 425.219 116.217 425.6C116.347 426.339 116.864 426.63 117.767 426.47C118.354 426.367 118.842 426.113 119.231 425.707C119.62 425.302 119.754 424.763 119.635 424.088ZM124.107 426.53L122.668 418.371L124.17 418.106L124.506 419.056L124.62 419.036C125.051 418.175 125.778 417.654 126.801 417.474C127.726 417.311 128.516 417.468 129.173 417.947C129.828 418.415 130.246 419.166 130.428 420.199L131.32 425.258L129.656 425.552L128.827 420.852C128.7 420.134 128.431 419.626 128.02 419.328C127.617 419.018 127.139 418.912 126.584 419.01C126.007 419.111 125.558 419.392 125.235 419.853C124.921 420.301 124.832 420.906 124.966 421.667L125.772 426.237L124.107 426.53ZM136.4 424.531C135.345 424.717 134.492 424.621 133.842 424.242C133.19 423.852 132.769 423.247 132.58 422.428L134.179 422.146C134.433 423.077 135.093 423.449 136.159 423.261C136.573 423.188 136.896 423.047 137.128 422.838C137.369 422.616 137.459 422.331 137.398 421.983C137.333 421.613 137.141 421.355 136.824 421.209C136.517 421.061 136.096 420.961 135.56 420.91L134.894 420.859C134.564 420.828 134.282 420.788 134.049 420.739C133.816 420.69 133.56 420.606 133.281 420.487C133 420.357 132.77 420.168 132.592 419.919C132.411 419.659 132.288 419.344 132.223 418.974C132.095 418.245 132.27 417.62 132.75 417.098C133.229 416.565 133.87 416.227 134.675 416.085C135.644 415.914 136.425 416.018 137.018 416.396C137.621 416.76 138.003 417.271 138.163 417.927L136.564 418.209C136.461 417.879 136.262 417.64 135.966 417.49C135.68 417.327 135.329 417.282 134.916 417.355C134.546 417.42 134.252 417.568 134.035 417.797C133.826 418.013 133.751 418.284 133.808 418.611C133.866 418.937 134.027 419.155 134.294 419.265C134.56 419.376 134.956 419.457 135.481 419.51L136.13 419.564C136.904 419.63 137.544 419.82 138.048 420.135C138.55 420.439 138.864 420.944 138.989 421.652C139.125 422.424 138.945 423.061 138.451 423.564C137.954 424.055 137.27 424.378 136.4 424.531ZM148.101 421.004L148.313 420.967L148.535 422.223L147.784 422.356C146.957 422.501 146.386 422.254 146.072 421.614C145.59 422.507 144.766 423.056 143.602 423.261C142.776 423.407 142.072 423.329 141.491 423.028C140.909 422.715 140.55 422.173 140.414 421.4C140.283 420.66 140.431 420.034 140.856 419.522C141.282 419.009 141.902 418.642 142.715 418.42L145.169 417.735L145.097 417.327C145.005 416.805 144.792 416.427 144.46 416.194C144.138 415.959 143.721 415.887 143.21 415.977C142.263 416.144 141.793 416.72 141.798 417.707L140.15 417.997C140.081 417.157 140.294 416.429 140.792 415.814C141.287 415.189 142.014 414.791 142.971 414.622C143.939 414.452 144.769 414.575 145.459 414.991C146.16 415.406 146.598 416.109 146.773 417.099L147.363 420.444C147.442 420.89 147.688 421.077 148.101 421.004ZM145.485 419.53L145.379 418.926L143.471 419.464C142.979 419.596 142.604 419.797 142.349 420.066C142.094 420.336 142 420.661 142.067 421.041C142.197 421.781 142.714 422.072 143.617 421.912C144.204 421.809 144.692 421.554 145.081 421.149C145.47 420.744 145.604 420.205 145.485 419.53ZM153.662 421.487C152.422 421.706 151.352 421.491 150.452 420.842C149.562 420.18 149.009 419.24 148.794 418.021C148.573 416.77 148.778 415.674 149.409 414.732C150.05 413.789 150.964 413.213 152.15 413.004C153.118 412.833 154.003 412.952 154.804 413.36C155.614 413.756 156.168 414.416 156.465 415.339L154.801 415.633C154.624 415.204 154.32 414.876 153.887 414.65C153.454 414.423 152.961 414.359 152.406 414.456C151.688 414.583 151.143 414.96 150.771 415.586C150.408 416.2 150.298 416.915 150.442 417.731C150.582 418.525 150.921 419.144 151.46 419.587C152.007 420.018 152.656 420.167 153.406 420.035C154.494 419.843 155.122 419.239 155.291 418.222L156.956 417.928C156.969 418.834 156.674 419.61 156.07 420.255C155.477 420.898 154.674 421.309 153.662 421.487ZM162.238 419.975C160.747 420.238 159.876 419.657 159.625 418.232L158.77 413.385L157.008 413.695L156.772 412.357L157.343 412.257C157.822 412.172 158.143 412.02 158.306 411.801C158.48 411.579 158.528 411.246 158.449 410.799L158.273 409.804L159.791 409.536L160.182 411.756L162.255 411.39L162.491 412.729L160.418 413.094L161.233 417.712C161.354 418.398 161.768 418.678 162.475 418.554C162.747 418.506 163.006 418.415 163.252 418.282L163.479 419.571C163.043 419.772 162.629 419.906 162.238 419.975ZM164.31 409.783C164.016 409.835 163.742 409.776 163.488 409.608C163.243 409.427 163.096 409.195 163.046 408.912C162.994 408.618 163.054 408.355 163.226 408.123C163.407 407.878 163.645 407.729 163.939 407.678C164.221 407.628 164.484 407.688 164.728 407.858C164.969 408.018 165.115 408.244 165.167 408.538C165.217 408.821 165.158 409.089 164.99 409.343C164.819 409.586 164.593 409.733 164.31 409.783ZM165.129 419.297L163.69 411.137L165.355 410.844L166.794 419.004L165.129 419.297ZM172.74 418.123C171.543 418.334 170.477 418.107 169.54 417.442C168.615 416.775 168.045 415.833 167.83 414.614C167.611 413.374 167.824 412.287 168.467 411.355C169.11 410.423 170.036 409.85 171.244 409.637C172.451 409.424 173.523 409.65 174.459 410.315C175.394 410.97 175.969 411.911 176.186 413.141C176.403 414.37 176.185 415.457 175.533 416.403C174.878 417.337 173.948 417.91 172.74 418.123ZM170.531 416.191C171.093 416.641 171.744 416.801 172.484 416.671C173.224 416.541 173.785 416.161 174.168 415.533C174.55 414.904 174.674 414.204 174.538 413.431C174.399 412.648 174.044 412.032 173.471 411.583C172.908 411.122 172.25 410.957 171.5 411.09C170.76 411.22 170.204 411.599 169.832 412.225C169.458 412.841 169.34 413.54 169.478 414.323C169.617 415.107 169.968 415.729 170.531 416.191ZM178.676 416.908L177.237 408.749L178.738 408.484L179.074 409.434L179.188 409.414C179.62 408.553 180.347 408.032 181.37 407.852C182.294 407.689 183.085 407.846 183.742 408.325C184.396 408.793 184.815 409.544 184.997 410.577L185.889 415.637L184.224 415.93L183.396 411.23C183.269 410.512 183 410.004 182.589 409.706C182.186 409.396 181.707 409.29 181.153 409.388C180.576 409.489 180.126 409.77 179.804 410.231C179.49 410.679 179.4 411.284 179.535 412.045L180.34 416.615L178.676 416.908ZM195.107 405.429C196.032 405.266 196.823 405.424 197.479 405.903C198.134 406.371 198.553 407.122 198.735 408.155L199.627 413.214L197.962 413.508L197.133 408.808C197.007 408.09 196.738 407.582 196.326 407.284C195.924 406.974 195.445 406.867 194.89 406.965C194.314 407.067 193.864 407.348 193.541 407.809C193.228 408.257 193.138 408.862 193.272 409.623L194.078 414.193L192.414 414.486L190.37 402.899L192.035 402.606L192.812 407.012L192.926 406.992C193.358 406.131 194.085 405.61 195.107 405.429ZM200.917 403.328C200.624 403.38 200.35 403.322 200.096 403.153C199.851 402.972 199.703 402.74 199.653 402.457C199.601 402.163 199.662 401.9 199.834 401.668C200.015 401.423 200.252 401.275 200.546 401.223C200.829 401.173 201.092 401.233 201.335 401.403C201.576 401.563 201.723 401.789 201.775 402.083C201.825 402.366 201.765 402.634 201.597 402.888C201.427 403.132 201.2 403.278 200.917 403.328ZM201.737 412.842L200.298 404.682L201.963 404.389L203.401 412.549L201.737 412.842ZM208.515 411.815C207.46 412.001 206.607 411.905 205.957 411.526C205.305 411.136 204.884 410.532 204.695 409.712L206.294 409.43C206.548 410.362 207.208 410.733 208.275 410.545C208.688 410.472 209.011 410.331 209.243 410.122C209.485 409.9 209.575 409.615 209.513 409.267C209.448 408.897 209.257 408.639 208.939 408.493C208.633 408.345 208.211 408.245 207.675 408.194L207.01 408.143C206.679 408.112 206.397 408.072 206.164 408.023C205.931 407.974 205.675 407.891 205.396 407.771C205.115 407.641 204.886 407.452 204.707 407.203C204.527 406.943 204.404 406.628 204.339 406.258C204.21 405.529 204.386 404.904 204.866 404.382C205.344 403.849 205.986 403.511 206.791 403.369C207.759 403.199 208.54 403.302 209.134 403.68C209.737 404.045 210.118 404.555 210.279 405.211L208.68 405.493C208.577 405.163 208.377 404.924 208.082 404.774C207.795 404.611 207.445 404.566 207.031 404.639C206.662 404.705 206.368 404.852 206.15 405.081C205.941 405.297 205.866 405.568 205.923 405.895C205.981 406.221 206.143 406.439 206.409 406.55C206.675 406.66 207.071 406.741 207.597 406.795L208.245 406.848C209.02 406.914 209.659 407.104 210.163 407.419C210.666 407.723 210.979 408.229 211.104 408.936C211.24 409.708 211.061 410.346 210.566 410.848C210.069 411.339 209.386 411.662 208.515 411.815ZM216.137 410.471C214.646 410.734 213.775 410.153 213.524 408.728L212.669 403.881L210.907 404.192L210.671 402.853L211.242 402.753C211.721 402.668 212.042 402.516 212.205 402.297C212.379 402.075 212.427 401.742 212.348 401.296L212.173 400.3L213.69 400.032L214.082 402.252L216.154 401.886L216.39 403.225L214.318 403.59L215.132 408.209C215.253 408.894 215.667 409.174 216.374 409.05C216.646 409.002 216.905 408.911 217.151 408.778L217.378 410.067C216.942 410.268 216.529 410.402 216.137 410.471ZM222.543 409.342C221.347 409.553 220.28 409.326 219.344 408.661C218.419 407.994 217.849 407.051 217.634 405.832C217.415 404.592 217.627 403.506 218.271 402.573C218.914 401.641 219.839 401.068 221.047 400.856C222.255 400.643 223.327 400.869 224.263 401.534C225.197 402.188 225.773 403.13 225.989 404.359C226.206 405.588 225.988 406.676 225.336 407.621C224.682 408.555 223.751 409.129 222.543 409.342ZM220.335 407.409C220.897 407.86 221.547 408.02 222.287 407.889C223.027 407.759 223.588 407.379 223.971 406.751C224.354 406.123 224.477 405.422 224.341 404.65C224.203 403.866 223.847 403.25 223.275 402.802C222.711 402.34 222.054 402.176 221.303 402.308C220.563 402.438 220.007 402.817 219.635 403.443C219.262 404.059 219.144 404.758 219.282 405.542C219.42 406.325 219.771 406.948 220.335 407.409ZM228.479 408.127L227.04 399.967L228.542 399.702L228.906 400.816L229.021 400.796C229.194 400.316 229.436 399.937 229.746 399.658C230.055 399.379 230.526 399.184 231.157 399.073L231.679 398.981L231.973 400.645C231.706 400.659 231.436 400.689 231.164 400.737C230.435 400.866 229.929 401.208 229.645 401.762C229.362 402.317 229.286 402.97 229.419 403.721L230.144 407.833L228.479 408.127ZM236.537 410.24C236.2 410.299 235.782 410.311 235.282 410.276L235.06 409.019C235.422 409.034 235.717 409.021 235.945 408.981C236.805 408.829 237.329 408.333 237.517 407.492L237.712 406.499L237.173 406.594L232.585 398.989L234.315 398.684L237.867 404.705L237.997 404.682L239.129 397.835L240.859 397.53L239.11 407.464C238.864 409.055 238.006 409.981 236.537 410.24Z" fill="#121926"/>
<g clip-path="url(#clip3_1916_50986)">
<path d="M400.343 366.044L402.187 365.719L400.203 377.847L398.097 378.218L392.085 367.5L393.945 367.172L398.69 375.758L398.821 375.735L400.343 366.044ZM404.802 367.378C404.508 367.429 404.234 367.371 403.98 367.203C403.735 367.022 403.588 366.79 403.538 366.507C403.486 366.213 403.546 365.95 403.718 365.718C403.9 365.473 404.137 365.324 404.431 365.272C404.714 365.222 404.977 365.283 405.22 365.453C405.461 365.612 405.608 365.839 405.659 366.133C405.709 366.416 405.65 366.684 405.482 366.938C405.311 367.181 405.085 367.328 404.802 367.378ZM405.621 376.892L404.183 368.732L405.847 368.438L407.286 376.598L405.621 376.892ZM416.005 370.736C416.018 370.812 416.039 370.994 416.067 371.281L410.029 372.345C410.203 373.077 410.543 373.635 411.047 374.017C411.55 374.388 412.155 374.511 412.863 374.387C413.961 374.193 414.568 373.654 414.681 372.77L416.28 372.488C416.25 373.335 415.955 374.049 415.396 374.63C414.835 375.2 414.07 375.57 413.101 375.741C411.916 375.95 410.88 375.74 409.995 375.111C409.11 374.482 408.557 373.542 408.337 372.29C408.107 370.985 408.298 369.874 408.91 368.958C409.532 368.03 410.408 367.466 411.54 367.266C412.606 367.078 413.555 367.276 414.387 367.858C415.23 368.439 415.769 369.398 416.005 370.736ZM411.779 368.621C411.148 368.732 410.661 369.026 410.318 369.501C409.976 369.976 409.816 370.532 409.838 371.167L414.277 370.385C414.155 369.756 413.864 369.28 413.403 368.957C412.94 368.624 412.399 368.512 411.779 368.621ZM419.758 374.399L416.198 366.613L417.764 366.337L420.351 372.326L420.466 372.306L421.145 366.33L422.94 366.013L425.626 371.413L425.74 371.392L426.12 364.864L427.67 364.59L426.971 373.127L425.094 373.458L422.43 367.988L422.3 368.011L421.635 374.068L419.758 374.399Z" fill="#1A6533"/>
<path d="M448.479 369.91C448.287 369.944 448.089 369.92 447.91 369.841C447.732 369.763 447.581 369.633 447.476 369.468C447.371 369.304 447.317 369.112 447.322 368.917C447.326 368.722 447.388 368.533 447.5 368.373L451.459 362.717L445.804 358.756C445.59 358.606 445.444 358.377 445.398 358.12C445.353 357.862 445.412 357.597 445.562 357.383C445.712 357.168 445.941 357.023 446.198 356.977C446.456 356.932 446.721 356.991 446.935 357.141L453.399 361.667C453.505 361.741 453.595 361.835 453.665 361.945C453.735 362.054 453.782 362.176 453.804 362.303C453.827 362.431 453.824 362.562 453.796 362.688C453.768 362.815 453.715 362.934 453.641 363.04L449.115 369.504C449.041 369.61 448.947 369.701 448.838 369.771C448.728 369.84 448.606 369.887 448.479 369.91V369.91Z" fill="#2CA955"/>
</g>
<rect x="75.8765" y="398.127" width="404.815" height="60.6937" rx="8.87751" transform="rotate(-10 75.8765 398.127)" stroke="#F2F4F7" stroke-width="1.18367"/>
</g>
</g>
<defs>
<filter id="filter0_d_1916_50986" x="-78.0521" y="-58.6255" width="663.858" height="633.25" filterUnits="userSpaceOnUse" color-interpolation-filters="sRGB">
<feFlood flood-opacity="0" result="BackgroundImageFix"/>
<feColorMatrix in="SourceAlpha" type="matrix" values="0 0 0 0 0 0 0 0 0 0 0 0 0 0 0 0 0 0 127 0" result="hardAlpha"/>
<feOffset dy="16"/>
<feGaussianBlur stdDeviation="39.05"/>
<feComposite in2="hardAlpha" operator="out"/>
<feColorMatrix type="matrix" values="0 0 0 0 0.12549 0 0 0 0 0.219608 0 0 0 0 0.333333 0 0 0 0.05 0"/>
<feBlend mode="normal" in2="BackgroundImageFix" result="effect1_dropShadow_1916_50986"/>
<feBlend mode="normal" in="SourceGraphic" in2="effect1_dropShadow_1916_50986" result="shape"/>
</filter>
<filter id="filter1_bd_1916_50986" x="7.78353" y="11.21" width="478.323" height="318.973" filterUnits="userSpaceOnUse" color-interpolation-filters="sRGB">
<feFlood flood-opacity="0" result="BackgroundImageFix"/>
<feGaussianBlur in="BackgroundImage" stdDeviation="7.10201"/>
<feComposite in2="SourceAlpha" operator="in" result="effect1_backgroundBlur_1916_50986"/>
<feColorMatrix in="SourceAlpha" type="matrix" values="0 0 0 0 0 0 0 0 0 0 0 0 0 0 0 0 0 0 127 0" result="hardAlpha"/>
<feOffset dx="9.46935" dy="11.8367"/>
<feGaussianBlur stdDeviation="9.46935"/>
<feComposite in2="hardAlpha" operator="out"/>
<feColorMatrix type="matrix" values="0 0 0 0 0 0 0 0 0 0 0 0 0 0 0 0 0 0 0.05 0"/>
<feBlend mode="normal" in2="effect1_backgroundBlur_1916_50986" result="effect2_dropShadow_1916_50986"/>
<feBlend mode="normal" in="SourceGraphic" in2="effect2_dropShadow_1916_50986" result="shape"/>
</filter>
<filter id="filter2_d_1916_50986" x="70.6338" y="189.876" width="174.892" height="79.6222" filterUnits="userSpaceOnUse" color-interpolation-filters="sRGB">
<feFlood flood-opacity="0" result="BackgroundImageFix"/>
<feColorMatrix in="SourceAlpha" type="matrix" values="0 0 0 0 0 0 0 0 0 0 0 0 0 0 0 0 0 0 127 0" result="hardAlpha"/>
<feOffset dy="1"/>
<feGaussianBlur stdDeviation="1"/>
<feColorMatrix type="matrix" values="0 0 0 0 0.0627451 0 0 0 0 0.0941176 0 0 0 0 0.156863 0 0 0 0.05 0"/>
<feBlend mode="normal" in2="BackgroundImageFix" result="effect1_dropShadow_1916_50986"/>
<feBlend mode="normal" in="SourceGraphic" in2="effect1_dropShadow_1916_50986" result="shape"/>
</filter>
<filter id="filter3_d_1916_50986" x="251.898" y="157.914" width="174.892" height="79.6222" filterUnits="userSpaceOnUse" color-interpolation-filters="sRGB">
<feFlood flood-opacity="0" result="BackgroundImageFix"/>
<feColorMatrix in="SourceAlpha" type="matrix" values="0 0 0 0 0 0 0 0 0 0 0 0 0 0 0 0 0 0 127 0" result="hardAlpha"/>
<feOffset dy="1"/>
<feGaussianBlur stdDeviation="1"/>
<feColorMatrix type="matrix" values="0 0 0 0 0.0627451 0 0 0 0 0.0941176 0 0 0 0 0.156863 0 0 0 0.05 0"/>
<feBlend mode="normal" in2="BackgroundImageFix" result="effect1_dropShadow_1916_50986"/>
<feBlend mode="normal" in="SourceGraphic" in2="effect1_dropShadow_1916_50986" result="shape"/>
</filter>
<clipPath id="clip0_1916_50986">
<rect width="18.9387" height="18.9387" fill="white" transform="translate(302.571 122.504) rotate(-10)"/>
</clipPath>
<clipPath id="clip1_1916_50986">
<rect x="253.898" y="187.588" width="165.122" height="47.6734" rx="23.8367" transform="rotate(-10 253.898 187.588)" fill="white"/>
</clipPath>
<clipPath id="clip2_1916_50986">
<rect x="378.193" y="291.003" width="70.1427" height="24" rx="12" transform="rotate(-10 378.193 291.003)" fill="white"/>
</clipPath>
<clipPath id="clip3_1916_50986">
<rect x="390.582" y="361.266" width="70.1427" height="24" rx="12" transform="rotate(-10 390.582 361.266)" fill="white"/>
</clipPath>
</defs>
</svg>
