<svg width="149" height="45" viewBox="0 0 149 45" fill="none" xmlns="http://www.w3.org/2000/svg">
<rect x="0.5" y="1" width="147.5" height="43" rx="4.5" fill="white"/>
<path d="M74.9496 24.4262C72.3624 24.4262 70.2537 26.3941 70.2537 29.1045C70.2537 31.7984 72.3624 33.7828 74.9496 33.7828C77.5379 33.7828 79.6466 31.7984 79.6466 29.1045C79.6455 26.3941 77.5368 24.4262 74.9496 24.4262ZM74.9496 31.9414C73.5317 31.9414 72.3096 30.7721 72.3096 29.1056C72.3096 27.4215 73.5328 26.2698 74.9496 26.2698C76.3675 26.2698 77.5896 27.4215 77.5896 29.1056C77.5896 30.771 76.3675 31.9414 74.9496 31.9414ZM64.7042 24.4262C62.117 24.4262 60.0083 26.3941 60.0083 29.1045C60.0083 31.7984 62.117 33.7828 64.7042 33.7828C67.2925 33.7828 69.4012 31.7984 69.4012 29.1045C69.4012 26.3941 67.2925 24.4262 64.7042 24.4262ZM64.7042 31.9414C63.2863 31.9414 62.0642 30.7721 62.0642 29.1056C62.0642 27.4215 63.2874 26.2698 64.7042 26.2698C66.1221 26.2698 67.3442 27.4215 67.3442 29.1056C67.3453 30.771 66.1221 31.9414 64.7042 31.9414ZM52.5184 25.8628V27.8472H57.2682C57.1263 28.9637 56.7545 29.7788 56.1869 30.3453C55.4961 31.0361 54.4148 31.7984 52.5184 31.7984C49.5946 31.7984 47.3088 29.4411 47.3088 26.5173C47.3088 23.5935 49.5946 21.2362 52.5184 21.2362C54.0958 21.2362 55.2475 21.8566 56.0978 22.6541L57.4981 21.2538C56.3101 20.1197 54.7338 19.2518 52.5184 19.2518C48.5133 19.2518 45.1462 22.5122 45.1462 26.5173C45.1462 30.5224 48.5133 33.7828 52.5184 33.7828C54.6799 33.7828 56.3112 33.0733 57.5861 31.7445C58.8973 30.4333 59.3054 28.5897 59.3054 27.1014C59.3054 26.6416 59.2702 26.2159 59.1987 25.8617H52.5184V25.8628ZM102.357 27.4039C101.968 26.3589 100.78 24.4262 98.3521 24.4262C95.942 24.4262 93.9389 26.3226 93.9389 29.1045C93.9389 31.7269 95.9244 33.7828 98.582 33.7828C100.726 33.7828 101.967 32.4716 102.482 31.7093L100.887 30.6456C100.355 31.4255 99.6281 31.9392 98.582 31.9392C97.537 31.9392 96.7923 31.4607 96.3138 30.5213L102.57 27.9341L102.357 27.4039ZM95.9772 28.9637C95.9244 27.1553 97.3775 26.2346 98.4236 26.2346C99.2387 26.2346 99.9295 26.6427 100.161 27.2268L95.9772 28.9637ZM90.8919 33.5001H92.9467V19.749H90.8919V33.5001ZM87.5237 25.4723H87.4533C86.9924 24.9223 86.1058 24.4262 84.9904 24.4262C82.6507 24.4262 80.5068 26.4821 80.5068 29.1232C80.5068 31.7456 82.6507 33.7839 84.9904 33.7839C86.1069 33.7839 86.9924 33.2878 87.4533 32.7213H87.5237V33.3945C87.5237 35.1842 86.5667 36.1412 85.0256 36.1412C83.7672 36.1412 82.9873 35.2381 82.6683 34.4758L80.8786 35.2205C81.3923 36.4602 82.7563 37.9848 85.0256 37.9848C87.4357 37.9848 89.474 36.5669 89.474 33.1107V24.7111H87.5248V25.4723H87.5237ZM85.1675 31.9414C83.7496 31.9414 82.5627 30.7534 82.5627 29.1232C82.5627 27.4743 83.7496 26.2698 85.1675 26.2698C86.5667 26.2698 87.6656 27.4743 87.6656 29.1232C87.6656 30.7534 86.5667 31.9414 85.1675 31.9414ZM111.987 19.749H107.069V33.5001H109.12V28.2905H111.986C114.26 28.2905 116.498 26.6438 116.498 24.0203C116.498 21.3968 114.261 19.749 111.987 19.749ZM112.039 26.3765H109.12V21.663H112.039C113.574 21.663 114.445 22.9335 114.445 24.0203C114.445 25.0851 113.574 26.3765 112.039 26.3765ZM124.725 24.402C123.239 24.402 121.7 25.0565 121.063 26.5074L122.884 27.2675C123.274 26.5074 124 26.2588 124.76 26.2588C125.821 26.2588 126.9 26.8957 126.918 28.0276V28.1695C126.546 27.9572 125.75 27.6393 124.777 27.6393C122.814 27.6393 120.814 28.7184 120.814 30.7347C120.814 32.575 122.425 33.7597 124.229 33.7597C125.608 33.7597 126.369 33.1404 126.847 32.4144H126.917V33.4759H128.899V28.2036C128.9 25.7638 127.076 24.402 124.725 24.402ZM124.476 31.9381C123.805 31.9381 122.867 31.6015 122.867 30.7699C122.867 29.7084 124.035 29.3014 125.044 29.3014C125.945 29.3014 126.37 29.4961 126.918 29.7612C126.759 31.0361 125.662 31.9381 124.476 31.9381ZM136.117 24.7023L133.764 30.6643H133.694L131.252 24.7023H129.041L132.703 33.0348L130.615 37.6702H132.756L138.4 24.7023H136.117ZM117.631 33.5001H119.682V19.749H117.631V33.5001Z" fill="black"/>
<path d="M52.1599 11.7673C52.1599 12.6891 51.8871 13.4228 51.3404 13.9706C50.72 14.6218 49.9104 14.9474 48.916 14.9474C47.9634 14.9474 47.1527 14.6174 46.4872 13.9574C45.8206 13.2963 45.4873 12.4779 45.4873 11.5011C45.4873 10.5232 45.8206 9.70476 46.4872 9.04476C47.1527 8.38366 47.9634 8.05366 48.916 8.05366C49.389 8.05366 49.8411 8.14606 50.2701 8.32976C50.7002 8.51456 51.0445 8.75986 51.3019 9.06676L50.7222 9.64756C50.2855 9.12506 49.6838 8.86436 48.9149 8.86436C48.2197 8.86436 47.6191 9.10856 47.112 9.59696C46.6049 10.0854 46.3519 10.7201 46.3519 11.5C46.3519 12.2799 46.6049 12.9146 47.112 13.403C47.6191 13.8914 48.2197 14.1356 48.9149 14.1356C49.6519 14.1356 50.2668 13.8903 50.7585 13.3986C51.0775 13.0785 51.2623 12.633 51.3118 12.0621H48.9149V11.269H52.1126C52.1456 11.4417 52.1599 11.6078 52.1599 11.7673Z" fill="black"/>
<path d="M57.231 9.01072H54.2258V11.1029H56.9362V11.896H54.2258V13.9882H57.231V14.8H53.3777V8.20002H57.231V9.01072Z" fill="black"/>
<path d="M60.807 14.8H59.9589V9.01072H58.1153V8.20002H62.6506V9.01072H60.807V14.8Z" fill="black"/>
<path d="M65.9318 14.8V8.20002H66.7799V14.8H65.9318Z" fill="black"/>
<path d="M70.541 14.8H69.6929V9.01072H67.8493V8.20002H72.3846V9.01072H70.541V14.8Z" fill="black"/>
<path d="M80.9699 13.9475C80.3209 14.6141 79.5146 14.9474 78.5499 14.9474C77.5852 14.9474 76.7789 14.6141 76.131 13.9475C75.482 13.2809 75.1586 12.4647 75.1586 11.5C75.1586 10.5353 75.482 9.71911 76.131 9.05251C76.7789 8.38591 77.5852 8.05151 78.5499 8.05151C79.5091 8.05151 80.3143 8.38701 80.9655 9.05691C81.6167 9.72681 81.9423 10.5408 81.9423 11.5C81.9423 12.4647 81.6178 13.2809 80.9699 13.9475ZM76.7569 13.3942C77.2453 13.8892 77.8426 14.1356 78.5499 14.1356C79.2572 14.1356 79.8556 13.8881 80.3429 13.3942C80.8313 12.8992 81.0766 12.2678 81.0766 11.5C81.0766 10.7322 80.8313 10.1008 80.3429 9.60581C79.8556 9.11081 79.2572 8.86441 78.5499 8.86441C77.8426 8.86441 77.2453 9.11191 76.7569 9.60581C76.2696 10.1008 76.0243 10.7322 76.0243 11.5C76.0243 12.2678 76.2696 12.8992 76.7569 13.3942Z" fill="black"/>
<path d="M83.1325 14.8V8.20002H84.1643L87.3719 13.3337H87.4082L87.3719 12.0621V8.20002H88.22V14.8H87.3345L83.9784 9.41663H83.9421L83.9784 10.6882V14.8H83.1325Z" fill="black"/>
<path d="M52.1599 11.7673C52.1599 12.6891 51.8871 13.4228 51.3404 13.9706C50.72 14.6218 49.9104 14.9474 48.916 14.9474C47.9634 14.9474 47.1527 14.6174 46.4872 13.9574C45.8206 13.2963 45.4873 12.4779 45.4873 11.5011C45.4873 10.5232 45.8206 9.70476 46.4872 9.04476C47.1527 8.38366 47.9634 8.05366 48.916 8.05366C49.389 8.05366 49.8411 8.14606 50.2701 8.32976C50.7002 8.51456 51.0445 8.75986 51.3019 9.06676L50.7222 9.64756C50.2855 9.12506 49.6838 8.86436 48.9149 8.86436C48.2197 8.86436 47.6191 9.10856 47.112 9.59696C46.6049 10.0854 46.3519 10.7201 46.3519 11.5C46.3519 12.2799 46.6049 12.9146 47.112 13.403C47.6191 13.8914 48.2197 14.1356 48.9149 14.1356C49.6519 14.1356 50.2668 13.8903 50.7585 13.3986C51.0775 13.0785 51.2623 12.633 51.3118 12.0621H48.9149V11.269H52.1126C52.1456 11.4417 52.1599 11.6078 52.1599 11.7673Z" stroke="black" stroke-width="0.2" stroke-miterlimit="10"/>
<path d="M57.231 9.01072H54.2258V11.1029H56.9362V11.896H54.2258V13.9882H57.231V14.8H53.3777V8.20002H57.231V9.01072Z" stroke="black" stroke-width="0.2" stroke-miterlimit="10"/>
<path d="M60.807 14.8H59.9589V9.01072H58.1153V8.20002H62.6506V9.01072H60.807V14.8Z" stroke="black" stroke-width="0.2" stroke-miterlimit="10"/>
<path d="M65.9318 14.8V8.20002H66.7799V14.8H65.9318Z" stroke="black" stroke-width="0.2" stroke-miterlimit="10"/>
<path d="M70.541 14.8H69.6929V9.01072H67.8493V8.20002H72.3846V9.01072H70.541V14.8Z" stroke="black" stroke-width="0.2" stroke-miterlimit="10"/>
<path d="M80.9699 13.9475C80.3209 14.6141 79.5146 14.9474 78.5499 14.9474C77.5852 14.9474 76.7789 14.6141 76.131 13.9475C75.482 13.2809 75.1586 12.4647 75.1586 11.5C75.1586 10.5353 75.482 9.71911 76.131 9.05251C76.7789 8.38591 77.5852 8.05151 78.5499 8.05151C79.5091 8.05151 80.3143 8.38701 80.9655 9.05691C81.6167 9.72681 81.9423 10.5408 81.9423 11.5C81.9423 12.4647 81.6178 13.2809 80.9699 13.9475ZM76.7569 13.3942C77.2453 13.8892 77.8426 14.1356 78.5499 14.1356C79.2572 14.1356 79.8556 13.8881 80.3429 13.3942C80.8313 12.8992 81.0766 12.2678 81.0766 11.5C81.0766 10.7322 80.8313 10.1008 80.3429 9.60581C79.8556 9.11081 79.2572 8.86441 78.5499 8.86441C77.8426 8.86441 77.2453 9.11191 76.7569 9.60581C76.2696 10.1008 76.0243 10.7322 76.0243 11.5C76.0243 12.2678 76.2696 12.8992 76.7569 13.3942Z" stroke="black" stroke-width="0.2" stroke-miterlimit="10"/>
<path d="M83.1325 14.8V8.20002H84.1643L87.3719 13.3337H87.4082L87.3719 12.0621V8.20002H88.22V14.8H87.3345L83.9784 9.41663H83.9421L83.9784 10.6882V14.8H83.1325Z" stroke="black" stroke-width="0.2" stroke-miterlimit="10"/>
<path fill-rule="evenodd" clip-rule="evenodd" d="M11.1943 9.21466C11.0503 9.51747 10.9703 9.89461 10.9703 10.3373V34.6649C10.9703 35.1086 11.0504 35.4857 11.1945 35.7884L24.4803 22.5007L11.1943 9.21466ZM11.8881 36.5091C12.3847 36.7451 13.0442 36.6877 13.7654 36.2786L29.3833 27.4037L25.1874 23.2078L11.8881 36.5091ZM30.2858 26.892L35.2165 24.0906C36.7532 23.2161 36.7532 21.7872 35.2165 20.9138L30.2837 18.1108L25.8945 22.5007L30.2858 26.892ZM29.3819 17.5984L13.7654 8.72472C13.0441 8.31483 12.3846 8.25785 11.888 8.49417L25.1874 21.7935L29.3819 17.5984Z" fill="black"/>
<rect x="0.5" y="1" width="147.5" height="43" rx="4.5" stroke="black"/>
</svg>
