<svg width="150" height="45" viewBox="0 0 150 45" fill="none" xmlns="http://www.w3.org/2000/svg">
<path d="M75.52 24.4288C72.9328 24.4288 70.824 26.3967 70.824 29.1071C70.824 31.801 72.9328 33.7854 75.52 33.7854C78.1083 33.7854 80.217 31.801 80.217 29.1071C80.2159 26.3967 78.1072 24.4288 75.52 24.4288ZM75.52 31.944C74.1021 31.944 72.88 30.7747 72.88 29.1082C72.88 27.4241 74.1032 26.2724 75.52 26.2724C76.9379 26.2724 78.16 27.4241 78.16 29.1082C78.16 30.7736 76.9379 31.944 75.52 31.944ZM65.2746 24.4288C62.6874 24.4288 60.5787 26.3967 60.5787 29.1071C60.5787 31.801 62.6874 33.7854 65.2746 33.7854C67.8629 33.7854 69.9716 31.801 69.9716 29.1071C69.9716 26.3967 67.8629 24.4288 65.2746 24.4288ZM65.2746 31.944C63.8567 31.944 62.6346 30.7747 62.6346 29.1082C62.6346 27.4241 63.8578 26.2724 65.2746 26.2724C66.6925 26.2724 67.9146 27.4241 67.9146 29.1082C67.9157 30.7736 66.6925 31.944 65.2746 31.944ZM53.0888 25.8654V27.8498H57.8386C57.6967 28.9663 57.3249 29.7814 56.7573 30.3479C56.0665 31.0387 54.9852 31.801 53.0888 31.801C50.165 31.801 47.8792 29.4437 47.8792 26.5199C47.8792 23.5961 50.165 21.2388 53.0888 21.2388C54.6662 21.2388 55.8179 21.8592 56.6682 22.6567L58.0685 21.2564C56.8805 20.1223 55.3042 19.2544 53.0888 19.2544C49.0837 19.2544 45.7166 22.5148 45.7166 26.5199C45.7166 30.525 49.0837 33.7854 53.0888 33.7854C55.2503 33.7854 56.8816 33.0759 58.1565 31.7471C59.4677 30.4359 59.8758 28.5923 59.8758 27.104C59.8758 26.6442 59.8406 26.2185 59.7691 25.8643H53.0888V25.8654ZM102.928 27.4065C102.538 26.3615 101.35 24.4288 98.9225 24.4288C96.5124 24.4288 94.5093 26.3252 94.5093 29.1071C94.5093 31.7295 96.4948 33.7854 99.1524 33.7854C101.296 33.7854 102.537 32.4742 103.052 31.7119L101.457 30.6482C100.926 31.4281 100.198 31.9418 99.1524 31.9418C98.1074 31.9418 97.3627 31.4633 96.8842 30.5239L103.14 27.9367L102.928 27.4065ZM96.5476 28.9663C96.4948 27.1579 97.9479 26.2372 98.994 26.2372C99.8091 26.2372 100.5 26.6453 100.731 27.2294L96.5476 28.9663ZM91.4622 33.5027H93.5171V19.7516H91.4622V33.5027ZM88.0941 25.4749H88.0237C87.5628 24.9249 86.6762 24.4288 85.5608 24.4288C83.2211 24.4288 81.0772 26.4847 81.0772 29.1258C81.0772 31.7482 83.2211 33.7865 85.5608 33.7865C86.6773 33.7865 87.5628 33.2904 88.0237 32.7239H88.0941V33.3971C88.0941 35.1868 87.1371 36.1438 85.596 36.1438C84.3376 36.1438 83.5577 35.2407 83.2387 34.4784L81.449 35.2231C81.9627 36.4628 83.3267 37.9874 85.596 37.9874C88.0061 37.9874 90.0443 36.5695 90.0443 33.1133V24.7137H88.0952V25.4749H88.0941ZM85.7379 31.944C84.32 31.944 83.1331 30.756 83.1331 29.1258C83.1331 27.4769 84.32 26.2724 85.7379 26.2724C87.1371 26.2724 88.236 27.4769 88.236 29.1258C88.236 30.756 87.1371 31.944 85.7379 31.944ZM112.557 19.7516H107.639V33.5027H109.69V28.2931H112.556C114.831 28.2931 117.068 26.6464 117.068 24.0229C117.068 21.3994 114.832 19.7516 112.557 19.7516ZM112.61 26.3791H109.69V21.6656H112.61C114.144 21.6656 115.015 22.9361 115.015 24.0229C115.015 25.0877 114.144 26.3791 112.61 26.3791ZM125.295 24.4046C123.809 24.4046 122.27 25.0591 121.633 26.51L123.455 27.2701C123.844 26.51 124.57 26.2614 125.33 26.2614C126.392 26.2614 127.471 26.8983 127.488 28.0302V28.1721C127.117 27.9598 126.32 27.6419 125.348 27.6419C123.384 27.6419 121.384 28.721 121.384 30.7373C121.384 32.5776 122.995 33.7623 124.799 33.7623C126.178 33.7623 126.939 33.143 127.417 32.417H127.487V33.4785H129.469V28.2062C129.471 25.7664 127.647 24.4046 125.295 24.4046ZM125.046 31.9407C124.375 31.9407 123.437 31.6041 123.437 30.7725C123.437 29.711 124.605 29.304 125.614 29.304C126.515 29.304 126.941 29.4987 127.488 29.7638C127.329 31.0387 126.232 31.9407 125.046 31.9407ZM136.688 24.7049L134.335 30.6669H134.264L131.822 24.7049H129.611L133.273 33.0374L131.185 37.6728H133.326L138.97 24.7049H136.688ZM118.201 33.5027H120.253V19.7516H118.201V33.5027Z" fill="white"/>
<path d="M52.7302 11.7695C52.7302 12.6913 52.4574 13.425 51.9107 13.9728C51.2903 14.624 50.4807 14.9496 49.4863 14.9496C48.5337 14.9496 47.723 14.6196 47.0575 13.9596C46.3909 13.2985 46.0576 12.4801 46.0576 11.5033C46.0576 10.5254 46.3909 9.70696 47.0575 9.04696C47.723 8.38586 48.5337 8.05586 49.4863 8.05586C49.9593 8.05586 50.4114 8.14826 50.8404 8.33196C51.2705 8.51676 51.6148 8.76206 51.8722 9.06896L51.2925 9.64976C50.8558 9.12726 50.2541 8.86656 49.4852 8.86656C48.79 8.86656 48.1894 9.11076 47.6823 9.59916C47.1752 10.0876 46.9222 10.7223 46.9222 11.5022C46.9222 12.2821 47.1752 12.9168 47.6823 13.4052C48.1894 13.8936 48.79 14.1378 49.4852 14.1378C50.2222 14.1378 50.8371 13.8925 51.3288 13.4008C51.6478 13.0807 51.8326 12.6352 51.8821 12.0643H49.4852V11.2712H52.6829C52.7159 11.4439 52.7302 11.61 52.7302 11.7695Z" fill="white"/>
<path d="M57.8013 9.01292H54.7961V11.1051H57.5065V11.8982H54.7961V13.9904H57.8013V14.8022H53.948V8.20222H57.8013V9.01292Z" fill="white"/>
<path d="M61.3773 14.8022H60.5292V9.01292H58.6856V8.20222H63.2209V9.01292H61.3773V14.8022Z" fill="white"/>
<path d="M66.5022 14.8022V8.20222H67.3502V14.8022H66.5022Z" fill="white"/>
<path d="M71.1113 14.8022H70.2632V9.01292H68.4196V8.20222H72.9549V9.01292H71.1113V14.8022Z" fill="white"/>
<path d="M81.5402 13.9497C80.8912 14.6163 80.0849 14.9496 79.1202 14.9496C78.1555 14.9496 77.3492 14.6163 76.7013 13.9497C76.0523 13.2831 75.7289 12.4669 75.7289 11.5022C75.7289 10.5375 76.0523 9.72131 76.7013 9.05471C77.3492 8.38811 78.1555 8.05371 79.1202 8.05371C80.0794 8.05371 80.8846 8.38921 81.5358 9.05911C82.187 9.72901 82.5126 10.543 82.5126 11.5022C82.5126 12.4669 82.1881 13.2831 81.5402 13.9497ZM77.3272 13.3964C77.8156 13.8914 78.4129 14.1378 79.1202 14.1378C79.8275 14.1378 80.4259 13.8903 80.9132 13.3964C81.4016 12.9014 81.6469 12.27 81.6469 11.5022C81.6469 10.7344 81.4016 10.103 80.9132 9.60801C80.4259 9.11301 79.8275 8.86661 79.1202 8.86661C78.4129 8.86661 77.8156 9.11411 77.3272 9.60801C76.8399 10.103 76.5946 10.7344 76.5946 11.5022C76.5946 12.27 76.8399 12.9014 77.3272 13.3964Z" fill="white"/>
<path d="M83.7028 14.8022V8.20222H84.7346L87.9422 13.3359H87.9785L87.9422 12.0643V8.20222H88.7903V14.8022H87.9048L84.5487 9.41882H84.5124L84.5487 10.6904V14.8022H83.7028Z" fill="white"/>
<path d="M52.7302 11.7695C52.7302 12.6913 52.4574 13.425 51.9107 13.9728C51.2903 14.624 50.4807 14.9496 49.4863 14.9496C48.5337 14.9496 47.723 14.6196 47.0575 13.9596C46.3909 13.2985 46.0576 12.4801 46.0576 11.5033C46.0576 10.5254 46.3909 9.70696 47.0575 9.04696C47.723 8.38586 48.5337 8.05586 49.4863 8.05586C49.9593 8.05586 50.4114 8.14826 50.8404 8.33196C51.2705 8.51676 51.6148 8.76206 51.8722 9.06896L51.2925 9.64976C50.8558 9.12726 50.2541 8.86656 49.4852 8.86656C48.79 8.86656 48.1894 9.11076 47.6823 9.59916C47.1752 10.0876 46.9222 10.7223 46.9222 11.5022C46.9222 12.2821 47.1752 12.9168 47.6823 13.4052C48.1894 13.8936 48.79 14.1378 49.4852 14.1378C50.2222 14.1378 50.8371 13.8925 51.3288 13.4008C51.6478 13.0807 51.8326 12.6352 51.8821 12.0643H49.4852V11.2712H52.6829C52.7159 11.4439 52.7302 11.61 52.7302 11.7695Z" stroke="white" stroke-width="0.2" stroke-miterlimit="10"/>
<path d="M57.8013 9.01292H54.7961V11.1051H57.5065V11.8982H54.7961V13.9904H57.8013V14.8022H53.948V8.20222H57.8013V9.01292Z" stroke="white" stroke-width="0.2" stroke-miterlimit="10"/>
<path d="M61.3773 14.8022H60.5292V9.01292H58.6856V8.20222H63.2209V9.01292H61.3773V14.8022Z" stroke="white" stroke-width="0.2" stroke-miterlimit="10"/>
<path d="M66.5022 14.8022V8.20222H67.3502V14.8022H66.5022Z" stroke="white" stroke-width="0.2" stroke-miterlimit="10"/>
<path d="M71.1113 14.8022H70.2632V9.01292H68.4196V8.20222H72.9549V9.01292H71.1113V14.8022Z" stroke="white" stroke-width="0.2" stroke-miterlimit="10"/>
<path d="M81.5402 13.9497C80.8912 14.6163 80.0849 14.9496 79.1202 14.9496C78.1555 14.9496 77.3492 14.6163 76.7013 13.9497C76.0523 13.2831 75.7289 12.4669 75.7289 11.5022C75.7289 10.5375 76.0523 9.72131 76.7013 9.05471C77.3492 8.38811 78.1555 8.05371 79.1202 8.05371C80.0794 8.05371 80.8846 8.38921 81.5358 9.05911C82.187 9.72901 82.5126 10.543 82.5126 11.5022C82.5126 12.4669 82.1881 13.2831 81.5402 13.9497ZM77.3272 13.3964C77.8156 13.8914 78.4129 14.1378 79.1202 14.1378C79.8275 14.1378 80.4259 13.8903 80.9132 13.3964C81.4016 12.9014 81.6469 12.27 81.6469 11.5022C81.6469 10.7344 81.4016 10.103 80.9132 9.60801C80.4259 9.11301 79.8275 8.86661 79.1202 8.86661C78.4129 8.86661 77.8156 9.11411 77.3272 9.60801C76.8399 10.103 76.5946 10.7344 76.5946 11.5022C76.5946 12.27 76.8399 12.9014 77.3272 13.3964Z" stroke="white" stroke-width="0.2" stroke-miterlimit="10"/>
<path d="M83.7028 14.8022V8.20222H84.7346L87.9422 13.3359H87.9785L87.9422 12.0643V8.20222H88.7903V14.8022H87.9048L84.5487 9.41882H84.5124L84.5487 10.6904V14.8022H83.7028Z" stroke="white" stroke-width="0.2" stroke-miterlimit="10"/>
<path fill-rule="evenodd" clip-rule="evenodd" d="M11.7644 9.21704C11.6205 9.51985 11.5405 9.89699 11.5405 10.3397V34.6673C11.5405 35.111 11.6206 35.4881 11.7647 35.7908L25.0505 22.5031L11.7644 9.21704ZM12.4582 36.5114C12.9549 36.7475 13.6143 36.69 14.3356 36.281L29.9535 27.4061L25.7576 23.2102L12.4582 36.5114ZM30.856 26.8944L35.7867 24.093C37.3234 23.2185 37.3234 21.7896 35.7867 20.9162L30.8538 18.1132L26.4646 22.503L30.856 26.8944ZM29.9521 17.6008L14.3356 8.72711C13.6143 8.31721 12.9548 8.26023 12.4582 8.49655L25.7575 21.7959L29.9521 17.6008Z" fill="white"/>
<rect x="1.07031" y="1.00244" width="147.5" height="43" rx="4.5" stroke="white"/>
</svg>
