<svg width="520" height="534" viewBox="0 0 520 534" fill="none" xmlns="http://www.w3.org/2000/svg">
<path d="M242.713 487.243C109.146 487.243 0.869141 378.966 0.869141 245.399C0.869141 111.832 109.146 3.55493 242.713 3.55493C376.28 3.55493 484.557 111.832 484.557 245.399C484.557 378.966 376.28 487.243 242.713 487.243Z" fill="#2CA955"/>
<mask id="mask0_312_147" style="mask-type:alpha" maskUnits="userSpaceOnUse" x="0" y="3" width="485" height="485">
<path d="M242.713 487.243C109.146 487.243 0.869141 378.966 0.869141 245.399C0.869141 111.832 109.146 3.55493 242.713 3.55493C376.28 3.55493 484.557 111.832 484.557 245.399C484.557 378.966 376.28 487.243 242.713 487.243Z" fill="#FFC947"/>
</mask>
<g mask="url(#mask0_312_147)">
<g opacity="0.2">
<path d="M256.644 525.15C111.197 525.15 -6.71191 397.016 -6.71191 238.955C-6.71191 80.8939 111.197 -47.24 256.644 -47.24C402.092 -47.24 520 80.8939 520 238.955C520 397.016 402.092 525.15 256.644 525.15Z" stroke="white" stroke-width="3.03253"/>
<path d="M34.7571 238.955C34.7571 372.125 134.211 480.084 256.896 480.084C379.582 480.084 479.035 372.125 479.035 238.955C479.035 105.785 379.582 -2.17334 256.896 -2.17334C134.211 -2.17334 34.7571 105.785 34.7571 238.955Z" stroke="white" stroke-width="3.03253"/>
<path d="M70.6658 238.955C70.6658 350.882 154.047 441.612 256.898 441.612C359.749 441.612 443.129 350.882 443.129 238.955C443.129 127.029 359.749 36.2981 256.898 36.2981C154.047 36.2981 70.6658 127.029 70.6658 238.955Z" stroke="white" stroke-width="3.03253"/>
<path d="M256.643 411.385C169.292 411.385 98.4795 334.432 98.4795 239.505C98.4795 144.578 169.292 67.625 256.643 67.625C343.994 67.625 414.807 144.578 414.807 239.505C414.807 334.432 343.994 411.385 256.643 411.385Z" stroke="white" stroke-width="3.03253"/>
</g>
</g>
<mask id="mask1_312_147" style="mask-type:alpha" maskUnits="userSpaceOnUse" x="0" y="0" width="540" height="534">
<path fill-rule="evenodd" clip-rule="evenodd" d="M461.856 0.971924C505.014 0.971924 540 40.3709 540 88.9719V445.972C540 494.573 505.014 533.972 461.856 533.972H279.817C249.881 533.972 223.877 515.016 210.753 487.183C94.3965 484.265 0.868896 377.132 0.868896 245.399C0.868896 111.832 97.0187 3.55475 215.626 3.55475C227.857 3.55475 239.849 4.70615 251.521 6.91794C260.295 3.07836 269.837 0.971924 279.817 0.971924H461.856Z" fill="#C4C4C4"/>
</mask>
<g mask="url(#mask1_312_147)">
<g filter="url(#filter0_i_312_147)">
<path d="M429.601 5.03168L10.8957 78.8608C5.23831 79.8583 1.46077 85.2532 2.45832 90.9106L73.7997 495.508C74.7973 501.165 80.1922 504.943 85.8495 503.945L504.555 430.116C510.213 429.119 513.99 423.724 512.992 418.066L441.651 13.469C440.653 7.81167 435.259 4.03413 429.601 5.03168Z" fill="white"/>
<path d="M47.1864 111.518L49.4631 111.116L46.1194 118.674L47.1403 124.465L45.2581 124.796L44.2371 119.006L38.4922 113.051L40.7509 112.653L44.7341 116.793L44.8775 116.768L47.1864 111.518ZM55.3841 123.196C54.0695 123.428 52.8981 123.178 51.8697 122.448C50.8533 121.715 50.2271 120.679 49.9911 119.341C49.7509 117.979 49.9841 116.785 50.6907 115.761C51.3973 114.737 52.4139 114.108 53.7405 113.874C55.067 113.64 56.2444 113.889 57.2728 114.619C58.299 115.338 58.9312 116.372 59.1693 117.723C59.4075 119.073 59.1683 120.267 58.4518 121.306C57.7332 122.332 56.7107 122.962 55.3841 123.196ZM52.9581 121.073C53.5752 121.568 54.2901 121.744 55.1028 121.6C55.9155 121.457 56.532 121.04 56.9525 120.35C57.373 119.66 57.5084 118.89 57.3588 118.042C57.2071 117.181 56.8167 116.505 56.1876 116.012C55.5683 115.505 54.8464 115.324 54.0218 115.47C53.2091 115.613 52.5985 116.029 52.19 116.717C51.7794 117.393 51.6499 118.161 51.8016 119.022C51.9534 119.882 52.3389 120.566 52.9581 121.073ZM68.1948 111.51L69.7753 120.473L68.1261 120.764L67.7572 119.72L67.6317 119.742C67.1577 120.688 66.3591 121.261 65.2357 121.459C64.2199 121.638 63.3524 121.47 62.6334 120.956C61.9122 120.43 61.4515 119.6 61.2513 118.465L60.2714 112.907L62.0999 112.585L63.0103 117.748C63.1493 118.536 63.4399 119.101 63.8821 119.442C64.334 119.769 64.8648 119.879 65.4742 119.772C66.1076 119.66 66.5966 119.358 66.9411 118.866C67.2955 118.36 67.3989 117.689 67.2514 116.852L66.3664 111.833L68.1948 111.51ZM80.3618 118.792C79.2026 118.996 78.2659 118.89 77.5517 118.474C76.8355 118.046 76.3733 117.382 76.1654 116.482L77.9222 116.172C78.2011 117.195 78.9262 117.603 80.0973 117.396C80.5515 117.316 80.9061 117.161 81.1613 116.932C81.4264 116.688 81.5252 116.375 81.4578 115.992C81.3861 115.586 81.176 115.302 80.8273 115.142C80.4906 114.98 80.0277 114.87 79.4387 114.814L78.7079 114.758C78.3445 114.724 78.0348 114.68 77.779 114.626C77.5231 114.573 77.2419 114.48 76.9354 114.35C76.6269 114.207 76.3745 113.999 76.1784 113.725C75.9802 113.44 75.8453 113.094 75.7737 112.688C75.6325 111.887 75.8255 111.2 76.3528 110.626C76.878 110.041 77.5828 109.67 78.4672 109.514C79.5308 109.327 80.3888 109.44 81.0411 109.855C81.7032 110.256 82.1225 110.817 82.2988 111.537L80.542 111.847C80.4289 111.485 80.21 111.222 79.8852 111.057C79.5703 110.878 79.1858 110.829 78.7317 110.909C78.3253 110.981 78.0026 111.143 77.7636 111.394C77.5344 111.632 77.4514 111.93 77.5146 112.288C77.5778 112.647 77.7557 112.887 78.0481 113.008C78.3405 113.128 78.7753 113.218 79.3524 113.277L80.0652 113.336C80.9158 113.408 81.618 113.616 82.1719 113.962C82.7237 114.296 83.0681 114.852 83.2051 115.629C83.3547 116.477 83.1578 117.177 82.6143 117.729C82.0687 118.269 81.3179 118.623 80.3618 118.792ZM92.7421 111.673C92.7569 111.757 92.7797 111.956 92.8106 112.271L86.1778 113.441C86.3689 114.245 86.7418 114.857 87.2964 115.277C87.8489 115.685 88.5135 115.82 89.2903 115.683C90.4973 115.47 91.1631 114.878 91.2877 113.908L93.0445 113.598C93.0113 114.528 92.6875 115.312 92.073 115.95C91.4564 116.576 90.6163 116.983 89.5527 117.171C88.25 117.401 87.1126 117.17 86.1405 116.479C85.1684 115.788 84.5612 114.755 84.3188 113.38C84.066 111.946 84.276 110.726 84.9489 109.721C85.6316 108.701 86.5944 108.081 87.8373 107.862C89.0085 107.655 90.0509 107.872 90.9647 108.512C91.8904 109.15 92.4829 110.203 92.7421 111.673ZM88.0996 109.35C87.4065 109.472 86.8718 109.794 86.4957 110.317C86.1195 110.839 85.9437 111.449 85.9682 112.147L90.8441 111.287C90.71 110.596 90.3898 110.073 89.8837 109.719C89.3755 109.353 88.7808 109.23 88.0996 109.35ZM95.5511 115.928L93.9707 106.965L95.6199 106.674L95.9888 107.718L96.1143 107.696C96.5882 106.75 97.3869 106.178 98.5103 105.98C99.5261 105.801 100.394 105.974 101.116 106.5C101.835 107.014 102.294 107.839 102.495 108.974L103.474 114.531L101.646 114.854L100.736 109.691C100.597 108.902 100.301 108.344 99.8491 108.017C99.407 107.676 98.8812 107.56 98.2717 107.667C97.6383 107.779 97.1444 108.088 96.7901 108.594C96.4455 109.086 96.347 109.75 96.4945 110.587L97.3796 115.606L95.5511 115.928ZM110.076 100.244L111.904 99.9216L114.149 112.649L112.661 112.912L112.288 111.739L112.162 111.761C111.643 112.801 110.78 113.428 109.573 113.641C108.354 113.856 107.28 113.601 106.352 112.878C105.423 112.154 104.836 111.094 104.589 109.695C104.341 108.285 104.537 107.092 105.178 106.117C105.817 105.129 106.734 104.53 107.93 104.319C109.137 104.106 110.134 104.349 110.923 105.048L110.076 100.244ZM109.561 111.998C110.326 111.863 110.886 111.475 111.241 110.833C111.596 110.191 111.691 109.404 111.527 108.472C111.367 107.564 111.004 106.87 110.439 106.39C109.886 105.909 109.233 105.734 108.48 105.867C107.703 106.004 107.125 106.396 106.746 107.042C106.367 107.688 106.258 108.465 106.418 109.373C106.58 110.293 106.951 110.998 107.53 111.487C108.107 111.965 108.784 112.135 109.561 111.998Z" fill="#344054"/>
<g filter="url(#filter1_d_312_147)">
<path d="M410.159 74.469L52.9145 137.461C47.2571 138.458 43.4796 143.853 44.4771 149.511L51.702 190.485C52.6995 196.142 58.0944 199.92 63.7518 198.922L420.996 135.93C426.654 134.933 430.431 129.538 429.434 123.881L422.209 82.9063C421.211 77.249 415.817 73.4714 410.159 74.469Z" fill="white"/>
<path d="M152.422 130.477L64.9643 145.898C62.1356 146.397 60.2469 149.094 60.7456 151.923L66.1643 182.654C66.6631 185.482 69.3605 187.371 72.1892 186.872L159.647 171.451C162.476 170.952 164.365 168.255 163.866 165.426L158.447 134.696C157.948 131.867 155.251 129.978 152.422 130.477Z" fill="#F9FAFB"/>
<path d="M88.7609 176.029C95.8326 174.782 100.555 168.038 99.3076 160.966C98.0607 153.895 91.3171 149.173 84.2454 150.42C77.1737 151.667 72.4518 158.41 73.6987 165.482C74.9456 172.554 81.6892 177.276 88.7609 176.029Z" fill="#F0F0F0"/>
<path d="M73.6982 165.482C74.6689 170.988 78.9713 175.068 84.1663 176.018L79.9316 152.002C75.3746 154.671 72.7274 159.977 73.6982 165.482Z" fill="#6DA544"/>
<path d="M99.3075 160.967C98.3367 155.461 94.0343 151.38 88.8394 150.431L93.0741 174.447C97.631 171.778 100.278 166.472 99.3075 160.967Z" fill="#6DA544"/>
<path d="M118.629 151.729L120.224 151.448L122.437 163.996L120.68 164.306L112.321 155.688L112.196 155.71L113.922 165.498L112.326 165.779L110.114 153.23L111.888 152.918L120.229 161.539L120.354 161.517L118.629 151.729ZM129.969 155.94L135.311 154.998L136.461 161.523L135.171 161.751L134.717 160.333L134.592 160.356C133.804 161.616 132.579 162.393 130.918 162.685C129.173 162.993 127.671 162.654 126.413 161.668C125.167 160.68 124.382 159.266 124.057 157.426C123.722 155.526 124.012 153.848 124.926 152.393C125.85 150.924 127.22 150.029 129.036 149.709C130.423 149.465 131.625 149.61 132.644 150.145C133.674 150.678 134.395 151.481 134.806 152.555L133.049 152.865C132.714 152.221 132.218 151.748 131.56 151.445C130.915 151.14 130.162 151.063 129.302 151.215C127.951 151.453 126.948 152.123 126.292 153.224C125.636 154.326 125.44 155.623 125.703 157.117C125.952 158.527 126.539 159.619 127.464 160.393C128.399 161.152 129.523 161.416 130.838 161.184C131.902 160.996 132.751 160.575 133.388 159.921C134.022 159.255 134.253 158.432 134.08 157.452L133.928 156.591L130.199 157.249L129.969 155.94ZM145.938 146.914L147.534 146.632L149.746 159.181L147.989 159.49L139.631 150.872L139.505 150.894L141.231 160.682L139.636 160.963L137.423 148.415L139.198 148.102L147.538 156.723L147.664 156.701L145.938 146.914Z" fill="#667085"/>
<path d="M176.723 155.439L175.076 146.097L172.494 146.552L172.234 145.077L173.443 144.864C173.976 144.77 174.34 144.558 174.535 144.228C174.741 143.882 174.802 143.47 174.718 142.992L174.595 142.295L176.255 142.002L178.567 155.114L176.723 155.439ZM185.057 145.309C186.286 145.092 187.354 145.319 188.261 145.99C189.168 146.661 189.731 147.618 189.95 148.861C190.181 150.172 189.936 151.3 189.216 152.244C188.492 153.174 187.462 153.757 186.123 153.993C184.853 154.217 183.766 154.043 182.862 153.47C181.972 152.894 181.388 152.018 181.11 150.842L182.852 150.535C183.055 151.288 183.427 151.842 183.969 152.197C184.508 152.539 185.146 152.644 185.883 152.514C186.703 152.37 187.321 152 187.737 151.406C188.153 150.812 188.286 150.084 188.134 149.224C187.985 148.377 187.616 147.724 187.028 147.264C186.451 146.788 185.767 146.62 184.974 146.76C183.814 146.965 183.044 147.593 182.666 148.646L181.007 148.579L180.436 141.265L187.77 139.972L188.041 141.509L182.284 142.524L182.556 146.701C183.144 145.963 183.978 145.499 185.057 145.309ZM198.02 151.895C196.545 152.155 195.263 151.797 194.176 150.82C193.099 149.827 192.364 148.21 191.969 145.97C191.578 143.758 191.719 142.001 192.391 140.699C193.077 139.395 194.157 138.613 195.632 138.353C197.107 138.093 198.377 138.468 199.442 139.477C200.519 140.47 201.253 142.08 201.646 144.306C202.038 146.532 201.897 148.289 201.223 149.577C200.549 150.865 199.481 151.638 198.02 151.895ZM197.742 150.318C198.616 150.164 199.243 149.609 199.624 148.655C200.016 147.685 200.061 146.339 199.757 144.618C199.454 142.897 198.952 141.648 198.251 140.87C197.551 140.092 196.764 139.78 195.89 139.935C195.015 140.089 194.382 140.651 193.99 141.621C193.609 142.576 193.572 143.92 193.877 145.655C194.183 147.389 194.678 148.64 195.363 149.407C196.061 150.171 196.854 150.474 197.742 150.318ZM206.117 147.891C206.526 147.818 206.867 147.913 207.138 148.175C207.424 148.435 207.608 148.803 207.693 149.281C207.936 150.661 207.456 151.893 206.253 152.979L205.629 152.434C206.283 151.671 206.559 150.96 206.457 150.302C206.162 150.382 205.88 150.34 205.611 150.177C205.341 149.999 205.173 149.726 205.108 149.357C205.043 148.988 205.106 148.667 205.297 148.394C205.488 148.121 205.761 147.953 206.117 147.891ZM215.106 148.883C213.631 149.143 212.349 148.784 211.262 147.807C210.185 146.814 209.449 145.198 209.054 142.958C208.664 140.745 208.805 138.988 209.477 137.687C210.162 136.383 211.243 135.601 212.718 135.341C214.193 135.081 215.463 135.455 216.528 136.464C217.605 137.458 218.339 139.067 218.732 141.293C219.124 143.52 218.983 145.277 218.309 146.565C217.635 147.852 216.567 148.625 215.106 148.883ZM214.828 147.305C215.702 147.151 216.329 146.597 216.71 145.642C217.102 144.672 217.147 143.326 216.843 141.605C216.54 139.884 216.038 138.635 215.337 137.857C214.637 137.08 213.85 136.768 212.976 136.922C212.101 137.076 211.468 137.638 211.076 138.609C210.695 139.563 210.658 140.908 210.963 142.642C211.269 144.377 211.764 145.627 212.449 146.394C213.147 147.158 213.94 147.462 214.828 147.305ZM227.53 146.692C226.055 146.952 224.774 146.594 223.686 145.616C222.609 144.623 221.874 143.007 221.479 140.767C221.089 138.554 221.23 136.797 221.901 135.496C222.587 134.192 223.667 133.41 225.142 133.15C226.617 132.89 227.887 133.264 228.953 134.274C230.029 135.267 230.763 136.876 231.156 139.103C231.549 141.329 231.408 143.086 230.733 144.374C230.059 145.662 228.991 146.434 227.53 146.692ZM227.252 145.114C228.126 144.96 228.753 144.406 229.134 143.452C229.527 142.481 229.571 141.136 229.268 139.415C228.964 137.694 228.462 136.444 227.762 135.667C227.061 134.889 226.274 134.577 225.4 134.731C224.526 134.885 223.893 135.447 223.5 136.418C223.119 137.372 223.082 138.717 223.388 140.451C223.694 142.186 224.189 143.437 224.873 144.203C225.571 144.967 226.364 145.271 227.252 145.114ZM239.954 144.501C238.479 144.761 237.198 144.403 236.11 143.426C235.034 142.433 234.298 140.816 233.903 138.576C233.513 136.363 233.654 134.606 234.326 133.305C235.011 132.001 236.091 131.219 237.566 130.959C239.042 130.699 240.312 131.074 241.377 132.083C242.453 133.076 243.188 134.686 243.58 136.912C243.973 139.138 243.832 140.895 243.158 142.183C242.484 143.471 241.416 144.244 239.954 144.501ZM239.676 142.924C240.55 142.77 241.178 142.215 241.559 141.261C241.951 140.29 241.995 138.945 241.692 137.224C241.388 135.503 240.886 134.254 240.186 133.476C239.486 132.698 238.698 132.386 237.824 132.54C236.95 132.694 236.317 133.257 235.925 134.227C235.544 135.182 235.506 136.526 235.812 138.261C236.118 139.995 236.613 141.246 237.297 142.012C237.995 142.776 238.788 143.08 239.676 142.924Z" fill="#121926"/>
<path d="M410.271 75.1091L53.0274 138.101C47.7236 139.036 44.1822 144.094 45.1174 149.398L52.3423 190.372C53.2775 195.676 58.3352 199.217 63.6389 198.282L420.883 135.29C426.187 134.355 429.728 129.297 428.793 123.993L421.568 83.0191C420.633 77.7153 415.575 74.1739 410.271 75.1091Z" stroke="#D0D5DD" stroke-width="1.3002"/>
</g>
<path d="M120.082 226.835C120.144 227.188 120.481 227.424 120.835 227.362C121.188 227.3 121.424 226.962 121.362 226.609L120.082 226.835ZM120.76 223.194C120.698 222.841 120.361 222.605 120.007 222.667C119.653 222.729 119.417 223.067 119.48 223.42L120.76 223.194ZM119.405 219.253C119.051 219.315 118.815 219.652 118.878 220.006C118.94 220.359 119.277 220.595 119.631 220.533L119.405 219.253ZM119.639 220.531C119.993 220.469 120.229 220.132 120.167 219.778C120.104 219.425 119.767 219.189 119.413 219.251L119.639 220.531ZM128.016 221.915C128.785 226.276 125.873 230.434 121.512 231.203L121.738 232.484C126.806 231.59 130.19 226.757 129.296 221.689L128.016 221.915ZM121.512 231.203C117.151 231.972 112.993 229.06 112.224 224.7L110.943 224.925C111.837 229.993 116.67 233.377 121.738 232.484L121.512 231.203ZM112.224 224.7C111.455 220.339 114.367 216.18 118.728 215.411L118.502 214.131C113.434 215.024 110.05 219.857 110.943 224.925L112.224 224.7ZM118.728 215.411C123.088 214.642 127.247 217.554 128.016 221.915L129.296 221.689C128.403 216.621 123.57 213.237 118.502 214.131L118.728 215.411ZM121.362 226.609L120.76 223.194L119.48 223.42L120.082 226.835L121.362 226.609ZM119.631 220.533L119.639 220.531L119.413 219.251L119.405 219.253L119.631 220.533Z" fill="#667085"/>
<path d="M140.143 226.885L138.701 218.71L136.443 219.109L136.215 217.818L137.273 217.631C137.739 217.549 138.057 217.364 138.228 217.075C138.409 216.772 138.462 216.411 138.389 215.993L138.281 215.383L139.733 215.127L141.756 226.6L140.143 226.885ZM157.231 210.933L158.609 218.749C158.887 220.326 158.659 221.617 157.924 222.622C157.189 223.626 156.093 224.257 154.635 224.514C153.165 224.773 151.907 224.558 150.861 223.867C149.815 223.177 149.153 222.043 148.875 220.465L147.497 212.649L149.128 212.362L150.487 220.07C150.687 221.205 151.14 222.025 151.845 222.529C152.56 223.019 153.401 223.179 154.369 223.008C155.337 222.838 156.062 222.402 156.542 221.701C157.02 220.988 157.159 220.064 156.959 218.929L155.599 211.221L157.231 210.933ZM169.855 218.263C170.053 219.387 169.816 220.315 169.145 221.05C168.483 221.77 167.567 222.234 166.396 222.44C165.081 222.672 163.983 222.527 163.102 222.004C162.232 221.468 161.65 220.616 161.358 219.447L162.953 219.166C163.182 219.902 163.571 220.431 164.12 220.753C164.67 221.075 165.345 221.165 166.146 221.024C166.851 220.9 167.401 220.63 167.796 220.216C168.191 219.801 168.33 219.259 168.212 218.59C168.144 218.207 168.009 217.892 167.805 217.645C167.611 217.383 167.348 217.183 167.015 217.045C166.695 216.904 166.406 216.807 166.151 216.754C165.895 216.7 165.565 216.647 165.162 216.595L164.503 216.527C164.061 216.469 163.672 216.396 163.336 216.307C163.012 216.217 162.655 216.076 162.264 215.886C161.871 215.685 161.544 215.403 161.283 215.043C161.021 214.67 160.844 214.227 160.753 213.713C160.568 212.661 160.796 211.752 161.437 210.986C162.078 210.22 162.978 209.735 164.138 209.53C165.309 209.324 166.318 209.491 167.165 210.032C168.022 210.558 168.572 211.336 168.815 212.365L167.201 212.65C167.018 212.029 166.682 211.558 166.195 211.238C165.719 210.915 165.116 210.818 164.387 210.947C163.694 211.069 163.153 211.355 162.764 211.806C162.388 212.254 162.251 212.771 162.354 213.357C162.394 213.584 162.461 213.788 162.554 213.968C162.658 214.135 162.794 214.277 162.962 214.395C163.143 214.512 163.301 214.607 163.438 214.681C163.574 214.756 163.776 214.819 164.044 214.87C164.312 214.922 164.504 214.962 164.62 214.99C164.734 215.007 164.935 215.033 165.225 215.069L165.812 215.15C166.14 215.191 166.413 215.235 166.631 215.283C166.86 215.329 167.174 215.427 167.57 215.579C167.976 215.717 168.308 215.887 168.565 216.088C168.835 216.287 169.096 216.579 169.349 216.966C169.6 217.341 169.768 217.773 169.855 218.263ZM174.932 207.812C176.88 207.468 178.468 207.774 179.696 208.728C180.922 209.67 181.704 211.103 182.044 213.027C182.379 214.927 182.134 216.542 181.308 217.87C180.492 219.185 179.105 220.015 177.145 220.36L173.273 221.043L171.06 208.495L174.932 207.812ZM176.796 218.906C178.326 218.636 179.366 218.003 179.917 217.006C180.478 215.996 180.629 214.755 180.37 213.285C180.113 211.827 179.55 210.731 178.681 209.997C177.825 209.261 176.631 209.028 175.102 209.298L172.951 209.677L174.645 219.285L176.796 218.906ZM188.836 210.388L196.723 208.997L196.96 210.342L189.073 211.732L188.836 210.388ZM189.534 214.35L197.422 212.959L197.656 214.285L189.768 215.676L189.534 214.35ZM207.988 207.343C209.064 207.154 209.998 207.352 210.792 207.94C211.586 208.527 212.078 209.364 212.27 210.451C212.472 211.599 212.258 212.585 211.627 213.411C210.995 214.225 210.093 214.735 208.921 214.942C207.81 215.138 206.859 214.985 206.068 214.484C205.289 213.98 204.778 213.214 204.535 212.185L206.059 211.916C206.237 212.575 206.563 213.06 207.036 213.371C207.508 213.669 208.066 213.762 208.712 213.648C209.429 213.522 209.969 213.198 210.334 212.678C210.698 212.158 210.814 211.522 210.681 210.769C210.55 210.028 210.228 209.456 209.713 209.054C209.208 208.638 208.61 208.491 207.916 208.613C206.901 208.792 206.227 209.342 205.897 210.263L204.445 210.205L203.945 203.805L210.362 202.674L210.6 204.018L205.562 204.906L205.8 208.561C206.315 207.916 207.044 207.51 207.988 207.343ZM219.858 206.563C220.458 206.679 221 206.959 221.485 207.403C221.982 207.846 222.296 208.437 222.427 209.178C222.597 210.146 222.378 210.998 221.768 211.734C221.159 212.47 220.262 212.942 219.079 213.151C217.884 213.362 216.868 213.226 216.032 212.746C215.205 212.251 214.707 211.519 214.536 210.551C214.405 209.81 214.492 209.148 214.796 208.564C215.111 207.979 215.532 207.535 216.058 207.233L216.042 207.143C214.872 206.869 214.184 206.146 213.978 204.975C213.816 204.055 214.021 203.261 214.593 202.593C215.163 201.913 215.962 201.483 216.99 201.302C218.006 201.123 218.891 201.25 219.645 201.684C220.411 202.115 220.875 202.791 221.038 203.712C221.147 204.333 221.083 204.88 220.846 205.353C220.607 205.815 220.273 206.188 219.842 206.473L219.858 206.563ZM217.198 202.485C216.625 202.586 216.183 202.842 215.874 203.254C215.562 203.654 215.458 204.147 215.562 204.733C215.663 205.306 215.934 205.727 216.375 205.994C216.817 206.261 217.313 206.346 217.862 206.249C218.4 206.154 218.825 205.907 219.136 205.507C219.46 205.105 219.571 204.617 219.47 204.044C219.366 203.458 219.1 203.031 218.67 202.761C218.251 202.478 217.76 202.386 217.198 202.485ZM218.861 211.914C219.506 211.8 220.01 211.514 220.373 211.056C220.746 210.584 220.876 210.031 220.765 209.397C220.651 208.752 220.348 208.257 219.856 207.912C219.376 207.566 218.777 207.456 218.06 207.582C217.343 207.709 216.818 208.017 216.486 208.507C216.153 208.997 216.041 209.546 216.148 210.156C216.264 210.813 216.578 211.3 217.09 211.616C217.613 211.931 218.204 212.03 218.861 211.914ZM229.537 211.307C228.246 211.534 227.125 211.221 226.173 210.366C225.232 209.497 224.588 208.082 224.242 206.122C223.901 204.186 224.024 202.649 224.612 201.51C225.212 200.369 226.157 199.685 227.448 199.458C228.738 199.23 229.85 199.558 230.782 200.441C231.724 201.31 232.366 202.718 232.71 204.666C233.053 206.614 232.93 208.152 232.34 209.278C231.75 210.405 230.816 211.081 229.537 211.307ZM229.294 209.927C230.059 209.792 230.608 209.307 230.941 208.472C231.284 207.622 231.323 206.445 231.057 204.939C230.792 203.433 230.353 202.34 229.74 201.66C229.127 200.979 228.438 200.706 227.673 200.841C226.908 200.976 226.354 201.468 226.011 202.317C225.678 203.152 225.645 204.329 225.913 205.846C226.18 207.364 226.613 208.458 227.212 209.129C227.823 209.798 228.517 210.064 229.294 209.927ZM247.586 195.001L249.182 194.72L251.394 207.268L249.637 207.578L241.279 198.96L241.153 198.982L242.879 208.769L241.284 209.051L239.071 196.502L240.846 196.189L249.187 204.811L249.312 204.789L247.586 195.001ZM258.926 199.212L264.268 198.27L265.419 204.795L264.128 205.023L263.675 203.605L263.549 203.628C262.761 204.888 261.537 205.665 259.875 205.957C258.131 206.265 256.629 205.926 255.371 204.94C254.125 203.952 253.339 202.538 253.015 200.698C252.68 198.798 252.969 197.12 253.883 195.665C254.807 194.196 256.177 193.301 257.994 192.981C259.38 192.737 260.583 192.882 261.601 193.417C262.632 193.95 263.352 194.753 263.764 195.827L262.007 196.136C261.672 195.493 261.175 195.02 260.518 194.717C259.873 194.412 259.12 194.335 258.259 194.487C256.909 194.725 255.906 195.395 255.25 196.496C254.594 197.598 254.397 198.895 254.661 200.389C254.909 201.799 255.496 202.891 256.421 203.665C257.356 204.424 258.481 204.688 259.795 204.456C260.859 204.268 261.709 203.847 262.345 203.193C262.979 202.527 263.21 201.703 263.037 200.724L262.886 199.863L259.157 200.521L258.926 199.212ZM274.896 190.186L276.491 189.904L278.704 202.453L276.947 202.762L268.588 194.144L268.463 194.166L270.189 203.954L268.593 204.235L266.381 191.687L268.155 191.374L276.496 199.995L276.622 199.973L274.896 190.186Z" fill="#667085"/>
<path d="M126.403 262.683C126.465 263.037 126.802 263.273 127.156 263.211C127.51 263.148 127.746 262.811 127.683 262.458L126.403 262.683ZM127.081 259.043C127.019 258.689 126.682 258.453 126.328 258.516C125.975 258.578 125.738 258.915 125.801 259.269L127.081 259.043ZM125.726 255.101C125.372 255.163 125.136 255.501 125.199 255.854C125.261 256.208 125.598 256.444 125.952 256.382L125.726 255.101ZM125.96 256.38C126.314 256.318 126.55 255.981 126.488 255.627C126.425 255.273 126.088 255.037 125.735 255.1L125.96 256.38ZM134.337 257.764C135.106 262.124 132.194 266.283 127.833 267.052L128.059 268.332C133.127 267.439 136.511 262.606 135.618 257.538L134.337 257.764ZM127.833 267.052C123.472 267.821 119.314 264.909 118.545 260.548L117.264 260.774C118.158 265.842 122.991 269.226 128.059 268.332L127.833 267.052ZM118.545 260.548C117.776 256.187 120.688 252.029 125.049 251.26L124.823 249.979C119.755 250.873 116.371 255.706 117.264 260.774L118.545 260.548ZM125.049 251.26C129.41 250.491 133.568 253.403 134.337 257.764L135.618 257.538C134.724 252.47 129.891 249.086 124.823 249.979L125.049 251.26ZM127.683 262.458L127.081 259.043L125.801 259.269L126.403 262.683L127.683 262.458ZM125.952 256.382L125.96 256.38L125.735 255.1L125.726 255.101L125.952 256.382Z" fill="#667085"/>
<path d="M150.325 250.667L144.266 251.735L144.996 255.876L150.284 254.943L150.537 256.378L145.249 257.31L146.213 262.778L144.582 263.065L142.369 250.517L150.059 249.161L150.325 250.667ZM160.92 255.379C160.935 255.462 160.956 255.65 160.982 255.941L154.296 257.12C154.502 258.007 154.898 258.683 155.485 259.146C156.084 259.608 156.796 259.766 157.62 259.62C158.206 259.517 158.68 259.304 159.042 258.981C159.414 258.645 159.634 258.218 159.703 257.7L161.227 257.432C161.191 258.35 160.87 259.115 160.264 259.727C159.657 260.339 158.852 260.734 157.848 260.911C156.569 261.136 155.45 260.902 154.489 260.209C153.529 259.516 152.928 258.482 152.686 257.108C152.435 255.686 152.639 254.467 153.298 253.451C153.957 252.435 154.901 251.819 156.132 251.602C157.28 251.4 158.298 251.62 159.188 252.264C160.09 252.906 160.667 253.944 160.92 255.379ZM158.261 253.297C157.723 252.899 157.089 252.764 156.36 252.893C155.631 253.021 155.06 253.381 154.646 253.971C154.243 254.547 154.064 255.213 154.111 255.969L159.292 255.056C159.143 254.281 158.799 253.695 158.261 253.297ZM170.899 253.619C170.913 253.703 170.934 253.89 170.961 254.181L164.274 255.36C164.48 256.248 164.876 256.924 165.463 257.387C166.062 257.848 166.774 258.006 167.599 257.861C168.184 257.757 168.658 257.545 169.02 257.222C169.392 256.885 169.612 256.458 169.681 255.941L171.205 255.672C171.17 256.59 170.849 257.355 170.242 257.968C169.635 258.58 168.83 258.974 167.826 259.151C166.547 259.377 165.428 259.143 164.468 258.45C163.508 257.756 162.906 256.723 162.664 255.348C162.413 253.926 162.617 252.707 163.276 251.692C163.935 250.676 164.88 250.059 166.111 249.842C167.258 249.64 168.277 249.861 169.167 250.505C170.068 251.147 170.646 252.185 170.899 253.619ZM168.24 251.537C167.701 251.139 167.067 251.005 166.338 251.133C165.609 251.262 165.038 251.621 164.625 252.212C164.221 252.788 164.043 253.454 164.09 254.21L169.271 253.296C169.122 252.521 168.778 251.935 168.24 251.537ZM177.195 249.404L185.083 248.013L185.32 249.357L177.433 250.748L177.195 249.404ZM177.894 253.365L185.782 251.974L186.015 253.301L178.128 254.692L177.894 253.365ZM200.146 240.329L201.742 240.048L203.954 252.596L202.197 252.906L193.839 244.288L193.713 244.31L195.439 254.098L193.844 254.379L191.631 241.831L193.406 241.518L201.746 250.139L201.872 250.117L200.146 240.329ZM211.486 244.54L216.828 243.598L217.979 250.123L216.688 250.351L216.235 248.934L216.109 248.956C215.321 250.216 214.096 250.993 212.435 251.286C210.691 251.593 209.189 251.254 207.931 250.268C206.685 249.281 205.899 247.866 205.575 246.026C205.24 244.126 205.529 242.448 206.443 240.993C207.367 239.524 208.737 238.629 210.554 238.309C211.94 238.065 213.143 238.21 214.161 238.745C215.192 239.278 215.912 240.081 216.323 241.155L214.567 241.465C214.231 240.821 213.735 240.348 213.078 240.045C212.433 239.74 211.68 239.663 210.819 239.815C209.469 240.053 208.466 240.723 207.81 241.824C207.154 242.926 206.957 244.223 207.221 245.717C207.469 247.128 208.056 248.219 208.981 248.993C209.916 249.752 211.041 250.016 212.355 249.784C213.419 249.596 214.269 249.176 214.905 248.521C215.539 247.855 215.77 247.032 215.597 246.052L215.446 245.191L211.717 245.849L211.486 244.54ZM227.456 235.514L229.051 235.232L231.264 247.781L229.507 248.091L221.148 239.472L221.023 239.495L222.749 249.282L221.153 249.564L218.941 237.015L220.715 236.702L229.056 245.324L229.181 245.301L227.456 235.514ZM246.517 241.117L246.735 242.354L244.745 242.705L245.207 245.322L243.701 245.588L243.24 242.971L237.916 243.909L237.776 243.121L241.517 234.143L243.184 233.849L244.527 241.468L246.517 241.117ZM239.544 242.347L243.022 241.734L242.057 236.266L241.932 236.288L239.544 242.347ZM253.294 244.081C252.004 244.309 250.882 243.995 249.931 243.14C248.989 242.271 248.345 240.857 248 238.897C247.658 236.961 247.781 235.423 248.369 234.284C248.969 233.144 249.914 232.459 251.205 232.232C252.496 232.004 253.607 232.332 254.539 233.215C255.481 234.084 256.124 235.493 256.467 237.441C256.811 239.389 256.687 240.926 256.097 242.053C255.507 243.179 254.573 243.856 253.294 244.081ZM253.051 242.701C253.816 242.566 254.365 242.081 254.698 241.246C255.041 240.397 255.08 239.219 254.815 237.713C254.549 236.208 254.11 235.114 253.497 234.434C252.884 233.753 252.195 233.48 251.43 233.615C250.666 233.75 250.112 234.242 249.768 235.091C249.435 235.926 249.402 237.103 249.67 238.621C249.937 240.138 250.371 241.233 250.97 241.903C251.58 242.572 252.274 242.838 253.051 242.701ZM264.166 242.164C262.875 242.392 261.754 242.078 260.802 241.223C259.86 240.354 259.216 238.94 258.871 236.98C258.529 235.044 258.653 233.506 259.24 232.368C259.84 231.227 260.786 230.542 262.076 230.315C263.367 230.087 264.478 230.415 265.41 231.298C266.352 232.167 266.995 233.576 267.338 235.524C267.682 237.472 267.559 239.009 266.969 240.136C266.379 241.263 265.444 241.939 264.166 242.164ZM263.922 240.784C264.687 240.649 265.236 240.164 265.569 239.329C265.913 238.48 265.951 237.302 265.686 235.796C265.42 234.291 264.981 233.198 264.368 232.517C263.755 231.836 263.067 231.564 262.302 231.698C261.537 231.833 260.983 232.325 260.64 233.174C260.306 234.009 260.273 235.186 260.541 236.704C260.809 238.221 261.242 239.316 261.841 239.986C262.452 240.655 263.145 240.921 263.922 240.784Z" fill="#667085"/>
<path d="M132.724 298.532C132.786 298.885 133.123 299.121 133.477 299.059C133.831 298.997 134.067 298.659 134.004 298.306L132.724 298.532ZM133.402 294.891C133.34 294.538 133.003 294.302 132.649 294.364C132.296 294.426 132.059 294.764 132.122 295.117L133.402 294.891ZM132.047 290.95C131.694 291.012 131.457 291.349 131.52 291.703C131.582 292.056 131.919 292.292 132.273 292.23L132.047 290.95ZM132.281 292.228C132.635 292.166 132.871 291.829 132.809 291.475C132.746 291.122 132.409 290.886 132.056 290.948L132.281 292.228ZM140.658 293.612C141.427 297.973 138.515 302.131 134.154 302.9L134.38 304.181C139.448 303.287 142.832 298.454 141.939 293.386L140.658 293.612ZM134.154 302.9C129.793 303.669 125.635 300.757 124.866 296.397L123.586 296.622C124.479 301.69 129.312 305.074 134.38 304.181L134.154 302.9ZM124.866 296.397C124.097 292.036 127.009 287.877 131.37 287.108L131.144 285.828C126.076 286.721 122.692 291.554 123.586 296.622L124.866 296.397ZM131.37 287.108C135.731 286.339 139.889 289.251 140.658 293.612L141.939 293.386C141.045 288.318 136.212 284.934 131.144 285.828L131.37 287.108ZM134.004 298.306L133.402 294.891L132.122 295.117L132.724 298.532L134.004 298.306ZM132.273 292.23L132.281 292.228L132.056 290.948L132.047 290.95L132.273 292.23Z" fill="#667085"/>
<path d="M158.826 297.516L157.075 294.295L152.091 295.174L151.548 298.8L149.809 299.106L151.97 285.787L153.978 285.433L160.565 297.21L158.826 297.516ZM152.311 293.693L156.344 292.982L153.366 287.518L153.241 287.541L152.311 293.693ZM162.274 296.908L160.694 287.945L162.11 287.696L162.443 288.746L162.569 288.724C162.995 287.786 163.728 287.226 164.767 287.042C165.951 286.834 166.856 287.216 167.484 288.19L167.591 288.171C167.991 287.016 168.819 286.328 170.074 286.107C170.958 285.951 171.716 286.094 172.349 286.537C172.982 286.98 173.388 287.709 173.567 288.725L174.626 294.731L173.048 295.009L172.043 289.308C171.925 288.639 171.662 288.162 171.254 287.876C170.845 287.579 170.383 287.475 169.869 287.566C169.271 287.671 168.825 287.972 168.531 288.467C168.234 288.951 168.146 289.533 168.266 290.215L169.23 295.682L167.652 295.96L166.669 290.385C166.545 289.68 166.277 289.173 165.865 288.863C165.463 288.54 164.999 288.425 164.473 288.517C163.947 288.61 163.516 288.889 163.179 289.355C162.84 289.81 162.735 290.401 162.864 291.13L163.834 296.633L162.274 296.908ZM181.188 293.758C179.897 293.986 178.744 293.733 177.727 293.001C176.721 292.254 176.1 291.217 175.867 289.891C175.628 288.54 175.857 287.354 176.551 286.332C177.244 285.298 178.242 284.666 179.544 284.437C180.835 284.209 181.988 284.462 183.005 285.194C184.021 285.927 184.647 286.962 184.883 288.301C185.119 289.639 184.885 290.827 184.181 291.863C183.488 292.897 182.491 293.529 181.188 293.758ZM178.662 291.801C179.323 292.337 180.084 292.53 180.945 292.378C181.805 292.226 182.454 291.785 182.892 291.055C183.34 290.311 183.484 289.484 183.324 288.576C183.162 287.656 182.744 286.928 182.07 286.394C181.409 285.858 180.648 285.665 179.788 285.817C178.915 285.971 178.266 286.412 177.84 287.14C177.414 287.868 177.282 288.692 177.444 289.613C177.604 290.521 178.01 291.25 178.662 291.801ZM193.66 282.133L195.24 291.096L193.824 291.345L193.491 290.295L193.365 290.317C192.903 291.261 192.111 291.832 190.987 292.03C190.007 292.203 189.165 292.038 188.46 291.533C187.755 291.029 187.303 290.215 187.105 289.092L186.113 283.463L187.672 283.188L188.605 288.477C188.75 289.301 189.051 289.889 189.507 290.24C189.973 290.576 190.517 290.69 191.138 290.581C191.808 290.463 192.324 290.143 192.689 289.623C193.051 289.091 193.155 288.389 193.001 287.517L192.1 282.408L193.66 282.133ZM197.707 290.661L196.126 281.698L197.542 281.448L197.875 282.498L198.001 282.476C198.463 281.532 199.256 280.961 200.379 280.763C201.359 280.59 202.201 280.756 202.906 281.26C203.611 281.764 204.063 282.578 204.261 283.701L205.254 289.33L203.694 289.605L202.762 284.317C202.616 283.492 202.31 282.911 201.844 282.575C201.388 282.224 200.849 282.103 200.228 282.213C199.571 282.329 199.055 282.654 198.681 283.188C198.317 283.708 198.212 284.404 198.365 285.277L199.266 290.386L197.707 290.661ZM210.788 288.539C209.939 288.689 209.305 288.585 208.884 288.228C208.474 287.857 208.214 287.36 208.104 286.739L207.105 281.074L205.205 281.409L204.981 280.136L205.59 280.029C206.116 279.936 206.47 279.775 206.651 279.546C206.83 279.305 206.877 278.939 206.791 278.449L206.595 277.338L208.029 277.085L208.459 279.523L210.699 279.128L210.924 280.401L208.683 280.796L209.644 286.245C209.777 286.998 210.219 287.308 210.972 287.176C211.259 287.125 211.55 287.025 211.843 286.874L212.061 288.111C211.607 288.327 211.182 288.47 210.788 288.539ZM220.094 286.713L216.255 278.148L217.743 277.886L220.671 284.745L220.797 284.722L221.586 277.874L223.324 277.567L226.39 283.736L226.515 283.714L226.939 276.264L228.427 276.002L227.713 285.37L225.885 285.692L222.824 279.448L222.699 279.47L221.905 286.394L220.094 286.713ZM238.473 278.667C238.488 278.75 238.509 278.938 238.535 279.229L231.849 280.408C232.055 281.296 232.451 281.971 233.038 282.435C233.637 282.896 234.349 283.054 235.173 282.908C235.759 282.805 236.233 282.592 236.595 282.27C236.967 281.933 237.187 281.506 237.256 280.989L238.78 280.72C238.745 281.638 238.424 282.403 237.817 283.015C237.21 283.627 236.405 284.022 235.401 284.199C234.122 284.425 233.003 284.191 232.043 283.497C231.082 282.804 230.481 281.77 230.239 280.396C229.988 278.974 230.192 277.755 230.851 276.739C231.51 275.724 232.455 275.107 233.686 274.89C234.833 274.688 235.851 274.909 236.741 275.553C237.643 276.195 238.22 277.233 238.473 278.667ZM235.814 276.585C235.276 276.187 234.642 276.052 233.913 276.181C233.184 276.309 232.613 276.669 232.199 277.259C231.796 277.836 231.618 278.502 231.665 279.257L236.845 278.344C236.696 277.569 236.353 276.983 235.814 276.585ZM239.596 270.151C239.943 270.09 240.235 270.174 240.473 270.403C240.71 270.632 240.865 270.95 240.936 271.357C241.147 272.552 240.748 273.608 239.739 274.525L239.196 274.066C239.749 273.427 239.979 272.813 239.888 272.225C239.641 272.293 239.401 272.256 239.166 272.112C238.943 271.967 238.803 271.733 238.746 271.41C238.689 271.087 238.74 270.814 238.897 270.589C239.064 270.35 239.298 270.204 239.596 270.151ZM245.096 282.305L242.851 269.577L244.411 269.302L246.655 282.03L245.096 282.305ZM249.087 281.601L246.843 268.873L248.402 268.598L250.647 281.326L249.087 281.601ZM262.422 266.126L263.982 265.851L266.226 278.579L264.936 278.806L264.568 277.559L264.46 277.578C263.938 278.668 263.061 279.322 261.83 279.539C260.623 279.752 259.555 279.496 258.627 278.773C257.708 278.035 257.126 276.973 256.882 275.587C256.636 274.189 256.82 272.998 257.435 272.015C258.062 271.029 258.979 270.43 260.186 270.217C261.453 269.994 262.489 270.279 263.295 271.074L262.422 266.126ZM261.784 278.124C262.585 277.983 263.177 277.57 263.562 276.886C263.944 276.19 264.048 275.346 263.873 274.354C263.703 273.386 263.32 272.647 262.724 272.136C262.127 271.613 261.428 271.422 260.627 271.563C259.814 271.706 259.205 272.128 258.798 272.828C258.39 273.516 258.271 274.344 258.442 275.312C258.614 276.292 259.012 277.042 259.633 277.56C260.254 278.079 260.971 278.267 261.784 278.124ZM275.744 272.095C275.759 272.179 275.779 272.366 275.806 272.657L269.119 273.836C269.325 274.724 269.722 275.4 270.309 275.863C270.907 276.324 271.619 276.482 272.444 276.337C273.029 276.233 273.503 276.02 273.865 275.698C274.237 275.361 274.458 274.934 274.527 274.417L276.05 274.148C276.015 275.066 275.694 275.831 275.087 276.443C274.481 277.056 273.675 277.45 272.671 277.627C271.393 277.853 270.273 277.619 269.313 276.926C268.353 276.232 267.752 275.199 267.509 273.824C267.259 272.402 267.463 271.183 268.121 270.167C268.78 269.152 269.725 268.535 270.956 268.318C272.103 268.116 273.122 268.337 274.012 268.981C274.914 269.623 275.491 270.661 275.744 272.095ZM273.085 270.013C272.546 269.615 271.913 269.48 271.184 269.609C270.455 269.738 269.883 270.097 269.47 270.687C269.066 271.264 268.888 271.93 268.935 272.686L274.116 271.772C273.967 270.997 273.623 270.411 273.085 270.013ZM281.541 266.452C282.748 266.239 283.808 266.49 284.723 267.203C285.649 267.915 286.236 268.97 286.482 270.368C286.727 271.754 286.538 272.952 285.915 273.961C285.301 274.957 284.391 275.561 283.184 275.774C281.953 275.991 280.906 275.676 280.042 274.83L279.935 274.849L280.016 276.147L278.725 276.375L276.481 263.647L278.04 263.372L278.913 268.32C279.398 267.298 280.274 266.675 281.541 266.452ZM282.744 274.428C283.556 274.285 284.166 273.863 284.572 273.163C284.979 272.463 285.096 271.623 284.923 270.643C284.752 269.675 284.357 268.937 283.738 268.43C283.116 267.912 282.399 267.724 281.587 267.867C280.786 268.008 280.195 268.427 279.812 269.123C279.427 269.807 279.32 270.633 279.491 271.601C279.666 272.592 280.052 273.35 280.65 273.873C281.245 274.384 281.943 274.569 282.744 274.428ZM288.324 263.962C288.037 264.013 287.768 263.955 287.517 263.79C287.278 263.623 287.134 263.396 287.083 263.109C287.032 262.822 287.092 262.565 287.261 262.338C287.441 262.097 287.674 261.951 287.961 261.9C288.235 261.852 288.492 261.911 288.731 262.079C288.968 262.234 289.112 262.455 289.163 262.742C289.213 263.029 289.155 263.292 288.987 263.531C288.82 263.77 288.599 263.914 288.324 263.962ZM289.369 274.498L287.788 265.535L289.348 265.26L290.928 274.223L289.369 274.498ZM296.69 273.392C295.842 273.542 295.207 273.438 294.787 273.081C294.376 272.71 294.116 272.213 294.007 271.592L293.008 265.927L291.108 266.262L290.883 264.989L291.493 264.882C292.019 264.789 292.372 264.628 292.554 264.399C292.733 264.158 292.779 263.793 292.693 263.303L292.497 262.191L293.931 261.938L294.361 264.376L296.602 263.981L296.826 265.254L294.585 265.649L295.546 271.099C295.679 271.851 296.122 272.162 296.875 272.029C297.162 271.978 297.452 271.878 297.746 271.727L297.964 272.964C297.509 273.18 297.084 273.323 296.69 273.392ZM303.031 264.178L310.918 262.788L311.155 264.132L303.268 265.523L303.031 264.178ZM303.729 268.14L311.617 266.749L311.851 268.076L303.963 269.467L303.729 268.14ZM325.981 255.104L327.577 254.823L329.789 267.371L328.032 267.681L319.674 259.063L319.548 259.085L321.274 268.872L319.679 269.154L317.466 256.605L319.241 256.292L327.581 264.914L327.707 264.892L325.981 255.104ZM337.321 259.315L342.663 258.373L343.814 264.898L342.523 265.126L342.07 263.708L341.944 263.731C341.156 264.991 339.932 265.768 338.27 266.06C336.526 266.368 335.024 266.029 333.766 265.043C332.52 264.055 331.734 262.641 331.41 260.801C331.075 258.901 331.364 257.223 332.278 255.768C333.202 254.299 334.572 253.404 336.389 253.084C337.775 252.84 338.978 252.985 339.996 253.52C341.027 254.053 341.747 254.856 342.159 255.93L340.402 256.239C340.067 255.596 339.57 255.123 338.913 254.82C338.268 254.515 337.515 254.438 336.654 254.59C335.304 254.828 334.301 255.498 333.645 256.599C332.989 257.701 332.792 258.998 333.056 260.492C333.304 261.902 333.891 262.994 334.816 263.768C335.751 264.527 336.876 264.791 338.19 264.559C339.254 264.371 340.104 263.95 340.74 263.296C341.374 262.63 341.605 261.806 341.432 260.827L341.281 259.966L337.552 260.624L337.321 259.315ZM353.291 250.289L354.886 250.007L357.099 262.556L355.342 262.865L346.983 254.247L346.858 254.269L348.584 264.057L346.988 264.338L344.776 251.79L346.55 251.477L354.891 260.098L355.016 260.076L353.291 250.289ZM368.958 260.649C367.668 260.877 366.546 260.563 365.595 259.708C364.653 258.839 364.009 257.425 363.663 255.465C363.322 253.529 363.445 251.991 364.033 250.853C364.633 249.712 365.578 249.028 366.869 248.8C368.16 248.572 369.271 248.9 370.203 249.783C371.145 250.652 371.788 252.061 372.131 254.009C372.474 255.957 372.351 257.494 371.761 258.621C371.171 259.748 370.237 260.424 368.958 260.649ZM368.715 259.269C369.48 259.134 370.029 258.649 370.362 257.814C370.705 256.965 370.744 255.787 370.479 254.282C370.213 252.776 369.774 251.683 369.161 251.002C368.548 250.322 367.859 250.049 367.094 250.184C366.33 250.318 365.776 250.81 365.432 251.66C365.099 252.495 365.066 253.671 365.334 255.189C365.601 256.707 366.035 257.801 366.633 258.472C367.244 259.14 367.938 259.406 368.715 259.269ZM377.04 258.818C376.873 259.057 376.64 259.202 376.341 259.255C376.042 259.308 375.767 259.252 375.517 259.086C375.275 258.907 375.13 258.674 375.079 258.387C375.026 258.088 375.084 257.819 375.251 257.58C375.428 257.327 375.666 257.175 375.965 257.122C376.264 257.069 376.534 257.133 376.775 257.312C377.014 257.479 377.16 257.712 377.212 258.011C377.263 258.298 377.205 258.567 377.04 258.818ZM383.768 258.038C382.478 258.265 381.357 257.952 380.405 257.097C379.463 256.228 378.819 254.813 378.474 252.853C378.132 250.917 378.256 249.38 378.843 248.241C379.443 247.1 380.388 246.416 381.679 246.189C382.97 245.961 384.081 246.289 385.013 247.172C385.955 248.041 386.598 249.449 386.941 251.397C387.285 253.345 387.161 254.883 386.571 256.009C385.982 257.136 385.047 257.812 383.768 258.038ZM383.525 256.658C384.29 256.523 384.839 256.038 385.172 255.203C385.515 254.353 385.554 253.176 385.289 251.67C385.023 250.164 384.584 249.071 383.971 248.391C383.358 247.71 382.669 247.437 381.905 247.572C381.14 247.707 380.586 248.199 380.243 249.048C379.909 249.883 379.876 251.06 380.144 252.577C380.412 254.095 380.845 255.189 381.444 255.86C382.054 256.529 382.748 256.795 383.525 256.658ZM394.64 256.121C393.349 256.349 392.228 256.035 391.276 255.18C390.334 254.311 389.691 252.896 389.345 250.937C389.004 249 389.127 247.463 389.715 246.324C390.314 245.184 391.26 244.499 392.55 244.272C393.841 244.044 394.952 244.372 395.884 245.255C396.826 246.124 397.469 247.532 397.812 249.48C398.156 251.428 398.033 252.966 397.443 254.093C396.853 255.219 395.918 255.896 394.64 256.121ZM394.396 254.741C395.161 254.606 395.71 254.121 396.044 253.286C396.387 252.437 396.426 251.259 396.16 249.753C395.895 248.248 395.455 247.154 394.842 246.474C394.23 245.793 393.541 245.52 392.776 245.655C392.011 245.79 391.457 246.282 391.114 247.131C390.78 247.966 390.748 249.143 391.015 250.66C391.283 252.178 391.716 253.272 392.315 253.943C392.926 254.612 393.62 254.878 394.396 254.741Z" fill="#667085"/>
<path d="M139.045 334.38C139.107 334.734 139.445 334.97 139.798 334.908C140.152 334.845 140.388 334.508 140.326 334.155L139.045 334.38ZM139.723 330.74C139.661 330.386 139.324 330.15 138.97 330.213C138.617 330.275 138.381 330.612 138.443 330.966L139.723 330.74ZM138.368 326.798C138.015 326.861 137.779 327.198 137.841 327.551C137.903 327.905 138.24 328.141 138.594 328.079L138.368 326.798ZM138.603 328.077C138.956 328.015 139.192 327.678 139.13 327.324C139.068 326.97 138.73 326.734 138.377 326.797L138.603 328.077ZM146.979 329.461C147.748 333.821 144.836 337.98 140.476 338.749L140.701 340.029C145.769 339.136 149.153 334.303 148.26 329.235L146.979 329.461ZM140.476 338.749C136.115 339.518 131.956 336.606 131.187 332.245L129.907 332.471C130.8 337.539 135.633 340.923 140.701 340.029L140.476 338.749ZM131.187 332.245C130.418 327.884 133.33 323.726 137.691 322.957L137.465 321.676C132.397 322.57 129.013 327.403 129.907 332.471L131.187 332.245ZM137.691 322.957C142.052 322.188 146.21 325.1 146.979 329.461L148.26 329.235C147.366 324.167 142.533 320.783 137.465 321.676L137.691 322.957ZM140.326 334.155L139.723 330.74L138.443 330.966L139.045 334.38L140.326 334.155ZM138.594 328.079L138.603 328.077L138.377 326.797L138.368 326.798L138.594 328.079Z" fill="#667085"/>
<path d="M163.042 320.798L163.301 322.268L159.68 322.906L161.634 333.985L160.002 334.272L158.049 323.194L154.428 323.832L154.169 322.362L163.042 320.798ZM165.865 333.239L164.284 324.275L165.7 324.026L166.062 325.237L166.187 325.215C166.37 324.715 166.632 324.311 166.972 324.005C167.31 323.686 167.82 323.467 168.501 323.347L169.021 323.255L169.299 324.833C169.116 324.841 168.845 324.876 168.486 324.939C167.721 325.074 167.177 325.447 166.854 326.059C166.528 326.659 166.442 327.395 166.596 328.267L167.424 332.964L165.865 333.239ZM179.305 329.612L179.538 329.571L179.753 330.79L179.036 330.916C178.152 331.072 177.552 330.783 177.238 330.05C176.701 331.057 175.793 331.673 174.514 331.898C173.63 332.054 172.875 331.966 172.249 331.632C171.634 331.285 171.252 330.693 171.105 329.856C170.961 329.044 171.124 328.362 171.594 327.811C172.074 327.246 172.765 326.834 173.668 326.576L176.295 325.854L176.207 325.352C176.097 324.731 175.85 324.275 175.467 323.986C175.083 323.696 174.592 323.604 173.995 323.709C172.919 323.899 172.374 324.58 172.359 325.754L170.799 326.029C170.739 325.127 170.965 324.348 171.478 323.691C172 323.02 172.763 322.596 173.767 322.419C174.807 322.235 175.688 322.376 176.41 322.84C177.145 323.302 177.605 324.058 177.79 325.11L178.476 329C178.563 329.49 178.839 329.694 179.305 329.612ZM176.636 327.79L176.497 327.002L174.366 327.599C173.767 327.766 173.312 328.013 173 328.339C172.699 328.663 172.59 329.058 172.673 329.524C172.755 329.991 172.965 330.311 173.304 330.485C173.641 330.648 174.042 330.688 174.508 330.606C175.189 330.485 175.747 330.19 176.182 329.719C176.626 329.234 176.778 328.591 176.636 327.79ZM181.463 330.488L179.882 321.525L181.298 321.275L181.631 322.326L181.757 322.304C182.219 321.36 183.012 320.789 184.135 320.59C185.115 320.418 185.957 320.583 186.662 321.087C187.367 321.592 187.819 322.405 188.017 323.529L189.01 329.158L187.45 329.433L186.518 324.144C186.372 323.32 186.066 322.739 185.6 322.402C185.144 322.051 184.605 321.931 183.984 322.04C183.327 322.156 182.811 322.481 182.437 323.015C182.073 323.536 181.968 324.232 182.121 325.104L183.022 330.213L181.463 330.488ZM194.541 328.367C193.43 328.563 192.529 328.451 191.839 328.03C191.16 327.608 190.719 326.958 190.515 326.083L192.039 325.814C192.343 326.906 193.104 327.345 194.323 327.13C194.801 327.046 195.177 326.875 195.452 326.617C195.737 326.345 195.843 326 195.769 325.581C195.691 325.139 195.463 324.828 195.087 324.648C194.722 324.466 194.238 324.342 193.635 324.276L192.997 324.222C192.645 324.185 192.348 324.139 192.104 324.083C191.86 324.028 191.585 323.935 191.278 323.804C190.97 323.661 190.717 323.453 190.521 323.18C190.325 322.906 190.192 322.572 190.123 322.178C189.986 321.401 190.169 320.728 190.672 320.159C191.188 319.587 191.864 319.228 192.7 319.08C193.704 318.903 194.525 319.017 195.163 319.422C195.802 319.827 196.201 320.379 196.361 321.078L194.837 321.346C194.732 320.958 194.509 320.671 194.168 320.485C193.825 320.287 193.414 320.23 192.936 320.314C192.494 320.392 192.143 320.565 191.882 320.833C191.633 321.098 191.544 321.434 191.616 321.841C191.652 322.044 191.725 322.216 191.836 322.356C191.945 322.485 192.099 322.587 192.297 322.663C192.507 322.737 192.689 322.791 192.843 322.826C193.009 322.858 193.243 322.891 193.544 322.924L194.15 323.002C194.976 323.078 195.665 323.283 196.217 323.617C196.779 323.937 197.129 324.491 197.268 325.28C197.416 326.117 197.229 326.803 196.707 327.338C196.183 327.862 195.461 328.205 194.541 328.367ZM200.417 316.537L200.651 317.863L202.748 317.493L202.973 318.766L200.875 319.136L202.231 326.826L200.654 327.104L199.298 319.414L197.469 319.736L197.245 318.464L199.073 318.141L198.814 316.671C198.685 315.942 198.802 315.343 199.162 314.872C199.533 314.388 200.094 314.08 200.847 313.947C201.349 313.858 201.831 313.866 202.293 313.969L202.212 315.185C201.934 315.148 201.646 315.155 201.347 315.208C200.594 315.341 200.284 315.784 200.417 316.537ZM212.723 320.17C212.738 320.254 212.759 320.441 212.786 320.732L206.099 321.911C206.305 322.799 206.701 323.475 207.288 323.938C207.887 324.4 208.599 324.557 209.423 324.412C210.009 324.309 210.483 324.096 210.845 323.773C211.217 323.437 211.437 323.01 211.506 322.492L213.03 322.223C212.995 323.142 212.674 323.907 212.067 324.519C211.46 325.131 210.655 325.526 209.651 325.703C208.372 325.928 207.253 325.694 206.293 325.001C205.333 324.308 204.731 323.274 204.489 321.9C204.238 320.477 204.442 319.259 205.101 318.243C205.76 317.227 206.705 316.611 207.936 316.394C209.083 316.191 210.102 316.412 210.991 317.056C211.893 317.698 212.471 318.736 212.723 320.17ZM210.064 318.089C209.526 317.691 208.892 317.556 208.163 317.684C207.434 317.813 206.863 318.172 206.45 318.763C206.046 319.339 205.868 320.005 205.915 320.761L211.095 319.848C210.946 319.073 210.603 318.486 210.064 318.089ZM215.687 324.454L214.107 315.49L215.523 315.241L215.884 316.452L216.01 316.43C216.193 315.93 216.454 315.526 216.794 315.22C217.133 314.901 217.642 314.682 218.324 314.562L218.843 314.47L219.122 316.048C218.938 316.056 218.667 316.091 218.309 316.154C217.544 316.289 217 316.662 216.676 317.274C216.351 317.873 216.265 318.609 216.418 319.482L217.247 324.179L215.687 324.454ZM231.081 321.924C229.743 322.16 228.584 321.915 227.606 321.188C226.639 320.458 226.039 319.431 225.805 318.104C225.565 316.742 225.785 315.545 226.466 314.513C227.144 313.469 228.129 312.833 229.419 312.606C230.447 312.424 231.388 312.554 232.242 312.995C233.106 313.422 233.704 314.124 234.037 315.1L232.459 315.378C232.247 314.873 231.889 314.487 231.386 314.218C230.882 313.949 230.308 313.872 229.663 313.986C228.826 314.133 228.195 314.571 227.769 315.299C227.343 316.028 227.214 316.87 227.383 317.826C227.547 318.758 227.946 319.483 228.579 319.999C229.212 320.516 229.965 320.698 230.838 320.544C232.128 320.316 232.858 319.596 233.026 318.383L234.603 318.105C234.603 319.079 234.281 319.912 233.639 320.604C233.009 321.294 232.157 321.734 231.081 321.924ZM241.148 320.149C239.857 320.377 238.704 320.124 237.687 319.391C236.681 318.645 236.06 317.608 235.827 316.282C235.588 314.931 235.817 313.745 236.511 312.723C237.204 311.689 238.202 311.057 239.504 310.827C240.795 310.6 241.948 310.852 242.965 311.585C243.981 312.318 244.607 313.353 244.843 314.692C245.079 316.03 244.845 317.217 244.141 318.253C243.448 319.287 242.451 319.919 241.148 320.149ZM238.622 318.192C239.283 318.728 240.044 318.92 240.904 318.769C241.765 318.617 242.414 318.176 242.852 317.446C243.3 316.701 243.444 315.875 243.284 314.967C243.122 314.046 242.704 313.319 242.03 312.785C241.369 312.248 240.608 312.056 239.748 312.208C238.875 312.361 238.226 312.803 237.8 313.531C237.374 314.259 237.242 315.083 237.404 316.003C237.564 316.912 237.97 317.641 238.622 318.192ZM247.706 318.808L246.125 309.845L247.541 309.595L247.874 310.645L248 310.623C248.426 309.685 249.159 309.125 250.199 308.942C251.382 308.733 252.287 309.116 252.915 310.089L253.022 310.07C253.423 308.915 254.25 308.227 255.505 308.006C256.389 307.85 257.148 307.994 257.78 308.437C258.413 308.879 258.819 309.609 258.998 310.625L260.057 316.63L258.479 316.908L257.474 311.208C257.356 310.538 257.093 310.061 256.686 309.776C256.276 309.478 255.814 309.375 255.3 309.465C254.703 309.571 254.257 309.871 253.962 310.367C253.665 310.85 253.577 311.433 253.697 312.114L254.661 317.581L253.084 317.86L252.101 312.285C251.976 311.579 251.708 311.072 251.296 310.763C250.894 310.439 250.43 310.324 249.904 310.417C249.379 310.509 248.947 310.789 248.61 311.255C248.272 311.709 248.166 312.3 248.295 313.029L249.265 318.533L247.706 318.808ZM265.332 306.273C266.539 306.06 267.601 306.323 268.52 307.06C269.449 307.784 270.035 308.839 270.28 310.225C270.526 311.623 270.336 312.815 269.709 313.801C269.093 314.784 268.182 315.382 266.975 315.595C265.708 315.818 264.672 315.533 263.867 314.738L264.708 319.507L263.148 319.782L260.935 307.233L262.226 307.006L262.594 308.253L262.701 308.234C263.224 307.144 264.101 306.49 265.332 306.273ZM266.535 314.249C267.347 314.106 267.958 313.69 268.366 313.002C268.773 312.302 268.891 311.468 268.72 310.5C268.547 309.52 268.15 308.771 267.529 308.252C266.907 307.733 266.19 307.545 265.378 307.688C264.577 307.83 263.985 308.248 263.603 308.944C263.218 309.628 263.113 310.466 263.288 311.458C263.459 312.426 263.843 313.171 264.441 313.694C265.036 314.206 265.734 314.391 266.535 314.249ZM273.16 314.32L270.915 301.592L272.475 301.317L274.719 314.045L273.16 314.32ZM284.236 307.561C284.251 307.645 284.271 307.832 284.298 308.123L277.611 309.302C277.817 310.19 278.214 310.865 278.801 311.329C279.4 311.79 280.111 311.948 280.936 311.802C281.521 311.699 281.995 311.486 282.357 311.164C282.729 310.827 282.95 310.4 283.019 309.883L284.542 309.614C284.507 310.532 284.186 311.297 283.579 311.909C282.973 312.522 282.167 312.916 281.163 313.093C279.885 313.319 278.765 313.085 277.805 312.391C276.845 311.698 276.244 310.664 276.001 309.29C275.751 307.868 275.955 306.649 276.613 305.633C277.272 304.618 278.217 304.001 279.448 303.784C280.595 303.582 281.614 303.803 282.504 304.447C283.406 305.089 283.983 306.127 284.236 307.561ZM281.577 305.479C281.038 305.081 280.405 304.946 279.676 305.075C278.947 305.203 278.375 305.563 277.962 306.153C277.558 306.73 277.38 307.396 277.427 308.151L282.608 307.238C282.459 306.463 282.115 305.877 281.577 305.479ZM290.284 311.485C289.436 311.635 288.801 311.531 288.381 311.174C287.971 310.802 287.711 310.306 287.601 309.685L286.602 304.02L284.702 304.355L284.478 303.082L285.087 302.975C285.613 302.882 285.967 302.721 286.148 302.492C286.327 302.251 286.374 301.885 286.287 301.395L286.091 300.284L287.525 300.031L287.955 302.469L290.196 302.074L290.42 303.347L288.18 303.742L289.141 309.191C289.273 309.944 289.716 310.254 290.469 310.122C290.756 310.071 291.046 309.97 291.34 309.82L291.558 311.057C291.103 311.273 290.679 311.415 290.284 311.485ZM300.096 304.764C300.111 304.848 300.132 305.035 300.158 305.326L293.472 306.505C293.678 307.393 294.074 308.069 294.661 308.532C295.26 308.993 295.972 309.151 296.796 309.006C297.382 308.903 297.856 308.69 298.218 308.367C298.59 308.03 298.81 307.603 298.879 307.086L300.403 306.817C300.368 307.735 300.047 308.5 299.44 309.113C298.833 309.725 298.028 310.12 297.024 310.297C295.745 310.522 294.626 310.288 293.666 309.595C292.705 308.902 292.104 307.868 291.862 306.493C291.611 305.071 291.815 303.852 292.474 302.837C293.133 301.821 294.078 301.205 295.309 300.988C296.456 300.785 297.474 301.006 298.364 301.65C299.266 302.292 299.843 303.33 300.096 304.764ZM297.437 302.682C296.899 302.284 296.265 302.15 295.536 302.278C294.807 302.407 294.236 302.766 293.823 303.357C293.419 303.933 293.241 304.599 293.288 305.355L298.468 304.441C298.319 303.667 297.976 303.08 297.437 302.682ZM306.142 308.689C305.031 308.885 304.13 308.772 303.44 308.352C302.762 307.929 302.321 307.28 302.117 306.404L303.641 306.136C303.944 307.228 304.705 307.667 305.924 307.452C306.402 307.367 306.779 307.196 307.054 306.938C307.338 306.666 307.444 306.321 307.37 305.903C307.292 305.461 307.065 305.15 306.688 304.97C306.323 304.788 305.839 304.663 305.236 304.597L304.598 304.543C304.247 304.507 303.949 304.461 303.705 304.405C303.461 304.35 303.186 304.256 302.879 304.126C302.571 303.983 302.319 303.775 302.122 303.501C301.926 303.228 301.794 302.894 301.724 302.499C301.587 301.723 301.77 301.05 302.274 300.48C302.789 299.909 303.465 299.549 304.302 299.402C305.305 299.225 306.126 299.339 306.765 299.744C307.403 300.149 307.802 300.701 307.962 301.399L306.439 301.668C306.333 301.28 306.11 300.993 305.769 300.807C305.426 300.608 305.016 300.551 304.538 300.636C304.095 300.714 303.744 300.886 303.483 301.154C303.234 301.42 303.146 301.756 303.217 302.162C303.253 302.365 303.326 302.537 303.437 302.678C303.546 302.807 303.7 302.909 303.898 302.985C304.108 303.059 304.29 303.113 304.444 303.147C304.61 303.18 304.844 303.212 305.146 303.245L305.751 303.324C306.578 303.4 307.267 303.605 307.819 303.939C308.38 304.259 308.731 304.813 308.87 305.602C309.017 306.438 308.83 307.124 308.308 307.66C307.785 308.183 307.063 308.526 306.142 308.689ZM315.25 296.177C314.963 296.228 314.694 296.171 314.443 296.005C314.204 295.838 314.06 295.611 314.009 295.324C313.958 295.037 314.018 294.78 314.187 294.553C314.367 294.312 314.6 294.167 314.887 294.116C315.161 294.067 315.418 294.127 315.657 294.294C315.894 294.45 316.038 294.671 316.088 294.958C316.139 295.244 316.081 295.507 315.913 295.746C315.746 295.985 315.525 296.129 315.25 296.177ZM316.295 306.714L314.714 297.751L316.274 297.476L317.854 306.439L316.295 306.714ZM320.286 306.01L318.706 297.047L320.122 296.797L320.455 297.847L320.58 297.825C321.042 296.881 321.835 296.31 322.958 296.112C323.938 295.939 324.781 296.105 325.486 296.609C326.191 297.113 326.642 297.927 326.84 299.05L327.833 304.679L326.273 304.954L325.341 299.666C325.195 298.841 324.89 298.261 324.424 297.924C323.968 297.573 323.429 297.452 322.807 297.562C322.15 297.678 321.634 298.003 321.26 298.537C320.896 299.057 320.791 299.754 320.945 300.626L321.846 305.735L320.286 306.01ZM337.961 298.901C337.04 299.827 336.614 300.765 336.683 301.714L342.312 300.722L342.552 302.084L335.094 303.399L334.984 302.771C334.828 301.887 334.908 301.047 335.224 300.252C335.549 299.443 336.026 298.725 336.655 298.096L338.182 296.589C338.516 296.246 338.759 295.982 338.911 295.795C339.074 295.606 339.229 295.332 339.376 294.973C339.522 294.615 339.563 294.256 339.5 293.898C339.405 293.36 339.149 292.955 338.732 292.684C338.312 292.401 337.815 292.309 337.242 292.411C336.537 292.535 336.022 292.866 335.698 293.404C335.384 293.927 335.259 294.479 335.324 295.059L333.693 295.347C333.58 294.356 333.813 293.44 334.392 292.599C334.97 291.758 335.857 291.232 337.052 291.021C338.104 290.835 338.997 290.974 339.731 291.436C340.478 291.895 340.936 292.603 341.104 293.559C341.327 294.826 340.851 296.038 339.675 297.194L337.961 298.901ZM351.994 296.445L352.212 297.682L350.222 298.033L350.684 300.65L349.178 300.915L348.717 298.298L343.393 299.237L343.253 298.448L346.994 289.471L348.661 289.177L350.004 296.796L351.994 296.445ZM345.021 297.675L348.499 297.061L347.534 291.594L347.409 291.616L345.021 297.675ZM357.288 290.059C358.268 289.886 359.11 290.052 359.815 290.556C360.52 291.06 360.972 291.874 361.17 292.997L362.162 298.626L360.603 298.901L359.67 293.613C359.525 292.788 359.219 292.207 358.753 291.871C358.297 291.52 357.758 291.399 357.137 291.509C356.479 291.625 355.964 291.95 355.59 292.484C355.225 293.004 355.12 293.7 355.274 294.573L356.175 299.682L354.615 299.957L352.371 287.229L353.931 286.954L354.784 291.794L354.91 291.772C355.372 290.828 356.164 290.257 357.288 290.059ZM364.611 298.194L363.031 289.231L364.447 288.981L364.809 290.193L364.934 290.171C365.117 289.67 365.379 289.267 365.719 288.96C366.057 288.642 366.567 288.423 367.248 288.303L367.768 288.211L368.046 289.789C367.862 289.796 367.591 289.832 367.233 289.895C366.468 290.03 365.924 290.403 365.6 291.015C365.275 291.614 365.189 292.35 365.343 293.223L366.171 297.919L364.611 298.194ZM373.996 296.724C372.885 296.92 371.984 296.808 371.293 296.388C370.615 295.965 370.174 295.316 369.97 294.44L371.494 294.171C371.798 295.264 372.559 295.702 373.778 295.487C374.256 295.403 374.632 295.232 374.907 294.974C375.192 294.702 375.298 294.357 375.224 293.939C375.146 293.496 374.918 293.185 374.542 293.005C374.177 292.823 373.693 292.699 373.09 292.633L372.452 292.579C372.1 292.542 371.803 292.496 371.559 292.441C371.315 292.385 371.04 292.292 370.733 292.161C370.425 292.018 370.172 291.81 369.976 291.537C369.78 291.263 369.647 290.929 369.578 290.535C369.441 289.758 369.624 289.085 370.127 288.516C370.643 287.944 371.319 287.585 372.155 287.437C373.159 287.26 373.98 287.374 374.618 287.779C375.257 288.184 375.656 288.736 375.816 289.435L374.292 289.704C374.187 289.316 373.964 289.028 373.623 288.842C373.28 288.644 372.869 288.587 372.391 288.671C371.949 288.749 371.598 288.922 371.337 289.19C371.088 289.455 370.999 289.791 371.071 290.198C371.107 290.401 371.18 290.573 371.291 290.713C371.4 290.842 371.554 290.944 371.752 291.02C371.962 291.094 372.144 291.148 372.298 291.183C372.464 291.215 372.698 291.248 372.999 291.281L373.605 291.359C374.431 291.435 375.12 291.64 375.672 291.974C376.234 292.294 376.584 292.848 376.723 293.637C376.871 294.474 376.684 295.16 376.162 295.695C375.638 296.219 374.916 296.562 373.996 296.724Z" fill="#667085"/>
<path d="M95.2413 380.278L95.5416 381.981L91.9384 382.616L93.8508 393.462L91.9506 393.797L90.0383 382.952L86.4351 383.587L86.1348 381.884L95.2413 380.278ZM102.102 382.58C103.118 382.401 103.986 382.575 104.708 383.1C105.427 383.614 105.886 384.439 106.086 385.574L107.066 391.132L105.238 391.454L104.328 386.291C104.188 385.502 103.893 384.945 103.441 384.618C102.999 384.277 102.473 384.16 101.864 384.267C101.23 384.379 100.736 384.688 100.382 385.194C100.037 385.686 99.9389 386.35 100.086 387.187L100.971 392.206L99.1429 392.529L96.8987 379.801L98.7272 379.479L99.5806 384.319L99.7061 384.297C100.18 383.35 100.979 382.778 102.102 382.58ZM116.623 384.696C116.638 384.78 116.661 384.979 116.692 385.294L110.059 386.464C110.25 387.268 110.623 387.88 111.178 388.299C111.73 388.707 112.395 388.843 113.172 388.706C114.379 388.493 115.045 387.901 115.169 386.93L116.926 386.621C116.893 387.551 116.569 388.335 115.954 388.973C115.338 389.599 114.498 390.006 113.434 390.194C112.131 390.423 110.994 390.193 110.022 389.501C109.05 388.81 108.443 387.778 108.2 386.403C107.947 384.969 108.157 383.749 108.83 382.743C109.513 381.723 110.476 381.104 111.719 380.885C112.89 380.678 113.932 380.895 114.846 381.535C115.772 382.172 116.364 383.226 116.623 384.696ZM111.981 382.372C111.288 382.495 110.753 382.817 110.377 383.339C110.001 383.861 109.825 384.472 109.85 385.17L114.726 384.31C114.591 383.619 114.271 383.096 113.765 382.742C113.257 382.375 112.662 382.252 111.981 382.372ZM120.949 392.565C120.578 392.631 120.119 392.644 119.57 392.605L119.326 391.225C119.723 391.241 120.048 391.227 120.298 391.183C121.243 391.016 121.818 390.471 122.025 389.548L122.239 388.456L121.648 388.561L116.607 380.207L118.507 379.872L122.409 386.485L122.553 386.46L123.796 378.94L125.696 378.605L123.775 389.516C123.504 391.264 122.562 392.281 120.949 392.565ZM140.3 376.159C140.045 376.598 139.611 377.038 138.999 377.479C139.468 377.902 139.76 378.442 139.876 379.099C140.04 380.031 139.836 380.831 139.264 381.499C138.692 382.167 137.898 382.59 136.882 382.769C136.284 382.874 135.737 382.879 135.239 382.781C134.924 383.022 134.794 383.297 134.849 383.608C134.939 384.122 135.403 384.305 136.239 384.158L138.014 383.845C139.03 383.666 139.853 383.755 140.483 384.112C141.112 384.469 141.498 385.048 141.639 385.849C141.803 386.781 141.567 387.574 140.931 388.229C140.295 388.883 139.367 389.318 138.148 389.533C136.858 389.76 135.809 389.649 135.003 389.2C134.209 388.749 133.692 388.088 133.452 387.218L134.668 385.729C133.872 385.549 133.405 385.064 133.266 384.275C133.139 383.558 133.428 382.922 134.131 382.367C133.388 381.931 132.937 381.259 132.777 380.351C132.619 379.454 132.806 378.663 133.338 377.978C133.88 377.279 134.677 376.836 135.729 376.651C136.518 376.512 137.236 376.564 137.882 376.807C138.403 376.407 138.825 375.902 139.149 375.29L140.3 376.159ZM136.638 381.389C137.176 381.294 137.579 381.063 137.847 380.695C138.115 380.327 138.206 379.899 138.119 379.409C138.029 378.895 137.794 378.511 137.417 378.257C137.037 377.991 136.579 377.906 136.041 378.001C135.491 378.098 135.078 378.337 134.8 378.719C134.52 379.088 134.425 379.53 134.516 380.044C134.6 380.522 134.838 380.893 135.23 381.157C135.619 381.408 136.089 381.486 136.638 381.389ZM139.898 386.248C139.824 385.83 139.609 385.554 139.253 385.419C138.896 385.285 138.497 385.257 138.055 385.335L136.424 385.622L135.249 387.031C135.715 387.996 136.599 388.364 137.902 388.134C138.547 388.021 139.063 387.8 139.449 387.473C139.835 387.147 139.984 386.738 139.898 386.248ZM150.288 378.76C150.302 378.844 150.325 379.043 150.356 379.358L143.723 380.528C143.915 381.332 144.287 381.944 144.842 382.364C145.394 382.771 146.059 382.907 146.836 382.77C148.043 382.557 148.709 381.965 148.833 380.994L150.59 380.685C150.557 381.615 150.233 382.399 149.619 383.037C149.002 383.663 148.162 384.07 147.098 384.258C145.796 384.487 144.658 384.257 143.686 383.566C142.714 382.874 142.107 381.842 141.864 380.467C141.612 379.033 141.822 377.813 142.494 376.807C143.177 375.787 144.14 375.168 145.383 374.949C146.554 374.742 147.597 374.959 148.51 375.599C149.436 376.236 150.029 377.29 150.288 378.76ZM145.645 376.437C144.952 376.559 144.417 376.881 144.041 377.403C143.665 377.926 143.489 378.536 143.514 379.234L148.39 378.374C148.256 377.683 147.935 377.16 147.429 376.806C146.921 376.44 146.326 376.316 145.645 376.437ZM156.415 382.615C154.778 382.904 153.821 382.265 153.545 380.7L152.606 375.376L150.67 375.717L150.411 374.247L151.039 374.136C151.564 374.044 151.917 373.877 152.096 373.636C152.288 373.392 152.34 373.026 152.254 372.536L152.061 371.442L153.728 371.148L154.158 373.586L156.434 373.185L156.694 374.655L154.417 375.056L155.311 380.129C155.444 380.882 155.899 381.19 156.676 381.053C156.975 381.001 157.259 380.901 157.529 380.755L157.779 382.171C157.3 382.391 156.845 382.539 156.415 382.615Z" fill="#344054"/>
<g filter="url(#filter2_d_312_147)">
<path d="M457.569 343.343L100.324 406.335C94.667 407.332 90.8895 412.727 91.887 418.385L99.1119 459.359C100.109 465.016 105.504 468.794 111.162 467.796L468.406 404.804C474.064 403.807 477.841 398.412 476.844 392.755L469.619 351.78C468.621 346.123 463.226 342.345 457.569 343.343Z" fill="white"/>
<path d="M194.908 400.219L112.374 414.772C109.545 415.271 107.657 417.968 108.155 420.797L113.574 451.528C114.073 454.356 116.77 456.245 119.599 455.747L202.133 441.194C204.961 440.695 206.85 437.997 206.351 435.169L200.933 404.438C200.434 401.609 197.737 399.72 194.908 400.219Z" fill="#F9FAFB"/>
<path d="M136.171 444.902C143.242 443.655 147.964 436.912 146.717 429.84C145.47 422.768 138.727 418.047 131.655 419.293C124.583 420.54 119.862 427.284 121.108 434.356C122.355 441.427 129.099 446.149 136.171 444.902Z" fill="#F0F0F0"/>
<path d="M133.356 432.196L146.717 429.84C146.513 428.684 146.162 427.592 145.687 426.578L132.767 428.856L133.356 432.196Z" fill="#D80027"/>
<path d="M132.178 425.515L143.66 423.49C142.65 422.349 141.449 421.396 140.116 420.671L131.589 422.175L132.178 425.515Z" fill="#D80027"/>
<path d="M136.17 444.902C139.184 444.371 141.77 442.841 143.65 440.713L127.709 443.524C130.203 444.881 133.157 445.434 136.17 444.902Z" fill="#D80027"/>
<path d="M124.165 440.704L146.015 436.851C146.464 435.713 146.754 434.505 146.865 433.257L122.138 437.617C122.669 438.752 123.355 439.788 124.165 440.704Z" fill="#D80027"/>
<path d="M125.135 422.505L126.301 422.299L125.355 423.279L125.995 424.482L124.77 423.885L123.824 424.865L123.988 423.699C123.172 424.664 122.499 425.744 121.992 426.905L122.366 426.839L121.764 427.463C121.688 427.661 121.617 427.862 121.55 428.065L122.059 429.022L121.365 428.683C121.269 429.034 121.188 429.39 121.122 429.751L121.682 430.806L123.024 430.569L122.078 431.549L122.717 432.752L121.493 432.155L120.926 432.742C120.953 433.276 121.013 433.815 121.108 434.356L133.913 432.098C132.666 425.026 132.519 424.193 131.655 419.293C129.126 419.74 126.897 420.889 125.135 422.505ZM127.31 431.942L126.086 431.345L125.139 432.325L125.329 430.976L124.105 430.379L125.446 430.142L125.636 428.793L126.275 429.996L127.617 429.759L126.67 430.739L127.31 431.942ZM126.013 427.009L126.652 428.212L125.428 427.615L124.482 428.595L124.671 427.246L123.447 426.649L124.788 426.412L124.978 425.063L125.618 426.266L126.959 426.029L126.013 427.009ZM131.903 431.132L130.679 430.535L129.732 431.515L129.922 430.166L128.697 429.569L130.039 429.332L130.229 427.983L130.868 429.186L132.21 428.949L131.263 429.929L131.903 431.132ZM130.606 426.199L131.245 427.402L130.021 426.805L129.075 427.785L129.264 426.436L128.04 425.839L129.381 425.602L129.571 424.253L130.21 425.456L131.552 425.219L130.606 426.199ZM129.948 422.469L130.588 423.672L129.363 423.075L128.417 424.055L128.607 422.706L127.382 422.109L128.724 421.872L128.913 420.523L129.553 421.726L130.894 421.489L129.948 422.469Z" fill="#0052B4"/>
<path d="M167.257 420.388L168.635 428.204C168.914 429.781 168.685 431.072 167.951 432.077C167.216 433.081 166.119 433.712 164.661 433.969C163.191 434.228 161.933 434.013 160.888 433.322C159.842 432.632 159.18 431.498 158.901 429.92L157.523 422.104L159.155 421.817L160.514 429.525C160.714 430.66 161.167 431.48 161.872 431.984C162.586 432.474 163.428 432.634 164.396 432.463C165.364 432.292 166.088 431.857 166.568 431.156C167.046 430.443 167.185 429.519 166.985 428.384L165.626 420.676L167.257 420.388ZM179.881 427.718C180.079 428.841 179.843 429.77 179.171 430.505C178.51 431.225 177.593 431.689 176.422 431.895C175.107 432.127 174.01 431.982 173.129 431.459C172.258 430.923 171.676 430.07 171.384 428.902L172.98 428.621C173.208 429.357 173.597 429.886 174.147 430.208C174.696 430.53 175.372 430.62 176.172 430.479C176.877 430.355 177.427 430.085 177.823 429.671C178.218 429.256 178.356 428.714 178.238 428.045C178.171 427.662 178.035 427.347 177.831 427.1C177.637 426.838 177.374 426.638 177.042 426.5C176.721 426.359 176.433 426.262 176.177 426.209C175.921 426.155 175.592 426.102 175.188 426.05L174.529 425.982C174.088 425.924 173.699 425.851 173.363 425.762C173.039 425.671 172.681 425.531 172.29 425.341C171.898 425.139 171.571 424.858 171.31 424.497C171.047 424.125 170.87 423.682 170.78 423.168C170.594 422.116 170.822 421.207 171.463 420.441C172.105 419.675 173.005 419.19 174.164 418.985C175.335 418.779 176.344 418.946 177.191 419.486C178.048 420.013 178.598 420.791 178.841 421.82L177.228 422.105C177.045 421.484 176.709 421.013 176.221 420.693C175.745 420.37 175.143 420.273 174.414 420.401C173.721 420.524 173.18 420.81 172.791 421.261C172.414 421.709 172.277 422.226 172.38 422.812C172.42 423.039 172.487 423.243 172.581 423.423C172.684 423.59 172.82 423.732 172.989 423.85C173.169 423.966 173.328 424.062 173.464 424.136C173.601 424.211 173.803 424.274 174.071 424.325C174.338 424.376 174.53 424.416 174.646 424.445C174.76 424.462 174.962 424.488 175.252 424.523L175.839 424.605C176.166 424.645 176.439 424.69 176.657 424.738C176.887 424.783 177.2 424.882 177.597 425.034C178.003 425.172 178.335 425.341 178.592 425.542C178.861 425.741 179.122 426.034 179.375 426.421C179.626 426.796 179.795 427.228 179.881 427.718ZM184.959 417.267C186.907 416.923 188.495 417.228 189.722 418.183C190.948 419.125 191.731 420.558 192.07 422.482C192.405 424.382 192.16 425.996 191.335 427.325C190.519 428.639 189.131 429.469 187.171 429.815L183.299 430.498L181.087 417.949L184.959 417.267ZM186.822 428.361C188.352 428.091 189.393 427.458 189.944 426.461C190.505 425.45 190.656 424.21 190.397 422.74C190.14 421.282 189.577 420.186 188.708 419.452C187.851 418.716 186.658 418.483 185.128 418.752L182.977 419.132L184.671 428.74L186.822 428.361Z" fill="#667085"/>
<path d="M219.903 420.496C218.851 421.555 218.364 422.626 218.442 423.711L224.875 422.577L225.15 424.134L216.627 425.636L216.501 424.919C216.322 423.909 216.414 422.949 216.775 422.04C217.147 421.116 217.692 420.294 218.41 419.576L220.156 417.853C220.537 417.462 220.815 417.16 220.988 416.946C221.176 416.73 221.353 416.417 221.52 416.007C221.687 415.598 221.735 415.188 221.662 414.778C221.554 414.163 221.261 413.701 220.784 413.391C220.304 413.067 219.737 412.963 219.081 413.079C218.275 413.221 217.687 413.599 217.317 414.213C216.958 414.812 216.815 415.443 216.89 416.105L215.026 416.434C214.896 415.302 215.163 414.255 215.824 413.294C216.485 412.332 217.499 411.731 218.865 411.49C220.066 411.278 221.087 411.436 221.927 411.964C222.78 412.49 223.303 413.299 223.495 414.391C223.751 415.839 223.206 417.224 221.862 418.545L219.903 420.496ZM230.883 414.462C232.113 414.245 233.181 414.472 234.088 415.143C234.995 415.814 235.558 416.771 235.777 418.014C236.008 419.325 235.763 420.453 235.042 421.397C234.319 422.327 233.288 422.91 231.95 423.146C230.68 423.37 229.593 423.195 228.689 422.622C227.799 422.047 227.215 421.171 226.937 419.995L228.679 419.688C228.882 420.441 229.254 420.995 229.795 421.35C230.334 421.692 230.973 421.797 231.71 421.667C232.53 421.523 233.148 421.153 233.564 420.559C233.98 419.964 234.112 419.237 233.961 418.376C233.811 417.53 233.443 416.876 232.855 416.417C232.278 415.941 231.593 415.773 230.801 415.913C229.64 416.117 228.871 416.746 228.493 417.798L226.834 417.732L226.262 410.418L233.597 409.125L233.868 410.661L228.111 411.676L228.383 415.853C228.971 415.116 229.804 414.652 230.883 414.462ZM244.449 413.57C245.134 413.702 245.754 414.023 246.308 414.53C246.876 415.036 247.235 415.712 247.384 416.559C247.579 417.665 247.329 418.639 246.632 419.48C245.935 420.321 244.911 420.861 243.559 421.099C242.193 421.34 241.032 421.185 240.076 420.636C239.131 420.07 238.561 419.234 238.366 418.128C238.217 417.281 238.316 416.524 238.663 415.857C239.024 415.188 239.505 414.681 240.106 414.335L240.088 414.233C238.751 413.92 237.965 413.094 237.729 411.755C237.543 410.703 237.777 409.796 238.431 409.033C239.083 408.256 239.996 407.764 241.171 407.557C242.332 407.352 243.343 407.498 244.205 407.994C245.081 408.487 245.611 409.26 245.797 410.311C245.922 411.021 245.849 411.647 245.578 412.188C245.305 412.715 244.923 413.141 244.431 413.467L244.449 413.57ZM241.409 408.909C240.754 409.025 240.249 409.318 239.896 409.789C239.54 410.246 239.421 410.809 239.539 411.478C239.654 412.134 239.964 412.614 240.469 412.92C240.973 413.225 241.54 413.322 242.168 413.211C242.783 413.103 243.268 412.82 243.624 412.363C243.993 411.904 244.12 411.346 244.005 410.691C243.887 410.021 243.582 409.533 243.092 409.225C242.612 408.901 242.051 408.796 241.409 408.909ZM243.309 419.685C244.047 419.555 244.623 419.228 245.038 418.705C245.464 418.165 245.613 417.533 245.485 416.809C245.355 416.072 245.009 415.506 244.446 415.112C243.898 414.716 243.214 414.59 242.394 414.735C241.575 414.879 240.975 415.231 240.595 415.791C240.215 416.351 240.086 416.979 240.209 417.676C240.341 418.427 240.7 418.984 241.285 419.345C241.883 419.704 242.558 419.818 243.309 419.685ZM252.803 419.004C252.612 419.277 252.345 419.444 252.004 419.504C251.662 419.564 251.348 419.5 251.062 419.311C250.786 419.106 250.619 418.84 250.562 418.512C250.501 418.171 250.567 417.863 250.758 417.59C250.961 417.301 251.233 417.126 251.574 417.066C251.915 417.006 252.224 417.078 252.5 417.283C252.773 417.475 252.939 417.741 253 418.082C253.057 418.41 252.992 418.717 252.803 419.004ZM259.07 409.619C260.244 409.411 261.283 409.63 262.185 410.273C263.087 410.917 263.645 411.847 263.859 413.062C264.083 414.332 263.85 415.444 263.159 416.397C262.481 417.347 261.487 417.938 260.176 418.169C258.851 418.402 257.707 418.182 256.743 417.507C255.779 416.832 255.179 415.825 254.943 414.487C254.841 413.913 254.83 413.33 254.909 412.739C254.986 412.134 255.081 411.639 255.196 411.252C255.325 410.863 255.508 410.387 255.747 409.824L257.828 404.852L260.061 404.459L257.447 410.243C257.887 409.94 258.428 409.732 259.07 409.619ZM259.929 416.649C260.735 416.507 261.329 416.121 261.71 415.49C262.092 414.86 262.212 414.141 262.07 413.336C261.932 412.557 261.579 411.95 261.009 411.516C260.454 411.079 259.773 410.931 258.967 411.073C258.161 411.215 257.565 411.588 257.178 412.191C256.792 412.794 256.667 413.485 256.805 414.264C256.947 415.07 257.305 415.704 257.879 416.166C258.454 416.628 259.137 416.789 259.929 416.649ZM269.961 411.67C268.908 412.728 268.421 413.8 268.5 414.885L274.933 413.75L275.207 415.307L266.685 416.81L266.558 416.093C266.38 415.082 266.471 414.123 266.832 413.214C267.204 412.289 267.749 411.468 268.468 410.75L270.213 409.027C270.595 408.636 270.872 408.333 271.046 408.119C271.233 407.903 271.41 407.59 271.577 407.181C271.745 406.771 271.792 406.361 271.72 405.952C271.611 405.337 271.319 404.875 270.841 404.564C270.362 404.241 269.794 404.136 269.139 404.252C268.333 404.394 267.745 404.772 267.374 405.387C267.015 405.985 266.873 406.616 266.947 407.279L265.083 407.608C264.954 406.476 265.22 405.429 265.881 404.467C266.543 403.506 267.556 402.905 268.922 402.664C270.124 402.452 271.145 402.61 271.984 403.138C272.837 403.663 273.36 404.472 273.553 405.565C273.808 407.013 273.264 408.397 271.919 409.719L269.961 411.67Z" fill="#121926"/>
<path d="M457.681 343.983L100.437 406.975C95.1335 407.91 91.5921 412.968 92.5273 418.272L99.7522 459.246C100.687 464.55 105.745 468.091 111.049 467.156L468.293 404.164C473.597 403.229 477.138 398.171 476.203 392.867L468.978 351.893C468.043 346.589 462.985 343.048 457.681 343.983Z" stroke="#D0D5DD" stroke-width="1.3002"/>
</g>
</g>
</g>
<defs>
<filter id="filter0_i_312_147" x="2.29858" y="4.87183" width="510.854" height="515.233" filterUnits="userSpaceOnUse" color-interpolation-filters="sRGB">
<feFlood flood-opacity="0" result="BackgroundImageFix"/>
<feBlend mode="normal" in="SourceGraphic" in2="BackgroundImageFix" result="shape"/>
<feColorMatrix in="SourceAlpha" type="matrix" values="0 0 0 0 0 0 0 0 0 0 0 0 0 0 0 0 0 0 127 0" result="hardAlpha"/>
<feOffset dy="16"/>
<feGaussianBlur stdDeviation="39.006"/>
<feComposite in2="hardAlpha" operator="arithmetic" k2="-1" k3="1"/>
<feColorMatrix type="matrix" values="0 0 0 0 0.12549 0 0 0 0 0.219608 0 0 0 0 0.333333 0 0 0 0.05 0"/>
<feBlend mode="normal" in2="shape" result="effect1_innerShadow_312_147"/>
</filter>
<filter id="filter1_d_312_147" x="42.3174" y="73.3091" width="389.276" height="128.773" filterUnits="userSpaceOnUse" color-interpolation-filters="sRGB">
<feFlood flood-opacity="0" result="BackgroundImageFix"/>
<feColorMatrix in="SourceAlpha" type="matrix" values="0 0 0 0 0 0 0 0 0 0 0 0 0 0 0 0 0 0 127 0" result="hardAlpha"/>
<feOffset dy="1"/>
<feGaussianBlur stdDeviation="1"/>
<feColorMatrix type="matrix" values="0 0 0 0 0.0627451 0 0 0 0 0.0941176 0 0 0 0 0.156863 0 0 0 0.05 0"/>
<feBlend mode="normal" in2="BackgroundImageFix" result="effect1_dropShadow_312_147"/>
<feBlend mode="normal" in="SourceGraphic" in2="effect1_dropShadow_312_147" result="shape"/>
</filter>
<filter id="filter2_d_312_147" x="89.7273" y="342.183" width="389.276" height="128.773" filterUnits="userSpaceOnUse" color-interpolation-filters="sRGB">
<feFlood flood-opacity="0" result="BackgroundImageFix"/>
<feColorMatrix in="SourceAlpha" type="matrix" values="0 0 0 0 0 0 0 0 0 0 0 0 0 0 0 0 0 0 127 0" result="hardAlpha"/>
<feOffset dy="1"/>
<feGaussianBlur stdDeviation="1"/>
<feColorMatrix type="matrix" values="0 0 0 0 0.0627451 0 0 0 0 0.0941176 0 0 0 0 0.156863 0 0 0 0.05 0"/>
<feBlend mode="normal" in2="BackgroundImageFix" result="effect1_dropShadow_312_147"/>
<feBlend mode="normal" in="SourceGraphic" in2="effect1_dropShadow_312_147" result="shape"/>
</filter>
</defs>
</svg>
