<svg width="133" height="45" viewBox="0 0 133 45" fill="none" xmlns="http://www.w3.org/2000/svg">
<path d="M90.2487 21.6233V24.1435H88.669V25.7961H90.2487V31.4116C90.2487 33.3291 91.1161 34.0961 93.2984 34.0961C93.6819 34.0961 94.0471 34.0504 94.3667 33.9957V32.3612C94.0928 32.3886 93.9193 32.4069 93.618 32.4069C92.6409 32.4069 92.2118 31.9503 92.2118 30.9094V25.7961H94.3667V24.1435H92.2118V21.6233H90.2487Z" fill="white"/>
<path d="M99.9259 34.2331C102.83 34.2331 104.61 32.2882 104.61 29.065C104.61 25.8601 102.82 23.9061 99.9259 23.9061C97.0223 23.9061 95.2327 25.8601 95.2327 29.065C95.2327 32.2882 97.0132 34.2331 99.9259 34.2331ZM99.9259 32.4891C98.2184 32.4891 97.2597 31.2381 97.2597 29.065C97.2597 26.9101 98.2184 25.65 99.9259 25.65C101.624 25.65 102.592 26.9101 102.592 29.065C102.592 31.229 101.624 32.4891 99.9259 32.4891Z" fill="white"/>
<path d="M106.133 34.0413H108.097V28.1702C108.097 26.7731 109.147 25.8327 110.635 25.8327C110.982 25.8327 111.566 25.8966 111.731 25.9514V24.0156C111.521 23.9608 111.146 23.9334 110.854 23.9334C109.558 23.9334 108.453 24.6457 108.17 25.6227H108.024V24.0978H106.133V34.0413Z" fill="white"/>
<path d="M116.605 25.577C118.057 25.577 119.006 26.5905 119.052 28.1519H114.03C114.14 26.5997 115.153 25.577 116.605 25.577ZM119.043 31.3568C118.678 32.133 117.865 32.5621 116.678 32.5621C115.108 32.5621 114.094 31.4573 114.03 29.7133V29.6037H121.052V28.9189C121.052 25.7961 119.381 23.9061 116.614 23.9061C113.811 23.9061 112.031 25.924 112.031 29.1015C112.031 32.2791 113.775 34.2331 116.623 34.2331C118.897 34.2331 120.486 33.1374 120.933 31.3568H119.043Z" fill="white"/>
<path d="M77.3747 30.3693C77.5261 32.811 79.5609 34.3725 82.5893 34.3725C85.826 34.3725 87.8512 32.7353 87.8512 30.1233C87.8512 28.0696 86.6966 26.9339 83.8953 26.2809L82.3906 25.9118C80.6114 25.4954 79.8921 24.9371 79.8921 23.9623C79.8921 22.732 81.0088 21.9276 82.684 21.9276C84.2739 21.9276 85.3717 22.7131 85.5704 23.9718H87.6336C87.5105 21.672 85.4853 20.0537 82.7123 20.0537C79.7312 20.0537 77.7438 21.672 77.7438 24.1042C77.7438 26.1106 78.87 27.303 81.3401 27.8803L83.1004 28.3062C84.908 28.7321 85.7029 29.3567 85.7029 30.3977C85.7029 31.6091 84.4537 32.4892 82.7502 32.4892C80.9237 32.4892 79.6555 31.6659 79.4757 30.3693H77.3747Z" fill="white"/>
<path d="M57.0387 23.9334C55.6873 23.9334 54.5185 24.6091 53.9159 25.7414H53.7698V24.0978H51.8797V37.3467H53.8429V32.5347H53.9981C54.5185 33.5848 55.6416 34.2057 57.0569 34.2057C59.5679 34.2057 61.1658 32.2243 61.1658 29.065C61.1658 25.9057 59.5679 23.9334 57.0387 23.9334ZM56.4817 32.4434C54.8381 32.4434 53.8063 31.1468 53.8063 29.0741C53.8063 26.9923 54.8381 25.6957 56.4908 25.6957C58.1526 25.6957 59.1479 26.9649 59.1479 29.065C59.1479 31.1742 58.1526 32.4434 56.4817 32.4434Z" fill="white"/>
<path d="M68.0351 23.9334C66.6838 23.9334 65.515 24.6091 64.9124 25.7414H64.7663V24.0978H62.8762V37.3467H64.8393V32.5347H64.9946C65.515 33.5848 66.6381 34.2057 68.0534 34.2057C70.5644 34.2057 72.1623 32.2243 72.1623 29.065C72.1623 25.9057 70.5644 23.9334 68.0351 23.9334ZM67.4781 32.4434C65.8346 32.4434 64.8028 31.1468 64.8028 29.0741C64.8028 26.9923 65.8346 25.6957 67.4873 25.6957C69.1491 25.6957 70.1444 26.9649 70.1444 29.065C70.1444 31.1742 69.1491 32.4434 67.4781 32.4434Z" fill="white"/>
<path d="M48.3575 34.0413H50.6099L45.6792 20.3849H43.3984L38.4678 34.0413H40.6445L41.9032 30.4166H47.1083L48.3575 34.0413ZM44.43 22.8645H44.5909L46.5688 28.6374H42.4426L44.43 22.8645Z" fill="white"/>
<path d="M39.7866 10.0844V16.6723H42.1652C44.1283 16.6723 45.2651 15.4625 45.2651 13.3578C45.2651 11.2851 44.1192 10.0844 42.1652 10.0844H39.7866ZM40.8093 11.0157H42.0511C43.4161 11.0157 44.2242 11.8832 44.2242 13.3715C44.2242 14.8827 43.4298 15.741 42.0511 15.741H40.8093V11.0157Z" fill="white"/>
<path d="M48.7467 16.7682C50.1985 16.7682 51.0888 15.7958 51.0888 14.1842C51.0888 12.5817 50.194 11.6047 48.7467 11.6047C47.2949 11.6047 46.4001 12.5817 46.4001 14.1842C46.4001 15.7958 47.2904 16.7682 48.7467 16.7682ZM48.7467 15.8962C47.893 15.8962 47.4136 15.2707 47.4136 14.1842C47.4136 13.1067 47.893 12.4767 48.7467 12.4767C49.5959 12.4767 50.0798 13.1067 50.0798 14.1842C50.0798 15.2662 49.5959 15.8962 48.7467 15.8962Z" fill="white"/>
<path d="M58.6702 11.7006H57.6886L56.8029 15.4944H56.7253L55.7026 11.7006H54.7621L53.7395 15.4944H53.6664L52.7762 11.7006H51.7809L53.1505 16.6723H54.1595L55.1822 13.0108H55.2598L56.287 16.6723H57.3051L58.6702 11.7006Z" fill="white"/>
<path d="M59.8006 16.6723H60.7821V13.7641C60.7821 12.988 61.2432 12.5041 61.9691 12.5041C62.695 12.5041 63.042 12.9013 63.042 13.7002V16.6723H64.0236V13.4537C64.0236 12.2712 63.4118 11.6047 62.3024 11.6047C61.5537 11.6047 61.0606 11.938 60.8186 12.4904H60.7456V11.7006H59.8006V16.6723Z" fill="white"/>
<path d="M65.5694 16.6723H66.551V9.76025H65.5694V16.6723Z" fill="white"/>
<path d="M70.2426 16.7682C71.6944 16.7682 72.5847 15.7958 72.5847 14.1842C72.5847 12.5817 71.6898 11.6047 70.2426 11.6047C68.7908 11.6047 67.896 12.5817 67.896 14.1842C67.896 15.7958 68.7862 16.7682 70.2426 16.7682ZM70.2426 15.8962C69.3889 15.8962 68.9095 15.2707 68.9095 14.1842C68.9095 13.1067 69.3889 12.4767 70.2426 12.4767C71.0918 12.4767 71.5757 13.1067 71.5757 14.1842C71.5757 15.2662 71.0918 15.8962 70.2426 15.8962Z" fill="white"/>
<path d="M75.5093 15.9281C74.9751 15.9281 74.5871 15.6679 74.5871 15.2205C74.5871 14.7822 74.8975 14.5494 75.5823 14.5037L76.7967 14.4261V14.8416C76.7967 15.4579 76.2489 15.9281 75.5093 15.9281ZM75.2582 16.7545C75.911 16.7545 76.4543 16.4714 76.7511 15.9738H76.8287V16.6723H77.7737V13.2756C77.7737 12.2256 77.0707 11.6047 75.8243 11.6047C74.6966 11.6047 73.8931 12.1525 73.7927 13.0063H74.7423C74.8519 12.6547 75.2308 12.4539 75.7786 12.4539C76.4498 12.4539 76.7967 12.7506 76.7967 13.2756V13.7048L75.4499 13.7824C74.2675 13.8554 73.6009 14.3713 73.6009 15.2662C73.6009 16.1747 74.2994 16.7545 75.2582 16.7545Z" fill="white"/>
<path d="M81.1047 16.7545C81.7895 16.7545 82.3693 16.4303 82.6661 15.8871H82.7437V16.6723H83.6841V9.76025H82.7026V12.4904H82.6295C82.3602 11.9425 81.7849 11.6184 81.1047 11.6184C79.8492 11.6184 79.0411 12.6136 79.0411 14.1842C79.0411 15.7592 79.84 16.7545 81.1047 16.7545ZM81.3832 12.4995C82.2049 12.4995 82.7208 13.1524 82.7208 14.1887C82.7208 15.2296 82.2095 15.8734 81.3832 15.8734C80.5523 15.8734 80.0546 15.2388 80.0546 14.1842C80.0546 13.1387 80.5568 12.4995 81.3832 12.4995Z" fill="white"/>
<path d="M90.0493 16.7682C91.5011 16.7682 92.3913 15.7958 92.3913 14.1842C92.3913 12.5817 91.4965 11.6047 90.0493 11.6047C88.5975 11.6047 87.7026 12.5817 87.7026 14.1842C87.7026 15.7958 88.5929 16.7682 90.0493 16.7682ZM90.0493 15.8962C89.1955 15.8962 88.7162 15.2707 88.7162 14.1842C88.7162 13.1067 89.1955 12.4767 90.0493 12.4767C90.8984 12.4767 91.3824 13.1067 91.3824 14.1842C91.3824 15.2662 90.8984 15.8962 90.0493 15.8962Z" fill="white"/>
<path d="M93.6907 16.6723H94.6722V13.7641C94.6722 12.988 95.1333 12.5041 95.8592 12.5041C96.5851 12.5041 96.9321 12.9013 96.9321 13.7002V16.6723H97.9137V13.4537C97.9137 12.2712 97.3019 11.6047 96.1925 11.6047C95.4438 11.6047 94.9507 11.938 94.7087 12.4904H94.6357V11.7006H93.6907V16.6723Z" fill="white"/>
<path d="M102.434 10.4633V11.7234H101.645V12.5497H102.434V15.3575C102.434 16.3162 102.868 16.6997 103.959 16.6997C104.151 16.6997 104.334 16.6769 104.493 16.6495V15.8323C104.356 15.846 104.27 15.8551 104.119 15.8551C103.631 15.8551 103.416 15.6268 103.416 15.1064V12.5497H104.493V11.7234H103.416V10.4633H102.434Z" fill="white"/>
<path d="M105.811 16.6723H106.793V13.7687C106.793 13.0154 107.24 12.5086 108.043 12.5086C108.737 12.5086 109.107 12.9104 109.107 13.7048V16.6723H110.089V13.4628C110.089 12.2804 109.436 11.6093 108.377 11.6093C107.628 11.6093 107.103 11.9425 106.861 12.4995H106.783V9.76025H105.811V16.6723Z" fill="white"/>
<path d="M113.63 12.4402C114.356 12.4402 114.83 12.9469 114.853 13.7276H112.342C112.397 12.9515 112.904 12.4402 113.63 12.4402ZM114.849 15.3301C114.666 15.7181 114.26 15.9327 113.666 15.9327C112.881 15.9327 112.374 15.3803 112.342 14.5083V14.4535H115.853V14.1111C115.853 12.5497 115.018 11.6047 113.634 11.6047C112.233 11.6047 111.342 12.6136 111.342 14.2024C111.342 15.7912 112.214 16.7682 113.639 16.7682C114.776 16.7682 115.57 16.2203 115.794 15.3301H114.849Z" fill="white"/>
<path d="M27.8161 22.8331C27.8399 20.984 28.833 19.2344 30.4083 18.2659C29.4145 16.8465 27.7499 15.9466 26.018 15.8924C24.1709 15.6985 22.3801 16.9977 21.4389 16.9977C20.4794 16.9977 19.0301 15.9117 17.4695 15.9438C15.4353 16.0095 13.539 17.166 12.5493 18.9444C10.4219 22.6277 12.0087 28.0408 14.0466 31.0181C15.0662 32.476 16.2578 34.1045 17.817 34.0467C19.3428 33.9835 19.9126 33.0738 21.7543 33.0738C23.579 33.0738 24.1136 34.0467 25.7044 34.01C27.3417 33.9834 28.3732 32.5457 29.357 31.074C30.0896 30.0352 30.6533 28.8871 31.0273 27.6722C29.1032 26.8584 27.8184 24.9222 27.8161 22.8331Z" fill="white"/>
<path d="M24.8113 13.9344C25.704 12.8628 26.1437 11.4854 26.0372 10.0947C24.6734 10.238 23.4136 10.8898 22.5089 11.9203C21.6242 12.9272 21.1638 14.2803 21.2508 15.6178C22.6151 15.6319 23.9564 14.9977 24.8113 13.9344Z" fill="white"/>
<rect x="1.07031" y="1.00244" width="131" height="43" rx="6.5" stroke="white"/>
</svg>
